/* XPM */
static char *result[] = {
/* columns rows colors chars-per-pixel */
"64 64 57 1 ",
"  c #241526",
". c #251526",
"X c #241427",
"o c #251427",
"O c #241527",
"+ c #251527",
"@ c #341C26",
"# c #351C26",
"$ c #341D26",
"% c #351D26",
"& c #341C27",
"* c #351C27",
"= c #341D27",
"- c #351D27",
"; c #19332D",
": c #162038",
"> c #172038",
", c #172039",
"< c #602C2C",
"1 c #612C2C",
"2 c #602D2C",
"3 c #612D2C",
"4 c #602C2D",
"5 c #602D2D",
"6 c #24562E",
"7 c #25562E",
"8 c #24572E",
"9 c #25572E",
"0 c #24562F",
"q c #25562F",
"w c #402751",
"e c #7A367B",
"r c #468232",
"t c #478232",
"y c #468332",
"u c #478332",
"i c #468233",
"p c #468333",
"a c #74A642",
"s c #75A642",
"d c #74A742",
"f c #75A742",
"g c #74A643",
"h c #75A643",
"j c #74A743",
"k c #75A743",
"l c #A8CA58",
"z c #A9CA58",
"x c #A8CB58",
"c c #A9CB58",
"v c #A8CA59",
"b c #A9CA59",
"n c #A8CB59",
"m c #A23E8C",
"M c #C65197",
"N c #DF84A5",
"B c #172139",
/* pixels */
"BBBBBBBBBBBBBBBBBBBBBBBBBBBBBBBBBBBBBBBBBBBBBBBBBBBBBBBBBBBBBBBB",
"BBBBBBBBBBBBBBBBBBBBBBBBBBBBBBBBBBBBBBBBBBBBBBBBBBBBBBBBBBBBBBBB",
"BBBBBBBBBBBBBBBBBBBBBBBBBBBBBBBBBBBBBBBBBBBBBBBBBBBBBBBBBBBBBBBB",
"BBBBBBBBBBBBBBBBBBBBBBBBBBBBBBBBBBBBBBBBBBBBBBBBBBBBBBBBBBBBBBBB",
"BBBBBBBBBBBBBBBBBBBBBBBBBBBBBBBBBBBBBBBBBBBBBBBBBBBBBBBBBBBBBBBB",
"BBBBBBBBBBBBBBBBBBBBBBBBBBBBBBBBBBBBBBBBBBBBBBBBBBBBBBBBBBBBBBBB",
"BBBBBBBBBBBBBBBBBBBBBBBBBBBBBBBBBBBBBBBBBBBBBBBBBBBBBBBBBBBBBBBB",
"BBBBBBBBBBBBBBBBBBBBBBBBBBBBBBBBBBBBBBBBBBBBBBBBBBBBBBBBBBBBBBBB",
"BBBBBBBBBBBBBBBBBBBBBBBBBBBBBBBBBBBBBBBBBBBBBBBBBBBBBBBBBBBBBBBB",
"BBBBBBBBBBBBBBBBBBBBBBBBBBBBBBBBBBBBBBBBBBBBBBBBBBBBBBBBBBBBBBBB",
"BBBBBBBBBBBBBBBBBBBBBBBBBBBBBBBBBBBBBBBBBBBBBBBBBBBBBBBBBBBBBBBB",
"BBBBBBBBBBBBBBBBBBBBBBBBBBBBBBBBBBBBBBBBBBBBBBBBBBBBBBBBBBBBBBBB",
"BBBBBBBBBBBBBBBBBBBBBBBBBBllBBBBllllBBBBBBBBBBBBBBBBBBBBBBBBBBBB",
"BBBBBBBBBBBBBBBBBBBBBBBBBBllBBBBzlllBBBBBBBBBBBBBBBBBBBBBBBBBBBB",
"BBBBBBBBBBBBBBBBBBBBBBBBkkllkklllllzhhBBBBBBBBBBBBBBBBBBBBBBBBBB",
"BBBBBBBBBBBBBBBBBBBBBBBBkkllkklllzllhhBBBBBBBBBBBBBBBBBBBBBBBBBB",
"BBBBBBBBBBBBBBBBBBBBBBllzzxxlzlzNvvlllkkvvllBBBBBBBBBBBBBBBBBBBB",
"BBBBBBBBBBBBBBBBBBBBBBllbzxxxllNMmllllkkvvzlBBBBBBBBBBBBBBBBBBBB",
"BBBBBBBBBBBBBBBBBBBBhgllzzxlllMmmmlllllllxllkkBBBBBBBBBBBBBBBBBB",
"BBBBBBBBBBBBBBBBBBBBhkllzzllllmmmellllllllllkkBBBBBBBBBBBBBBBBBB",
"BBBBBBBBBBBBllllkkhhzlllllNMllemewlllvlllllllljkxlvlBBBBBBBBBBBB",
"BBBBBBBBBBBBlzllkkhsvvllmNMmlllee7rrlrlmNlllllkkllvlBBBBBBBBBBBB",
"BBBBBBBBvlfdvbzzlllllllvmMmm;rrewrr77rrmMNllllllllllkkBBBBBBBBBB",
"BBBBBBBBlxadvvzbllllllvvewme;r;rrrr;NM;wmMmlllllllllkkBBBBBBBBBB",
"BBBBBBfflllxhkvvzllzllllxemw;rNMrr7mmNmrmmmlllllllllkkkhvvBBBBBB",
"BBBBBBffllllkkvvllllllrNl;r;rNMmr;rwmmmremelllllllllkkkkvvBBBBBB",
"BBBBBBlllllvxllllllllrNMr;r>mMme;;rreme;wellllxxvvzzxxllllzcBBBB",
"BBBBBBlllllllllllllllmMmmrr7;eemr;rrwe;7;rllxlxxvvzzxxllllzzBBBB",
"BBhkllzzlllllllllllllmmewr>r;;wm7;N;r;;7;;lllllcllllllvvllllxlll",
"BBkkllczlllllllllllll;eme77>;;mr;mMNmr>r;vlllllllvzllvvvzlllllll",
"&=bllllllxllllllvvxxx;ew777>7;;;rmmme>>r;llvvvzzllllllzzllllllll",
"&&lllvllxxllllllvvxxxc;>>77r;;r;;eme>>77lxllvvlzllllvlzzllllllll",
"llllvvxxllllllxxvvllvlll>>77>7r;;;ew>7rrlllllbllllllllvvlllzzlkh",
"zlllvvxxllllllxxvvlllvll;7>>7rr>7rrr7rr>xlllllllllllvlvbllllvljk",
"lllvkjlvlllllllvllllllllb;;>>rr7rr>>rr>lxxlvvvxxllxxllllzlkkxxrr",
"xlvbkkllllllllvllxlllzllbb;;7r>rr>;;7>llxxllvvxxllxxlllllvhkxlrr",
"pprurrlzkkllvvlzllllllllllll;;;>>l;;;;llvvllllllzzvvhkzzllrr&&99",
"pprrrtllkkllvvzllllllllllllll;>>;llllvllvvllllllzzlvkkzzlnrr&&99",
"OOOOOOlxyykklllllxllvllzllzzlzlllzlllxzzvlvnllllkkjjrrkkll77&&&&",
"OOOOOOllrrfklllllxllllllllzzllllllllxlzlvvlvllllhkjjrrkkll77&&&&",
"OO<<2231iirrrrlllbxxllzcllzllvllllvvllvlxnxlgjllyrrr6q79&&==##OX",
"OO<<2211iitrryllllxxllzzlxlllllllcvvzlllllxxjjllrrtr7777&&==%#OO",
"&&&&&&<<2<1<<<llhhlllllzllvlllllllllzlzzlzxxrrkkry767777=*&&&&OO",
"&&&&=&1<<<<<4<llhhllllllllllllllllvlzlzzzlxxrrkkrr777777&&&&=&XO",
"@@&&*&&&<1<<&&rrhklllzkklllzllzzzzvvllkkkklljk77qq&==&&&OOOO++OO",
"@@&&&&&&<<<<&&rrkkllllkkllllllzbzzvvllkkkkllkk77qq&&&&&&OOOO++OO",
"&&&&&&&&&&=&&&=&$@<5llrykkxxlzllkhkkllrr88hh777777OO&&&&OO&&OO&&",
"&&&&&&&&&&&&&&==@@<<llrrkkxxllllkkkkllrr88hh777777 O&&&*OO&&OO&&",
"@@&&&&&&&&+O&&@@&&<<<<4<iillllkkjkrrrrjh9977&&&&OOOO+Ooo++&@OOOO",
"@#*&&&&@&&OO&&@@&*<<<2<1iillllkkkkrrrrkh9977&&@&OOOOOOoo++&& OO ",
"BBBB==&=OOOO&&&&&&@@<<<<<<67776067uy77&*&&&&--&&&=&& OOOOX++BBBB",
"BBBB==&& O+X&&&&&&@@<<<<<<77776677up77&&&&&&%-&&&&&&O+OOOO.+BBBB",
"BBBBBBBB#* +>,&&&&&&&&&&&&4<<<11<<44&&OO&&&&OOX+*&++OOOOBBBBBBBB",
"BBBBBBBB**OO>>&&&&@&&&&&&*<<4<11<<44&&OO&&&&OOOO&&++OOO+BBBBBBBB",
"BBBBBBBBBBBB&&>>**&&&&&&===&<<11&&&&OOOOOO    OOOOOOBBBBBBBBBBBB",
"BBBBBBBBBBBB&&>>**&&&&&&==&&<<11*&&&OO OOO    OOOXOOBBBBBBBBBBBB",
"BBBBBBBBBBBBBBBB>>OOXXOO&&&&&&&&&&&&&&&&@&  OO+OBBBBBBBBBBBBBBBB",
"BBBBBBBBBBBBBBBB:,OOXXOO&&@&&&#@&&&&&&&&&&  OOOOBBBBBBBBBBBBBBBB",
"BBBBBBBBBBBBBBBBBBBB&&.oOO&&&&&&OOOXOOOOOOOOBBBBBBBBBBBBBBBBBBBB",
"BBBBBBBBBBBBBBBBBBBB&&+.OO&&&&&&OOOOOOO+OOOXBBBBBBBBBBBBBBBBBBBB",
"BBBBBBBBBBBBBBBBBBBBBBBBOO>>&&&& OOOXXOOBBBBBBBBBBBBBBBBBBBBBBBB",
"BBBBBBBBBBBBBBBBBBBBBBBBOO>>&&&@XOOOXXOOBBBBBBBBBBBBBBBBBBBBBBBB",
"BBBBBBBBBBBBBBBBBBBBBBBBBBBB>>&*OO++BBBBBBBBBBBBBBBBBBBBBBBBBBBB",
"BBBBBBBBBBBBBBBBBBBBBBBBBBBB>>**OO++BBBBBBBBBBBBBBBBBBBBBBBBBBBB"
};
