/* XPM */
static char *result[] = {
/* columns rows colors chars-per-pixel */
"64 64 151 2 ",
"   c #10141F",
".  c #141D28",
"X  c #151D28",
"o  c #161E29",
"O  c #171F29",
"+  c #171F2A",
"@  c #241526",
"#  c #251526",
"$  c #241427",
"%  c #251427",
"&  c #241527",
"*  c #251527",
"=  c #341C26",
"-  c #351C26",
";  c #341D26",
":  c #351D26",
">  c #341C27",
",  c #351C27",
"<  c #341D27",
"1  c #351D27",
"2  c #182029",
"3  c #1A222A",
"4  c #1A232A",
"5  c #1B232A",
"6  c #1B242A",
"7  c #1C252B",
"8  c #1D272B",
"9  c #1E282B",
"0  c #1F282B",
"q  c #162038",
"w  c #172038",
"e  c #172039",
"r  c #212A2C",
"t  c #232D2D",
"y  c #26312D",
"u  c #2A362F",
"i  c #2B372F",
"p  c #202E36",
"a  c #202E37",
"s  c #212E37",
"d  c #202F37",
"f  c #2B3730",
"g  c #2C3730",
"h  c #2F3A30",
"j  c #2E3B31",
"k  c #2F3C31",
"l  c #313D31",
"z  c #602C2C",
"x  c #612C2C",
"c  c #602D2C",
"v  c #612D2C",
"b  c #602C2D",
"n  c #602D2D",
"m  c #24562E",
"M  c #25562E",
"N  c #24572E",
"B  c #25572E",
"V  c #24562F",
"C  c #25562F",
"Z  c #334032",
"A  c #364333",
"S  c #384635",
"D  c #394834",
"F  c #3E4E36",
"G  c #415037",
"H  c #425338",
"J  c #455538",
"K  c #4F613B",
"L  c #4F623B",
"P  c #51623C",
"I  c #51633C",
"U  c #51653D",
"Y  c #576A3E",
"T  c #586C3E",
"R  c #5B6E3F",
"E  c #384A50",
"W  c #394A50",
"Q  c #394B50",
"!  c #394A51",
"~  c #5D7140",
"^  c #5F7440",
"/  c #5F7441",
"(  c #567277",
")  c #577277",
"_  c #577377",
"`  c #468232",
"'  c #478232",
"]  c #468332",
"[  c #478332",
"{  c #468233",
"}  c #468333",
"|  c #6D8445",
" . c #6D8545",
".. c #708846",
"X. c #728B47",
"o. c #7B944A",
"O. c #7D974A",
"+. c #7E984B",
"@. c #74A642",
"#. c #75A642",
"$. c #74A742",
"%. c #75A742",
"&. c #74A643",
"*. c #75A643",
"=. c #74A743",
"-. c #75A743",
";. c #809B4B",
":. c #829D4C",
">. c #829D4D",
",. c #839F4C",
"<. c #84A04D",
"1. c #89A44E",
"2. c #8AA74F",
"3. c #8DAA50",
"4. c #8FAD50",
"5. c #91B151",
"6. c #93B052",
"7. c #93B152",
"8. c #94B351",
"9. c #97B753",
"0. c #99B953",
"q. c #99B854",
"w. c #9BBB55",
"e. c #9DBD55",
"r. c #9EBD55",
"t. c #9FC056",
"y. c #9FC057",
"u. c #A0C156",
"i. c #A0C157",
"p. c #A2C256",
"a. c #A3C457",
"s. c #A4C557",
"d. c #A4C657",
"f. c #A5C757",
"g. c #A3C458",
"h. c #A5C558",
"j. c #A5C758",
"k. c #A6C758",
"l. c #A6C858",
"z. c #A7C958",
"x. c #A7C959",
"c. c #A8CA58",
"v. c #A9CA58",
"b. c #A8CB58",
"n. c #A9CB58",
"m. c #A8CA59",
"M. c #A9CA59",
"N. c #A8CB59",
"B. c #819796",
"V. c #819797",
"C. c #172139",
/* pixels */
"C.C.C.C.C.C.C.C.C.C.C.C.C.C.C.C.C.C.C.C.C.C.C.C.C.C.C.C.C.C.C.C.C.C.C.C.C.C.C.C.C.C.C.C.C.C.C.C.C.C.C.C.C.C.C.C.C.C.C.C.C.C.C.C.",
"C.C.C.C.C.C.C.C.C.C.C.C.C.C.C.C.C.C.C.C.C.C.C.C.C.C.C.C.C.C.C.C.C.C.C.C.C.C.C.C.C.C.C.C.C.C.C.C.C.C.C.C.C.C.C.C.C.C.C.C.C.C.C.C.",
"C.C.C.C.C.C.C.C.C.C.C.C.C.C.C.C.C.C.C.C.C.C.C.C.C.C.C.C.C.C.C.C.C.C.C.C.C.C.C.C.C.C.C.C.C.C.C.C.C.C.C.C.C.C.C.C.C.C.C.C.C.C.C.C.",
"C.C.C.C.C.C.C.C.C.C.C.C.C.C.C.C.C.C.C.C.C.C.C.C.C.C.C.C.C.C.C.C.C.C.C.C.C.C.C.C.C.C.C.C.C.C.C.C.C.C.C.C.C.C.C.C.C.C.C.C.C.C.C.C.",
"C.C.C.C.C.C.C.C.C.C.C.C.C.C.C.C.C.C.C.C.C.C.C.C.C.C.C.C.C.C.C.C.C.C.C.C.C.C.C.C.C.C.C.C.C.C.C.C.C.C.C.C.C.C.C.C.C.C.C.C.C.C.C.C.",
"C.C.C.C.C.C.C.C.C.C.C.C.C.C.C.C.C.C.C.C.C.C.C.C.C.C.C.C.C.C.C.C.C.C.C.C.C.C.C.C.C.C.C.C.C.C.C.C.C.C.C.C.C.C.C.C.C.C.C.C.C.C.C.C.",
"C.C.C.C.C.C.C.C.C.C.C.C.C.C.C.C.C.C.C.C.C.C.C.C.C.C.C.C.C.C.C.C.C.C.C.C.C.C.C.C.C.C.C.C.C.C.C.C.C.C.C.C.C.C.C.C.C.C.C.C.C.C.C.C.",
"C.C.C.C.C.C.C.C.C.C.C.C.C.C.C.C.C.C.C.C.C.C.C.C.C.C.C.C.C.C.C.C.C.C.C.C.C.C.C.C.C.C.C.C.C.C.C.C.C.C.C.C.C.C.C.C.C.C.C.C.C.C.C.C.",
"C.C.C.C.C.C.C.C.C.C.C.C.C.C.C.C.C.C.C.C.C.C.C.C.C.C.C.C.C.C.C.C.C.C.C.C.C.C.C.C.C.C.C.C.C.C.C.C.C.C.C.C.C.C.C.C.C.C.C.C.C.C.C.C.",
"C.C.C.C.C.C.C.C.C.C.C.C.C.C.C.C.C.C.C.C.C.C.C.C.C.C.C.C.C.C.C.C.C.C.C.C.C.C.C.C.C.C.C.C.C.C.C.C.C.C.C.C.C.C.C.C.C.C.C.C.C.C.C.C.",
"C.C.C.C.C.C.C.C.C.C.C.C.C.C.C.C.C.C.C.C.C.C.C.C.C.C.C.C.C.C.C.C.C.C.C.C.C.C.C.C.C.C.C.C.C.C.C.C.C.C.C.C.C.C.C.C.C.C.C.C.C.C.C.C.",
"C.C.C.C.C.C.C.C.C.C.C.C.C.C.C.C.C.C.C.C.C.C.C.C.C.C.C.C.C.C.C.C.C.C.C.C.C.C.C.C.C.C.C.C.C.C.C.C.C.C.C.C.C.C.C.C.C.C.C.C.C.C.C.C.",
"C.C.C.C.C.C.C.C.C.C.C.C.C.C.C.C.C.C.C.C.C.C.C.C.C.C.c.c.C.C.C.C.c.c.c.c.C.C.C.C.C.C.C.C.C.C.C.C.C.C.C.C.C.C.C.C.C.C.C.C.C.C.C.C.",
"C.C.C.C.C.C.C.C.C.C.C.C.C.C.C.C.C.C.C.C.C.C.C.C.C.C.c.c.C.C.C.C.v.c.c.c.C.C.C.C.C.C.C.C.C.    C.C.C.C.C.C.C.C.C.C.C.C.C.C.C.C.C.",
"C.C.C.C.C.C.C.C.C.C.C.C.C.C.C.C.C.C.C.C.C.C.C.C.-.-.c.c.-.-.c.c.c.c.c.v.*.*.C.C.C.C.C.C.W a   W C.C.C.C.C.C.C.C.C.C.C.C.C.C.C.C.",
"C.C.C.C.C.C.C.C.C.C.C.C.C.C.C.C.C.C.C.C.C.C.C.C.-.-.c.c.-.-.c.c.c.v.c.c.*.*.C.W W W W W ) B.a W C.C.C.C.C.C.C.C.C.C.C.C.C.C.C.C.",
"C.C.C.C.C.C.C.C.C.C.C.C.C.C.C.C.C.C.C.C.C.C.c.c.v.v.b.b.c.v.c.v.m.m.m.c.c.Q W W W a   a B.) B.) C.C.C.C.C.C.C.C.C.C.C.C.C.C.C.C.",
"C.C.C.C.C.C.C.C.C.C.C.C.C.C.C.C.C.C.C.C.C.C.c.c.M.v.b.b.b.c.c.c.c.m.c.c.W p W W W a a ( B.) W C.C.C.C.C.C.C.C.C.C.C.C.C.C.C.C.C.",
"C.C.C.C.C.C.C.C.C.C.C.C.C.C.C.C.C.C.C.C.*.&.c.c.v.v.b.c.c.c.c.c.c.c.c.c.c.W W ) W W ) B.) ) C.C.C.C.C.C.C.C.C.C.C.C.C.C.C.C.C.C.",
"C.C.C.C.C.C.C.C.C.C.C.C.C.C.C.C.C.C.C.C.*.-.c.c.v.v.c.c.c.c.c.c.c.c.c.c.W W W B.B.B.B.B.) ) C.C.C.C.C.C.C.C.C.C.C.C.C.C.C.C.C.C.",
"C.C.C.C.C.C.C.C.C.C.C.C.c.c.c.c.-.-.*.*.v.c.c.c.c.c.c.c.c.c.c.v.m.m.c.W a W W W B.B.B.) ) c.=.-.b.c.m.c.C.C.C.C.C.C.C.C.C.C.C.C.",
"C.C.C.C.C.C.C.C.C.C.C.C.c.v.c.c.-.-.*.#.m.m.c.c.v.c.c.c.c.c.c.c.m.W W W W W W W W B.) ) c.c.-.-.c.c.m.c.C.C.C.C.C.C.C.C.C.C.C.C.",
"C.C.C.C.C.C.C.C.m.c.%.$.m.M.v.v.c.c.c.c.c.c.c.m.c.c.W W W W W ! a W W W W W W ) B.B.) B.c.c.c.c.c.c.c.c.-.-.C.C.C.C.C.C.C.C.C.C.",
"C.C.C.C.C.C.C.C.c.b.@.$.m.m.v.M.c.c.c.c.c.c.m.m.c.W W W W W W W W d W W W W ) B.B.B.B.c.c.c.c.c.c.c.c.c.-.-.C.C.C.C.C.C.C.C.C.C.",
"C.C.C.C.C.C.%.%.c.c.c.b.*.-.m.m.v.c.c.v.) c.c.W W W W W W W W W W W W W W W ) B.B.B.B.c.c.c.c.c.c.c.c.c.-.-.-.*.m.m.C.C.C.C.C.C.",
"C.C.C.C.C.C.%.%.c.c.c.c.-.-.m.m.c.c.c.) ) c.W W W W W ! W W W ! W W W W W W ) ) B.B.B.c.c.c.c.c.c.c.c.c.-.-.-.-.m.m.C.C.C.C.C.C.",
"C.C.C.C.C.C.c.c.c.c.c.m.b.c.c.c.c.c.W ) E W W a a W ) ) W W W W W W W W W W ) V.B.B.) c.c.c.b.b.m.m.v.v.b.b.c.c.c.c.v.n.C.C.C.C.",
"C.C.C.C.C.C.c.c.c.c.c.c.c.c.c.c.c.c.s W Q W a W W ) ) ) ) a ! W W W W W W W ) B.V.B.c.c.b.c.b.b.m.m.v.v.b.b.c.c.c.c.v.v.C.C.C.C.",
"C.C.*.-.c.c.v.v.c.c.c.c.c.c.c.c.c.c.s W W a a ~ W ) ) P P . a W W W W W W W ) B.) m.c.c.c.c.c.n.c.c.c.c.c.c.m.m.c.c.c.c.b.c.c.c.",
"C.C.-.-.c.c.n.v.c.c.c.c.c.c.c.c.c.c.c.a a a Y F W W i u u f X a E ) W W W ) B.W W x.c.c.c.c.c.c.c.m.v.c.c.m.m.m.v.c.c.c.c.c.c.c.",
"> < M.c.c.c.c.c.c.b.c.c.c.c.c.c.m.m.b.d.5.X.L a a 9 6 4 3 3 ! X W ) ) ) E X . X ) a.z.m.m.m.v.v.c.c.c.c.c.c.v.v.c.c.c.c.c.c.c.c.",
"> > c.c.c.m.c.c.b.b.c.c.c.c.c.c.m.m.b.l.9.O.) W ) r 6 2 O o o + 3 ) ) W j S X a _ 0.f.c.m.m.c.v.c.c.c.c.m.c.v.v.c.c.c.c.c.c.c.c.",
"c.c.c.c.m.m.b.b.c.c.c.c.c.c.b.b.m.m.c.z.i.4.Q a W Z y 0 4 2 O o W ) ) 5 8 t l a ) _ a.c.c.M.c.c.c.c.c.c.c.c.m.m.c.c.c.v.v.c.-.*.",
"v.c.c.c.m.m.b.b.c.c.c.c.c.c.b.b.m.m.c.c.k.i.8.:. .T J A g t 9 6 W ) ) 6 7 r f H ! ) p.c.c.c.c.c.c.c.c.c.m.c.m.M.c.c.c.c.m.c.=.-.",
"c.c.c.m.-.=.c.m.c.c.c.c.c.c.c.m.c.c.c.c.c.z.s.e.6.>...^ K G A k ) ) u u i h D L s a ) W m.m.b.b.c.c.b.b.c.c.c.c.v.c.-.-.b.b.` ` ",
"b.c.m.M.-.-.c.c.c.c.c.c.c.c.m.c.c.b.c.c.c.v.c.z.h.r.8.1.o.| / a W W I P P U R | ,.a a a m.m.b.b.c.c.b.b.c.c.c.c.c.m.*.-.b.c.` ` ",
"} } ` [ ` ` c.v.-.-.c.c.m.m.c.v.c.c.c.c.c.c.c.c.c.z.f.p.w.7.2.) ! ) +.+.+.;.<.3.q.g.z.c.c.c.c.c.v.v.m.m.*.-.v.v.c.c.` ` > > B B ",
"} } ` ` ` ' c.c.-.-.c.c.m.m.v.c.c.c.c.c.c.c.c.c.c.c.c.c.z.f.g.a a d t.t.t.y.u.a.j.x.c.c.c.c.c.c.v.v.c.m.-.-.v.v.c.N.` ` > > B B ",
"& & & & & & c.b.] ] -.-.c.c.c.c.c.b.c.c.m.c.c.v.c.c.v.v.c.v.c.c.c.v.c.c.c.b.v.v.m.c.m.N.c.c.c.c.-.-.=.=.` ` -.-.c.c.M M > > > > ",
"& & & & & & c.c.` ` %.-.c.c.c.c.c.b.c.c.c.c.c.c.c.c.v.v.c.c.c.c.c.c.c.c.b.c.v.c.m.m.c.m.c.c.c.c.*.-.=.=.` ` -.-.c.c.M M > > > > ",
"& & z z c c v x { { ` ` ` ` c.c.c.M.b.b.c.c.v.n.c.c.v.c.c.m.c.c.c.c.m.m.c.c.m.c.b.N.b.c.&.=.c.c.] ` ` ` m C M B > > < < - - & $ ",
"& & z z c c x x { { ' ` ` ] c.c.c.c.b.b.c.c.v.v.c.b.c.c.c.c.c.c.c.n.m.m.v.c.c.c.c.c.b.b.=.=.c.c.` ` ' ` M M M M > > < < : - & & ",
"> > > > > > z z c z x z z z c.c.*.*.c.c.c.c.c.v.c.c.m.c.c.c.c.c.c.c.c.c.v.c.v.v.c.v.b.b.` ` -.-.` ] M m M M M M < , > > > > & & ",
"> > > > < > x z z z z z b z c.c.*.*.c.c.c.c.c.c.c.c.c.c.c.c.c.c.c.c.m.c.v.c.v.v.v.c.b.b.` ` -.-.` ` M M M M M M > > > > < > $ & ",
"= = > > , > > > z x z z > > ` ` *.-.c.c.c.v.-.-.c.c.c.v.c.c.v.v.v.v.m.m.c.c.-.-.-.-.c.c.=.-.M M C C > < < > > > & & & & * * & & ",
"= = > > > > > > z z z z > > ` ` -.-.c.c.c.c.-.-.c.c.c.c.c.c.v.M.v.v.m.m.c.c.-.-.-.-.c.c.-.-.M M C C > > > > > > & & & & * * & & ",
"> > > > > > > > > > < > > > < > ; = z n c.c.` ] -.-.b.b.c.v.c.c.-.*.-.-.c.c.` ` N N *.*.M M M M M M & & > > > > & & > > & & > > ",
"> > > > > > > > > > > > > > < < = = z z c.c.` ` -.-.b.b.c.c.c.c.-.-.-.-.c.c.` ` N N *.*.M M M M M M @ & > > > , & & > > & & > > ",
"= = > > > > > > > > * & > > = = > > z z z z b z { { c.c.c.c.-.-.=.-.` ` ` ` =.*.B B M M > > > > & & & & * & % % * * > = & & & & ",
"= - , > > > > = > > & & > > = = > , z z z c z x { { c.c.c.c.-.-.-.-.` ` ` ` -.*.B B M M > > = > & & & & & & % % * * > > @ & & @ ",
"C.C.C.C.< < > < & & & & > > > > > > = = z z z z z z m M M M m V m M [ ] M M > , > > > > 1 1 > > > < > > @ & & & & $ * * C.C.C.C.",
"C.C.C.C.< < > > @ & * $ > > > > > > = = z z z z z z M M M M m m M M [ } M M > > > > > > : 1 > > > > > > & * & & & & # * C.C.C.C.",
"C.C.C.C.C.C.C.C.- , @ * w e > > > > > > > > > > > > b z z z x x z z b b > > & & > > > > & & $ * , > * * & & & & C.C.C.C.C.C.C.C.",
"C.C.C.C.C.C.C.C., , & & w w > > > > = > > > > > > , z z b z x x z z b b > > & & > > > > & & & & > > * * & & & * C.C.C.C.C.C.C.C.",
"C.C.C.C.C.C.C.C.C.C.C.C.> > w w , , > > > > > > < < < > z z x x > > > > & & & & & & @ @ @ @ & & & & & & C.C.C.C.C.C.C.C.C.C.C.C.",
"C.C.C.C.C.C.C.C.C.C.C.C.> > w w , , > > > > > > < < > > z z x x , > > > & & @ & & & @ @ @ @ & & & $ & & C.C.C.C.C.C.C.C.C.C.C.C.",
"C.C.C.C.C.C.C.C.C.C.C.C.C.C.C.C.w w & & $ $ & & > > > > > > > > > > > > > > > > = > @ @ & & * & C.C.C.C.C.C.C.C.C.C.C.C.C.C.C.C.",
"C.C.C.C.C.C.C.C.C.C.C.C.C.C.C.C.q e & & $ $ & & > > = > > > - = > > > > > > > > > > @ @ & & & & C.C.C.C.C.C.C.C.C.C.C.C.C.C.C.C.",
"C.C.C.C.C.C.C.C.C.C.C.C.C.C.C.C.C.C.C.C.> > # % & & > > > > > > & & & $ & & & & & & & & C.C.C.C.C.C.C.C.C.C.C.C.C.C.C.C.C.C.C.C.",
"C.C.C.C.C.C.C.C.C.C.C.C.C.C.C.C.C.C.C.C.> > * # & & > > > > > > & & & & & & & * & & & $ C.C.C.C.C.C.C.C.C.C.C.C.C.C.C.C.C.C.C.C.",
"C.C.C.C.C.C.C.C.C.C.C.C.C.C.C.C.C.C.C.C.C.C.C.C.& & w w > > > > @ & & & $ $ & & C.C.C.C.C.C.C.C.C.C.C.C.C.C.C.C.C.C.C.C.C.C.C.C.",
"C.C.C.C.C.C.C.C.C.C.C.C.C.C.C.C.C.C.C.C.C.C.C.C.& & w w > > > = $ & & & $ $ & & C.C.C.C.C.C.C.C.C.C.C.C.C.C.C.C.C.C.C.C.C.C.C.C.",
"C.C.C.C.C.C.C.C.C.C.C.C.C.C.C.C.C.C.C.C.C.C.C.C.C.C.C.C.w w > , & & * * C.C.C.C.C.C.C.C.C.C.C.C.C.C.C.C.C.C.C.C.C.C.C.C.C.C.C.C.",
"C.C.C.C.C.C.C.C.C.C.C.C.C.C.C.C.C.C.C.C.C.C.C.C.C.C.C.C.w w , , & & * * C.C.C.C.C.C.C.C.C.C.C.C.C.C.C.C.C.C.C.C.C.C.C.C.C.C.C.C."
};
