/* XPM */
static char *result[] = {
/* columns rows colors chars-per-pixel */
"64 64 148 2 ",
"   c #10141F",
".  c #151C28",
"X  c #151D28",
"o  c #161E29",
"O  c #171F29",
"+  c #171F2A",
"@  c #241526",
"#  c #251526",
"$  c #241427",
"%  c #251427",
"&  c #241527",
"*  c #251527",
"=  c #341C26",
"-  c #351C26",
";  c #341D26",
":  c #351D26",
">  c #341C27",
",  c #351C27",
"<  c #341D27",
"1  c #351D27",
"2  c #182029",
"3  c #1A222A",
"4  c #1A232A",
"5  c #1B242A",
"6  c #1C252B",
"7  c #1D282B",
"8  c #1E282B",
"9  c #1F282B",
"0  c #162038",
"q  c #172038",
"w  c #172039",
"e  c #212A2C",
"r  c #232D2D",
"t  c #232E2D",
"y  c #26312D",
"u  c #2A362F",
"i  c #2B372F",
"p  c #202E37",
"a  c #212E37",
"s  c #2B3730",
"d  c #2C3730",
"f  c #2C3930",
"g  c #2F3A30",
"h  c #2E3B31",
"j  c #2F3C31",
"k  c #313D31",
"l  c #602C2C",
"z  c #612C2C",
"x  c #602D2C",
"c  c #612D2C",
"v  c #602C2D",
"b  c #602D2D",
"n  c #24562E",
"m  c #25562E",
"M  c #24572E",
"N  c #25572E",
"B  c #24562F",
"V  c #25562F",
"C  c #334032",
"Z  c #364333",
"A  c #384635",
"S  c #394834",
"D  c #415037",
"F  c #425338",
"G  c #455538",
"H  c #4F603B",
"J  c #4F623B",
"K  c #51623C",
"L  c #51653D",
"P  c #576A3E",
"I  c #586C3E",
"U  c #5B6E3F",
"Y  c #384A50",
"T  c #394A50",
"R  c #394B50",
"E  c #394A51",
"W  c #5F7440",
"Q  c #5F7441",
"!  c #577276",
"~  c #577277",
"^  c #577377",
"/  c #468232",
"(  c #478232",
")  c #468332",
"_  c #478332",
"`  c #468233",
"'  c #468333",
"]  c #6D8445",
"[  c #6D8545",
"{  c #708846",
"}  c #728B47",
"|  c #758E48",
" . c #7B944A",
".. c #7D974A",
"X. c #7E984B",
"o. c #74A642",
"O. c #75A642",
"+. c #74A742",
"@. c #75A742",
"#. c #74A643",
"$. c #75A643",
"%. c #74A743",
"&. c #75A743",
"*. c #809B4B",
"=. c #829D4C",
"-. c #829D4D",
";. c #839F4C",
":. c #84A04D",
">. c #89A44E",
",. c #8AA74F",
"<. c #8DAA50",
"1. c #8FAD50",
"2. c #91B151",
"3. c #93B052",
"4. c #93B152",
"5. c #94B351",
"6. c #97B753",
"7. c #99B953",
"8. c #99B854",
"9. c #9BBB55",
"0. c #9DBD55",
"q. c #9EBD55",
"w. c #9FC056",
"e. c #9FC057",
"r. c #A0C156",
"t. c #A0C157",
"y. c #A2C256",
"u. c #A3C457",
"i. c #A4C557",
"p. c #A4C657",
"a. c #A5C757",
"s. c #A3C458",
"d. c #A5C558",
"f. c #A5C758",
"g. c #A6C758",
"h. c #A6C858",
"j. c #A7C958",
"k. c #A7C959",
"l. c #A8CA58",
"z. c #A9CA58",
"x. c #A8CB58",
"c. c #A9CB58",
"v. c #A8CA59",
"b. c #A9CA59",
"n. c #A8CB59",
"m. c #819796",
"M. c #819797",
"N. c #172139",
/* pixels */
"N.N.N.N.N.N.N.N.N.N.N.N.N.N.N.N.N.N.N.N.N.N.N.N.N.N.N.N.N.N.N.N.N.N.N.N.N.N.N.N.N.N.N.N.N.N.N.N.N.N.N.N.N.N.N.N.N.N.N.N.N.N.N.N.",
"N.N.N.N.N.N.N.N.N.N.N.N.N.N.N.N.N.N.N.N.N.N.N.N.N.N.N.N.N.N.N.N.N.N.N.N.N.N.N.N.N.N.N.N.N.N.N.N.N.N.N.N.N.N.N.N.N.N.N.N.N.N.N.N.",
"N.N.N.N.N.N.N.N.N.N.N.N.N.N.N.N.N.N.N.N.N.N.N.N.N.N.N.N.N.N.N.N.N.N.N.N.N.N.N.N.N.N.N.N.N.N.N.N.N.N.N.N.N.N.N.N.N.N.N.N.N.N.N.N.",
"N.N.N.N.N.N.N.N.N.N.N.N.N.N.N.N.N.N.N.N.N.N.N.N.N.N.N.N.N.N.N.N.N.N.N.N.N.N.N.N.N.N.N.N.N.N.N.N.N.N.N.N.N.N.N.N.N.N.N.N.N.N.N.N.",
"N.N.N.N.N.N.N.N.N.N.N.N.N.N.N.N.N.N.N.N.N.N.N.N.N.N.N.N.N.N.N.N.N.N.N.N.N.N.N.N.N.N.N.N.N.N.N.N.N.N.N.N.N.N.N.N.N.N.N.N.N.N.N.N.",
"N.N.N.N.N.N.N.N.N.N.N.N.N.N.N.N.N.N.N.N.N.N.N.N.N.N.N.N.N.N.N.N.N.N.N.N.N.N.N.N.N.N.N.N.N.N.N.N.N.N.N.N.N.N.N.N.N.N.N.N.N.N.N.N.",
"N.N.N.N.N.N.N.N.N.N.N.N.N.N.N.N.N.N.N.N.N.N.N.N.N.N.N.N.N.N.N.N.N.N.N.N.N.N.N.N.N.N.N.N.N.N.N.N.N.N.N.N.N.N.N.N.N.N.N.N.N.N.N.N.",
"N.N.N.N.N.N.N.N.N.N.N.N.N.N.N.N.N.N.N.N.N.N.N.N.N.N.N.N.N.N.N.N.N.N.N.N.N.N.N.N.N.N.N.N.N.N.N.N.N.N.N.N.N.N.N.N.N.N.N.N.N.N.N.N.",
"N.N.N.N.N.N.N.N.N.N.N.N.N.N.N.N.N.N.N.N.N.N.N.N.N.N.N.N.N.N.N.N.N.N.N.N.N.N.N.N.N.N.N.N.N.N.N.N.N.N.N.N.N.N.N.N.N.N.N.N.N.N.N.N.",
"N.N.N.N.N.N.N.N.N.N.N.N.N.N.N.N.N.N.N.N.N.N.N.N.N.N.N.N.N.N.N.N.N.N.N.N.N.N.N.N.N.N.N.N.N.N.N.N.N.N.N.N.N.N.N.N.N.N.N.N.N.N.N.N.",
"N.N.N.N.N.N.N.N.N.N.N.N.N.N.N.N.N.N.N.N.N.N.N.N.N.N.N.N.N.N.N.N.N.N.N.N.N.N.N.N.N.N.N.N.N.N.N.N.N.N.N.N.N.N.N.N.N.N.N.N.N.N.N.N.",
"N.N.N.N.N.N.N.N.N.N.N.N.N.N.N.N.N.N.N.N.N.N.N.N.N.N.N.N.N.N.N.N.N.N.N.N.N.N.N.N.N.N.N.N.N.N.N.N.N.N.N.N.N.N.N.N.N.N.N.N.N.N.N.N.",
"N.N.N.N.N.N.N.N.N.N.N.N.N.N.N.N.N.N.N.N.N.N.N.N.N.N.l.l.N.N.N.N.l.l.l.l.N.N.N.N.N.N.N.N.N.N.N.N.N.N.N.N.N.N.N.N.N.N.N.N.N.N.N.N.",
"N.N.N.N.N.N.N.N.N.N.N.N.N.N.N.N.N.N.N.N.N.N.N.N.N.N.l.l.N.N.N.N.z.l.l.l.N.N.N.N.N.N.N.N.N.N.N.N.N.N.N.N.N.N.N.N.N.N.N.N.N.N.N.N.",
"N.N.N.N.N.N.N.N.N.N.N.N.N.N.N.N.N.N.N.N.N.N.N.N.&.&.l.l.&.&.l.l.l.l.l.z.$.$.N.N.N.N.N.T     N.N.N.N.N.N.N.N.N.N.N.N.N.N.N.N.N.N.",
"N.N.N.N.N.N.N.N.N.N.N.N.N.N.N.N.N.N.N.N.N.N.N.N.&.&.l.l.&.&.l.l.l.z.l.l.$.T T T T T T T p   N.N.N.N.N.N.N.N.N.N.N.N.N.N.N.N.N.N.",
"N.N.N.N.N.N.N.N.N.N.N.N.N.N.N.N.N.N.N.N.N.N.l.l.z.z.x.x.l.z.l.z.v.v.T T R T T p   p m.~ X T N.N.N.N.N.N.N.N.N.N.N.N.N.N.N.N.N.N.",
"N.N.N.N.N.N.N.N.N.N.N.N.N.N.N.N.N.N.N.N.N.N.l.l.b.z.x.x.x.l.l.l.l.v.T p T m.T p a m.~ ~ ~ ~ N.N.N.N.N.N.N.N.N.N.N.N.N.N.N.N.N.N.",
"N.N.N.N.N.N.N.N.N.N.N.N.N.N.N.N.N.N.N.N.$.#.l.l.z.z.x.l.l.l.l.l.l.l.l.T T m.m.~ m.m.~ ~ T &.N.N.N.N.N.N.N.N.N.N.N.N.N.N.N.N.N.N.",
"N.N.N.N.N.N.N.N.N.N.N.N.N.N.N.N.N.N.N.N.$.&.l.l.z.z.l.l.l.l.l.l.l.l.p T T m.m.m.~ ~ ~ ~ &.&.N.N.N.N.N.N.N.N.N.N.N.N.N.N.N.N.N.N.",
"N.N.N.N.N.N.N.N.N.N.N.N.l.l.l.l.&.&.$.$.z.l.l.l.l.l.l.l.l.l.l.z.v.T T T T T T m.~ ~ Y l.l.l.%.&.x.l.v.l.N.N.N.N.N.N.N.N.N.N.N.N.",
"N.N.N.N.N.N.N.N.N.N.N.N.l.z.l.l.&.&.$.O.v.v.l.l.z.l.l.l.l.l.l.l.v.p T T T T Y ~ ~ ~ l.l.l.l.&.&.l.l.v.l.N.N.N.N.N.N.N.N.N.N.N.N.",
"N.N.N.N.N.N.N.N.v.l.@.+.v.b.z.z.l.l.l.l.l.l.l.v.l.l.T T T R T T p T T T T ~ ~ m.m.~ m.l.l.l.l.l.l.l.l.l.&.&.N.N.N.N.N.N.N.N.N.N.",
"N.N.N.N.N.N.N.N.l.x.o.+.v.v.z.b.l.l.l.l.l.l.v.v.l.T T T T T T T R p T T T T ~ ~ m.m.m.l.l.l.l.l.l.l.l.l.&.&.N.N.N.N.N.N.N.N.N.N.",
"N.N.N.N.N.N.@.@.l.l.l.x.$.&.v.v.z.l.l.z.l.l.T T T T T T T T T T T T T T T T ~ ~ M.m.m.l.l.l.l.l.l.l.l.l.&.&.&.$.v.v.N.N.N.N.N.N.",
"N.N.N.N.N.N.@.@.l.l.l.l.&.&.v.v.l.l.~ ~ l.T T T Y T T E T T T T T T T T T T ~ ~ m.m.m.l.l.l.l.l.l.l.l.l.&.&.&.&.v.v.N.N.N.N.N.N.",
"N.N.N.N.N.N.l.l.l.l.l.v.x.l.l.l.l.T ~ R T T T p p T ~ ~ T T T T T T T T T T ! m.m.m.~ l.l.l.x.x.v.v.z.z.x.x.l.l.l.l.z.c.N.N.N.N.",
"N.N.N.N.N.N.l.l.l.l.l.l.l.l.l.l.l.p T T T T p R ~ ~ ~ ~ ~ p T T T T E T T T m.m.m.m.l.l.x.l.x.x.v.v.z.z.x.x.l.l.l.l.z.z.N.N.N.N.",
"N.N.$.&.l.l.z.z.l.l.l.l.l.l.l.l.l.p T T T p p T ~ ~ K K X X R T T T T T T ~ m.~ T v.l.l.l.l.l.c.l.l.l.l.l.l.v.v.l.l.l.l.x.l.l.l.",
"N.N.&.&.l.l.c.z.l.l.l.l.l.l.l.l.l.l.p p p | P T T f i u X p p Y G ~ T T ~ m.X T T k.l.l.l.l.l.l.l.v.z.l.l.v.v.v.z.l.l.l.l.l.l.l.",
"> < b.l.l.l.l.l.l.x.l.l.l.l.l.l.v.v.x.p.2.} J p p 8 5 4 T X T 9 y ~ ~ ~ T X X X ^ u.j.v.v.v.z.z.l.l.l.l.l.l.z.z.l.l.l.l.l.l.l.l.",
"> > l.l.l.v.l.l.x.x.l.l.l.l.l.l.v.v.x.h.6...~ T ~ e 5 2 O o o O 3 ~ ~ T h A . p ~ 7.a.l.v.v.l.z.l.l.l.l.v.l.z.z.l.l.l.l.l.l.l.l.",
"l.l.l.l.v.v.x.x.l.l.l.l.l.l.x.x.v.v.l.j.t.1.T p T C y 9 4 2 + o T ~ ~ 5 7 r k p ~ ~ u.l.l.b.l.l.l.l.l.l.l.l.v.v.l.l.l.z.z.l.&.$.",
"z.l.l.l.v.v.x.x.l.l.l.l.l.l.x.x.v.v.l.l.g.t.5.=.[ I G Z d t 8 5 T ~ ~ 5 6 e s F T ~ y.l.l.l.l.l.l.l.l.l.v.l.v.b.l.l.l.l.v.l.%.&.",
"l.l.l.v.&.%.l.v.l.l.l.l.l.l.l.v.l.l.l.l.l.j.i.0.3.-.{ W H D Z j ~ ~ u u i g S J p p ~ T v.v.x.x.l.l.x.x.l.l.l.l.z.l.&.&.x.x./ / ",
"x.l.v.b.&.&.l.l.l.l.l.l.l.l.v.l.l.x.l.l.l.z.l.j.d.q.5.>. .] Q p T T K K K L U ] ;.p p p v.v.x.x.l.l.x.x.l.l.l.l.l.v.$.&.x.l./ / ",
"' ' / _ / / l.z.&.&.l.l.v.v.l.z.l.l.l.l.l.l.l.l.l.j.a.y.9.4.,.~ T ~ X.X.X.*.:.<.8.s.j.l.l.l.l.l.z.z.v.v.$.&.z.z.l.l./ / > > N N ",
"' ' / / / ( l.l.&.&.l.l.v.v.z.l.l.l.l.l.l.l.l.l.l.l.l.l.j.a.s.p p p w.w.w.e.r.u.f.k.l.l.l.l.l.l.z.z.l.v.&.&.z.z.l.n./ / > > N N ",
"& & & & & & l.x.) ) &.&.l.l.l.l.l.x.l.l.v.l.l.z.l.l.z.z.l.z.l.l.l.z.l.l.l.x.z.z.v.l.v.n.l.l.l.l.&.&.%.%./ / &.&.l.l.m m > > > > ",
"& & & & & & l.l./ / @.&.l.l.l.l.l.x.l.l.l.l.l.l.l.l.z.z.l.l.l.l.l.l.l.l.x.l.z.l.v.v.l.v.l.l.l.l.$.&.%.%./ / &.&.l.l.m m > > > > ",
"& & l l x x c z ` ` / / / / l.l.l.b.x.x.l.l.z.c.l.l.z.l.l.v.l.l.l.l.v.v.l.l.v.l.x.n.x.l.#.%.l.l.) / / / n V m N > > < < - - & $ ",
"& & l l x x z z ` ` ( / / ) l.l.l.l.x.x.l.l.z.z.l.x.l.l.l.l.l.l.l.c.v.v.z.l.l.l.l.l.x.x.%.%.l.l./ / ( / m m m m > > < < : - & & ",
"> > > > > > l l x l z l l l l.l.$.$.l.l.l.l.l.z.l.l.v.l.l.l.l.l.l.l.l.l.z.l.z.z.l.z.x.x./ / &.&./ ) m n m m m m < , > > > > & & ",
"> > > > < > z l l l l l v l l.l.$.$.l.l.l.l.l.l.l.l.l.l.l.l.l.l.l.l.v.l.z.l.z.z.z.l.x.x./ / &.&./ / m m m m m m > > > > < > $ & ",
"= = > > , > > > l z l l > > / / $.&.l.l.l.z.&.&.l.l.l.z.l.l.z.z.z.z.v.v.l.l.&.&.&.&.l.l.%.&.m m V V > < < > > > & & & & * * & & ",
"= = > > > > > > l l l l > > / / &.&.l.l.l.l.&.&.l.l.l.l.l.l.z.b.z.z.v.v.l.l.&.&.&.&.l.l.&.&.m m V V > > > > > > & & & & * * & & ",
"> > > > > > > > > > < > > > < > ; = l b l.l./ ) &.&.x.x.l.z.l.l.&.$.&.&.l.l./ / M M $.$.m m m m m m & & > > > > & & > > & & > > ",
"> > > > > > > > > > > > > > < < = = l l l.l./ / &.&.x.x.l.l.l.l.&.&.&.&.l.l./ / M M $.$.m m m m m m @ & > > > , & & > > & & > > ",
"= = > > > > > > > > * & > > = = > > l l l l v l ` ` l.l.l.l.&.&.%.&./ / / / %.$.N N m m > > > > & & & & * & % % * * > = & & & & ",
"= - , > > > > = > > & & > > = = > , l l l x l z ` ` l.l.l.l.&.&.&.&./ / / / &.$.N N m m > > = > & & & & & & % % * * > > @ & & @ ",
"N.N.N.N.< < > < & & & & > > > > > > = = l l l l l l n m m m n B n m _ ) m m > , > > > > 1 1 > > > < > > @ & & & & $ * * N.N.N.N.",
"N.N.N.N.< < > > @ & * $ > > > > > > = = l l l l l l m m m m n n m m _ ' m m > > > > > > : 1 > > > > > > & * & & & & # * N.N.N.N.",
"N.N.N.N.N.N.N.N.- , @ * q w > > > > > > > > > > > > v l l l z z l l v v > > & & > > > > & & $ * , > * * & & & & N.N.N.N.N.N.N.N.",
"N.N.N.N.N.N.N.N., , & & q q > > > > = > > > > > > , l l v l z z l l v v > > & & > > > > & & & & > > * * & & & * N.N.N.N.N.N.N.N.",
"N.N.N.N.N.N.N.N.N.N.N.N.> > q q , , > > > > > > < < < > l l z z > > > > & & & & & & @ @ @ @ & & & & & & N.N.N.N.N.N.N.N.N.N.N.N.",
"N.N.N.N.N.N.N.N.N.N.N.N.> > q q , , > > > > > > < < > > l l z z , > > > & & @ & & & @ @ @ @ & & & $ & & N.N.N.N.N.N.N.N.N.N.N.N.",
"N.N.N.N.N.N.N.N.N.N.N.N.N.N.N.N.q q & & $ $ & & > > > > > > > > > > > > > > > > = > @ @ & & * & N.N.N.N.N.N.N.N.N.N.N.N.N.N.N.N.",
"N.N.N.N.N.N.N.N.N.N.N.N.N.N.N.N.0 w & & $ $ & & > > = > > > - = > > > > > > > > > > @ @ & & & & N.N.N.N.N.N.N.N.N.N.N.N.N.N.N.N.",
"N.N.N.N.N.N.N.N.N.N.N.N.N.N.N.N.N.N.N.N.> > # % & & > > > > > > & & & $ & & & & & & & & N.N.N.N.N.N.N.N.N.N.N.N.N.N.N.N.N.N.N.N.",
"N.N.N.N.N.N.N.N.N.N.N.N.N.N.N.N.N.N.N.N.> > * # & & > > > > > > & & & & & & & * & & & $ N.N.N.N.N.N.N.N.N.N.N.N.N.N.N.N.N.N.N.N.",
"N.N.N.N.N.N.N.N.N.N.N.N.N.N.N.N.N.N.N.N.N.N.N.N.& & q q > > > > @ & & & $ $ & & N.N.N.N.N.N.N.N.N.N.N.N.N.N.N.N.N.N.N.N.N.N.N.N.",
"N.N.N.N.N.N.N.N.N.N.N.N.N.N.N.N.N.N.N.N.N.N.N.N.& & q q > > > = $ & & & $ $ & & N.N.N.N.N.N.N.N.N.N.N.N.N.N.N.N.N.N.N.N.N.N.N.N.",
"N.N.N.N.N.N.N.N.N.N.N.N.N.N.N.N.N.N.N.N.N.N.N.N.N.N.N.N.q q > , & & * * N.N.N.N.N.N.N.N.N.N.N.N.N.N.N.N.N.N.N.N.N.N.N.N.N.N.N.N.",
"N.N.N.N.N.N.N.N.N.N.N.N.N.N.N.N.N.N.N.N.N.N.N.N.N.N.N.N.q q , , & & * * N.N.N.N.N.N.N.N.N.N.N.N.N.N.N.N.N.N.N.N.N.N.N.N.N.N.N.N."
};
