/* XPM */
static char *result[] = {
/* columns rows colors chars-per-pixel */
"64 64 185 2 ",
"   c #10141F",
".  c #141C28",
"X  c #141D28",
"o  c #151D28",
"O  c #151D29",
"+  c #241526",
"@  c #251526",
"#  c #241427",
"$  c #251427",
"%  c #241527",
"&  c #251527",
"*  c #341C26",
"=  c #351C26",
"-  c #341D26",
";  c #351D26",
":  c #341C27",
">  c #351C27",
",  c #341D27",
"<  c #351D27",
"1  c #1A232A",
"2  c #1C252B",
"3  c #1E282B",
"4  c #1F292C",
"5  c #162038",
"6  c #172038",
"7  c #172039",
"8  c #202A2C",
"9  c #212A2C",
"0  c #212A2D",
"q  c #222C2C",
"w  c #222D2D",
"e  c #26312D",
"r  c #26302F",
"t  c #28322E",
"y  c #202E36",
"u  c #212E36",
"i  c #202E37",
"p  c #212E37",
"a  c #202F37",
"s  c #212F37",
"d  c #293430",
"f  c #293530",
"g  c #2A3530",
"h  c #2C3730",
"j  c #2F3A30",
"k  c #303F31",
"l  c #313F31",
"z  c #313D32",
"x  c #602C2C",
"c  c #612C2C",
"v  c #602D2C",
"b  c #612D2C",
"n  c #602C2D",
"m  c #602D2D",
"M  c #24562E",
"N  c #25562E",
"B  c #24572E",
"V  c #25572E",
"C  c #24562F",
"Z  c #25562F",
"A  c #334132",
"S  c #354233",
"D  c #364333",
"F  c #374434",
"G  c #384733",
"H  c #384634",
"J  c #3C4A36",
"K  c #415037",
"L  c #425237",
"P  c #445438",
"I  c #485938",
"U  c #4B5C39",
"Y  c #4C5D3A",
"T  c #53663D",
"R  c #53673D",
"E  c #54673D",
"W  c #55683D",
"Q  c #55683E",
"!  c #576A3E",
"~  c #586D3F",
"^  c #5B6E3F",
"/  c #384A50",
"(  c #394A50",
")  c #384B50",
"_  c #394B50",
"`  c #384A51",
"'  c #394A51",
"]  c #384B51",
"[  c #394B51",
"{  c #657A43",
"}  c #647B43",
"|  c #667B43",
" . c #677E44",
".. c #677F44",
"X. c #567277",
"o. c #577277",
"O. c #577377",
"+. c #468232",
"@. c #478232",
"#. c #468332",
"$. c #478332",
"%. c #468233",
"&. c #468333",
"*. c #6C8345",
"=. c #6D8545",
"-. c #6E8647",
";. c #718946",
":. c #748D48",
">. c #758F48",
",. c #768F48",
"<. c #768F49",
"1. c #779148",
"2. c #779149",
"3. c #789248",
"4. c #7C974A",
"5. c #74A642",
"6. c #75A642",
"7. c #74A742",
"8. c #75A742",
"9. c #74A643",
"0. c #75A643",
"q. c #74A743",
"w. c #75A743",
"e. c #829C4C",
"r. c #829D4C",
"t. c #85A04D",
"y. c #86A24D",
"u. c #86A04E",
"i. c #87A44E",
"p. c #88A44E",
"a. c #89A44E",
"s. c #89A44F",
"d. c #8CAA50",
"f. c #8DAA50",
"g. c #8EAB50",
"h. c #92B051",
"j. c #93B152",
"k. c #94B351",
"l. c #96B452",
"z. c #97B653",
"x. c #99B953",
"c. c #9ABA54",
"v. c #9BBB55",
"b. c #9BBB56",
"n. c #9CBB55",
"m. c #9BBC55",
"M. c #9DBD54",
"N. c #9DBD55",
"B. c #9EBE55",
"V. c #9FC056",
"C. c #9FC057",
"Z. c #A0C156",
"A. c #A0C157",
"S. c #A0C256",
"D. c #A2C256",
"F. c #A3C256",
"G. c #A3C457",
"H. c #A3C557",
"J. c #A4C557",
"K. c #A4C657",
"L. c #A5C757",
"P. c #A6C757",
"I. c #A5C857",
"U. c #A4C558",
"Y. c #A5C758",
"T. c #A6C758",
"R. c #A7C758",
"E. c #A6C759",
"W. c #A6C858",
"Q. c #A7C958",
"!. c #A7C959",
"~. c #A8C958",
"^. c #A8CA58",
"/. c #A9CA58",
"(. c #A8CB58",
"). c #A9CB58",
"_. c #A8CA59",
"`. c #A9CA59",
"'. c #A8CB59",
"]. c #809796",
"[. c #819796",
"{. c #809697",
"}. c #819697",
"|. c #819797",
" X c #172139",
/* pixels */
" X X X X X X X X X X X X X X X X X X X X X X X X X X X X X X X X X X X X X X X X X X X X X X X X X X X X X X X X X X X X X X X X",
" X X X X X X X X X X X X X X X X X X X X X X X X X X X X X X X X X X X X X X X X X X X X X X X X X X X X X X X X X X X X X X X X",
" X X X X X X X X X X X X X X X X X X X X X X X X X X X X X X X X X X X X X X X X X X X X X X X X X X X X X X X X X X X X X X X X",
" X X X X X X X X X X X X X X X X X X X X X X X X X X X X X X X X X X X X X X X X X X X X X X X X X X X X X X X X X X X X X X X X",
" X X X X X X X X X X X X X X X X X X X X X X X X X X X X X X X X X X X X X X X X X X X X X X X X X X X X X X X X X X X X X X X X",
" X X X X X X X X X X X X X X X X X X X X X X X X X X X X X X X X X X X X X X X X X X X X X X X X X X X X X X X X X X X X X X X X",
" X X X X X X X X X X X X X X X X X X X X X X X X X X X X X X X X X X X X X X X X X X X X X X X X X X X X X X X X X X X X X X X X",
" X X X X X X X X X X X X X X X X X X X X X X X X X X X X X X X X X X X X X X X X X X X X X X X X X X X X X X X X X X X X X X X X",
" X X X X X X X X X X X X X X X X X X X X X X X X X X X X X X X X X X X X X X X X X X X X X X X X X X X X X X X X X X X X X X X X",
" X X X X X X X X X X X X X X X X X X X X X X X X X X X X X X X X X X X X X X X X X X X X X X X X X X X X X X X X X X X X X X X X",
" X X X X X X X X X X X X X X X X X X X X X X X X X X X X X X X X X X X X X X X X X X X X X X X X X X X X X X X X X X X X X X X X",
" X X X X X X X X X X X X X X X X X X X X X X X X X X X X X X X X X X X X X X X X X X X X X X X X X X X X X X X X X X X X X X X X",
" X X X X X X X X X X X X X X X X X X X X X X X X X X^.^. X X X X^.^.^.^. X X X X X X X X X X X X X X X X X X X X X X X X X X X X",
" X X X X X X X X X X X X X X X X X X X X X X X X X X^.^. X X X X/.^.^.^. X X X X_  X X X X X X X X X X X X X X X X X X X X X X X",
" X X X X X X X X X X X X X X X X X X X X X X X Xw.w.^.^.w.w.^.^.^.^.^./._ 0. X( o. X X X X X X X X X X X X X X X X X X X X X X X",
" X X X X X X X X X X X X X X X X X X X X X X X Xw.w.^.^.w.w.^.^.^./.^./ o.( [ ' ' ( (  X X X X X X X X X X X X X X X X X X X X X",
" X X X X X X X X X X X X X X X X X X X X X X^.^././.(.(.^./.^./._._._.( ( ( ( ( _ (   ^. X X X X X X X X X X X X X X X X X X X X",
" X X X X X X X X X X X X X X X X X X X X X X^.^.`./.(.(.(.^.^.^.^._.( ( ( ( i   i ' ( i  X X X X X X X X X X X X X X X X X X X X",
" X X X X X X X X X X X X X X X X X X X X0.9.^.^././.(.^.^.^.^.^.^.^.) ( [.o.i a ( / ( ( i w. X X X X X X X X X X X X X X X X X X",
" X X X X X X X X X X X X X X X X X X X X0.w.^.^././.^.^.^.^.^.^.^.( _ _ [.[.[.o.i ( (     w. X X X X X X X X X X X X X X X X X X",
" X X X X X X X X X X X X^.^.^.^.w.w.0.0./.^.^.^.^.( ( ( _ i ^./._.s ( ( p |.[.[.[.o.o.( ( ^.q.w.(.^._.^. X X X X X X X X X X X X",
" X X X X X X X X X X X X^./.^.^.w.w.0.6._._.^.^.( / ( ( ( ( ' _ i ( ( ' ( |.o.o.O.[.( ^.^.^.w.w.^.^._.^. X X X X X X X X X X X X",
" X X X X X X X X_.^.8.7._.`././.^.^.^.^.o.^.^._.( ( ( ( / ( ( ( ( ( ( ' ( ( |.X.o.o.^.^.^.^.^.^.^.^.^.^.w.w. X X X X X X X X X X",
" X X X X X X X X^.(.5.7._._./.`.^.^.^.^.o.X._.( ( ( ( ( _ ( ( ( ( ( ` ( ( ( [.|.[.o.^.^.^.^.^.^.^.^.^.^.w.w. X X X X X X X X X X",
" X X X X X X8.8.^.^.^.(.0.w._._./.^.^./.o.o.( ( ' ' ( ( ( ( ( ( ] ( ' ( ( ( }.[.].[.o.^.^.^.^.^.^.^.^.^.w.w.w.0._._. X X X X X X",
" X X X X X X8.8.^.^.^.^.w.w._._.^.^.^.^.( ( ( u / ' / ( ( _ / ' / _ ' ( ( o.o.[.[.{.X.^.^.^.^.^.^.^.^.^.w.w.w.w._._. X X X X X X",
" X X X X X X^.^.^.^.^._.(.^.^.^.^.^.^.^.i ' ( i i o./ ( ' ( ' ( / ( ' ' ( ( O.[.[.[.^.^.^.^.(.(._._././.(.(.^.^.^.^./.). X X X X",
" X X X X X X^.^.^.^.^.^.^.^.^.^.^.^.^.^.^.a i i ( o.o.o.o.i ( ( ( / ( ( ( o.o.[.[./.^.^.(.^.(.(._._././.(.(.^.^.^.^././. X X X X",
" X X0.w.^.^././.^.^.^.^.^.^.^.^.^.^.^.^.^.Q.a ( o.o.j.O y y.i ( ( ( ( ( ( o.[.[.( _.^.^.^.^.^.).^.^.^.^.^.^._._.^.^.^.^.(.^.^.^.",
" X Xw.w.^.^.)./.^.^.^.^.^.^.^.^.^.^.^.^.^.L.( o.f.e.,.X . i { 1.o._ o.o.o.[.i . ( _.^.^.^.^.^.^.^._./.^.^._._._./.^.^.^.^.^.^.^.",
": , `.^.^.^.^.^.^.(.^.^.^.^.^.^._._.(.(.W.S.i i :.} Q (   ( K W o.o.o.o.b.i i ( ^.^.^._._._././.^.^.^.^.^.^././.^.^.^.^.^.^.^.^.",
": : ^.^.^._.^.^.(.(.^.^.^.^.^.^._._.(.(.I.M.( ( ' Y J z g e t S O.o.o.>.u.o i ( Q.(.^.^._._.^./.^.^.^.^._.^././.^.^.^.^.^.^.^.^.",
"^.^.^.^._._.(.(.^.^.^.^.^.^.(.(._._.^.Q.U.c.X.a o.L k r 4 2 2 q ( o.o.E  .X i c.G.Q.^.^.^.`.^.^.^.^.^.^.^.^._._.^.^.^././.^.w.0.",
"/.^.^.^._._.(.(.^.^.^.^.^.^.(.(._._.^.^.T.A.l.t.;.^ I F h w 3 1 _ X.0 f G i ( t.x.J.^.^.^.^.^.^.^.^.^.^._.^._.`.^.^.^.^._.^.q.w.",
"^.^.^._.w.q.^._.^.^.^.^.^.^.^._.^.^.^.^.^.L.V.l.s.2.| R P H j 8 i o.9 t D i O.( o.H.Q._._._.(.(.^.^.(.(.^.^.^.^./.^.w.w.(.(.+.+.",
"(.^._.`.w.w.^.^.^.^.^.^.^.^._.^.^.(.^.^.^.~.T.D.n.h.t.,...~ U A y ( d l K ! i i i K.^.^._._.(.(.^.^.(.(.^.^.^.^.^._.0.w.(.^.+.+.",
"&.&.+.$.+.+.^./.w.w.^.^._._.^./.^.^.^.^.^.^.^.Q.T.D.v.h.a.4.-.T a o._ o.~ =.r.j.C.E.^.^.^.^.^.^././._._.0.w././.^.^.+.+.: : V V ",
"&.&.+.+.+.@.^.^.w.w.^.^._._./.^.^.^.^.^.^.^.^.^.^.Q.T.G.N.z.g.<.*.y i p 3.p.k.B.Y.!.^.^.^.^.^.^././.^._.w.w././.^.'.+.+.: : V V ",
"% % % % % % ^.(.#.#.w.w.^.^.^.^.^.(.^.^._.^.^./.^.^././.T.P.Z.j.d.p.i.d.j.m.F.R.!.^._.'.^.^.^.^.w.w.q.q.+.+.w.w.^.^.N N : : : : ",
"% % % % % % ^.^.+.+.8.w.^.^.^.^.^.(.^.^.^.^.^.^.^.^././.^.^.Q.G.V.N.N.V.H.T.~.^._._.^._.^.^.^.^.0.w.q.q.+.+.w.w.^.^.N N : : : : ",
"% % x x v v b c %.%.+.+.+.+.^.^.^.`.(.(.^.^./.).^.^./.^.^._.^.^.Q.T.E.!.^.^._.^.(.'.(.^.9.q.^.^.#.+.+.+.M Z N V : : , , = = % # ",
"% % x x v v c c %.%.@.+.+.#.^.^.^.^.(.(.^.^././.^.(.^.^.^.^.^.^.^.)._._./.^.^.^.^.^.(.(.q.q.^.^.+.+.@.+.N N N N : : , , ; = % % ",
": : : : : : x x v x c x x x ^.^.0.0.^.^.^.^.^./.^.^._.^.^.^.^.^.^.^.^.^./.^././.^./.(.(.+.+.w.w.+.#.N M N N N N , > : : : : % % ",
": : : : , : c x x x x x n x ^.^.0.0.^.^.^.^.^.^.^.^.^.^.^.^.^.^.^.^._.^./.^./././.^.(.(.+.+.w.w.+.+.N N N N N N : : : : , : # % ",
"* * : : > : : : x c x x : : +.+.0.w.^.^.^./.w.w.^.^.^./.^.^././././._._.^.^.w.w.w.w.^.^.q.w.N N Z Z : , , : : : % % % % & & % % ",
"* * : : : : : : x x x x : : +.+.w.w.^.^.^.^.w.w.^.^.^.^.^.^./.`././._._.^.^.w.w.w.w.^.^.w.w.N N Z Z : : : : : : % % % % & & % % ",
": : : : : : : : : : , : : : , : - * x m ^.^.+.#.w.w.(.(.^./.^.^.w.0.w.w.^.^.+.+.B B 0.0.N N N N N N % % : : : : % % : : % % : : ",
": : : : : : : : : : : : : : , , * * x x ^.^.+.+.w.w.(.(.^.^.^.^.w.w.w.w.^.^.+.+.B B 0.0.N N N N N N + % : : : > % % : : % % : : ",
"* * : : : : : : : : & % : : * * : : x x x x n x %.%.^.^.^.^.w.w.q.w.+.+.+.+.q.0.V V N N : : : : % % % % & % $ $ & & : * % % % % ",
"* = > : : : : * : : % % : : * * : > x x x v x c %.%.^.^.^.^.w.w.w.w.+.+.+.+.w.0.V V N N : : * : % % % % % % $ $ & & : : + % % + ",
" X X X X, , : , % % % % : : : : : : * * x x x x x x M N N N M C M N $.#.N N : > : : : : < < : : : , : : + % % % % # & &  X X X X",
" X X X X, , : : + % & # : : : : : : * * x x x x x x N N N N M M N N $.&.N N : : : : : : ; < : : : : : : % & % % % % @ &  X X X X",
" X X X X X X X X= > + & 6 7 : : : : : : : : : : : : n x x x c c x x n n : : % % : : : : % % # & > : & & % % % %  X X X X X X X X",
" X X X X X X X X> > % % 6 6 : : : : * : : : : : : > x x n x c c x x n n : : % % : : : : % % % % : : & & % % % &  X X X X X X X X",
" X X X X X X X X X X X X: : 6 6 > > : : : : : : , , , : x x c c : : : : % % % % % % + + + + % % % % % %  X X X X X X X X X X X X",
" X X X X X X X X X X X X: : 6 6 > > : : : : : : , , : : x x c c > : : : % % + % % % + + + + % % % # % %  X X X X X X X X X X X X",
" X X X X X X X X X X X X X X X X6 6 % % # # % % : : : : : : : : : : : : : : : : * : + + % % & %  X X X X X X X X X X X X X X X X",
" X X X X X X X X X X X X X X X X5 7 % % # # % % : : * : : : = * : : : : : : : : : : + + % % % %  X X X X X X X X X X X X X X X X",
" X X X X X X X X X X X X X X X X X X X X: : @ $ % % : : : : : : % % % # % % % % % % % %  X X X X X X X X X X X X X X X X X X X X",
" X X X X X X X X X X X X X X X X X X X X: : & @ % % : : : : : : % % % % % % % & % % % #  X X X X X X X X X X X X X X X X X X X X",
" X X X X X X X X X X X X X X X X X X X X X X X X% % 6 6 : : : : + % % % # # % %  X X X X X X X X X X X X X X X X X X X X X X X X",
" X X X X X X X X X X X X X X X X X X X X X X X X% % 6 6 : : : * # % % % # # % %  X X X X X X X X X X X X X X X X X X X X X X X X",
" X X X X X X X X X X X X X X X X X X X X X X X X X X X X6 6 : > % % & &  X X X X X X X X X X X X X X X X X X X X X X X X X X X X",
" X X X X X X X X X X X X X X X X X X X X X X X X X X X X6 6 > > % % & &  X X X X X X X X X X X X X X X X X X X X X X X X X X X X"
};
