/* XPM */
static char *result[] = {
/* columns rows colors chars-per-pixel */
"64 64 54 1 ",
"  c #241426",
". c #241526",
"X c #251526",
"o c #241427",
"O c #251427",
"+ c #241527",
"@ c #251527",
"# c #341C26",
"$ c #351C26",
"% c #341D26",
"& c #351D26",
"* c #341C27",
"= c #351C27",
"- c #341D27",
"; c #351D27",
": c #4C2A32",
"> c #4D2A32",
", c #4C2B32",
"< c #4D2B32",
"1 c #4D2A33",
"2 c #4C2B33",
"3 c #4D2B33",
"4 c #24562E",
"5 c #25562E",
"6 c #24572E",
"7 c #25572E",
"8 c #24562F",
"9 c #25562F",
"0 c #7A4840",
"q c #7B4840",
"w c #7A4940",
"e c #7B4940",
"r c #7A4841",
"t c #7B4841",
"y c #7A4941",
"u c #7B4941",
"i c #AD7656",
"p c #AD7756",
"a c #AC7657",
"s c #AD7657",
"d c #AC7757",
"f c #AD7757",
"g c #468232",
"h c #478232",
"j c #468332",
"k c #468233",
"l c #468333",
"z c #74A742",
"x c #75A742",
"c c #74A643",
"v c #75A643",
"b c #74A743",
"n c #75A743",
"m c #172139",
/* pixels */
"mmmmmmmmmmmmmmmmmmmmmmmmmmmmmmmmmmmmmmmmmmmmmmmmmmmmmmmmmmmmmmmm",
"mmmmmmmmmmmmmmmmmmmmmmmmmmmmmmmmmmmmmmmmmmmmmmmmmmmmmmmmmmmmmmmm",
"mmmmmmmmmmmmmmmmmmmmmmmmmmmmmmmmmmmmmmmmmmmmmmmmmmmmmmmmmmmmmmmm",
"mmmmmmmmmmmmmmmmmmmmmmmmmmmmmmmmmmmmmmmmmmmmmmmmmmmmmmmmmmmmmmmm",
"mmmmmmmmmmmmmmmmmmmmmmmmmmmmmmmmmmmmmmmmmmmmmmmmmmmmmmmmmmmmmmmm",
"mmmmmmmmmmmmmmmmmmmmmmmmmmmmmmmmmmmmmmmmmmmmmmmmmmmmmmmmmmmmmmmm",
"mmmmmmmmmmmmmmmmmmmmmmmmmmmmmmmmmmmmmmmmmmmmmmmmmmmmmmmmmmmmmmmm",
"mmmmmmmmmmmmmmmmmmmmmmmmmmmmmmmmmmmmmmmmmmmmmmmmmmmmmmmmmmmmmmmm",
"mmmmmmmmmmmmmmmmmmmmmmmmmmmmmmmmmmmmmmmmmmmmmmmmmmmmmmmmmmmmmmmm",
"mmmmmmmmmmmmmmmmmmmmmmmmmmmmmmmmmmmmmmmmmmmmmmmmmmmmmmmmmmmmmmmm",
"mmmmmmmmmmmmmmmmmmmmmmmmmmmmmmmmmmmmmmmmmmmmmmmmmmmmmmmmmmmmmmmm",
"mmmmmmmmmmmmmmmmmmmmmmmmmmmmmmmmmmmmmmmmmmmmmmmmmmmmmmmmmmmmmmmm",
"mmmmmmmmmmmmmmmmmmmmmmmmmmmmmmmmmmmmmmmmmmmmmmmmmmmmmmmmmmmmmmmm",
"mmmmmmmmmmmmmmmmmmmmmmmmmmmmmmmmmmmmmmmmmmmmmmmmmmmmmmmmmmmmmmmm",
"mmmmmmmmmmmmmmmmmmmmmmmmmmmmmmmmmmmmmmmmmmmmmmmmmmmmmmmmmmmmmmmm",
"mmmmmmmmmmmmmmmmmmmmmmmmmmmmmmmmmmmmmmmmmmmmmmmmmmmmmmmmmmmmmmmm",
"mmmmmmmmmmmmmmmmmmmmmmmmmmmmnnnnnnggmmmmmmmmmmmmmmmmmmmmmmmmmmmm",
"mmmmmmmmmmmmmmmmmmmmmmmmmmmmnnnnnnggmmmmmmmmmmmmmmmmmmmmmmmmmmmm",
"mmmmmmmmmmmmmmmmmmmmmmmmffggggkkgg<<<<33mmmmmmmmmmmmmmmmmmmmmmmm",
"mmmmmmmmmmmmmmmmmmmmmmmmdfggggkkgh<><<33mmmmmmmmmmmmmmmmmmmmmmmm",
"mmmmmmmmmmmmmmmmmmnnpfffrrggggjj<<<<xxvvggrrmmmmmmmmmmmmmmmmmmmm",
"mmmmmmmmmmmmmmmmmmnnffffrrkggggl<<<<xxnvggr0mmmmmmmmmmmmmmmmmmmm",
"mmmmmmmmmmmmmmmmnngg00ttrrhg5555><xnxnxxtrrr<<><mmmmmmmmmmmmmmmm",
"mmmmmmmmmmmmmmmmnngj0rtttrgh5557<<nnbnxxrrrr<<><mmmmmmmmmmmmmmmm",
"mmmmmmmmmmmmnnggrrrrww334499rrt0nnnbggrrry<<><<3<<xnmmmmmmmmmmmm",
"mmmmmmmmmmmmnnggrrrr0q336498rrrrnnnnggrrry1<3<<<<<nnmmmmmmmmmmmm",
"mmmmmmmmnnnngg00rrrr<3ppfdffrrgggguqrryy<<,,<<,<ffnnrrrrmmmmmmmm",
"mmmmmmmmnnnngg0rrrrr><ppfpffryggggttrryy<<,,<<<<ffnnryrrmmmmmmmm",
"mmmmffnnggryrr0rrrffffffsssfffrrffrrffrrttrrbbnnbbkggghhrrrrmmmm",
"mmmmffnngjyyrrttrrfffdffssffffrrffrrffrrttrrzbnbbbgggghhrrrrmmmm",
"fpnnjjggtqr0wyffffssffffrryrryrrrrrrrr<<<<nnnngkgggggghgggttyy**",
"ffnnjjggqtrryeffsfssfdffrrrrrrrrrrrrrr<,<<nnnnggggggggggggqqyy**",
"gggggg00<<33><ghipffffrrrrrrtr00<<<,<<<<trnxrrqqrrryggttrrnn<<**",
"gggggg00<<33<<ggpfffif0rrrrrrr00<<<<<3<<rrnn0rtq0rrrhgttrrnb<,-*",
"ggttff3<<<<<jhnngkggr0ffrrry<<<<<<xxnnrrwyttrrtrrr<,fffftt<<33++",
"ggrrff<<<<<3ggnnjgggrrffrrrr<<<<<<xxnnrryyrtrrrrrr<<fffftt<333++",
"rr<<$#**33ffr0kkrrr000<<<<33vvnnnnvvgggggg00rr<<<<ffggrr3<,,++##",
"rr<<##**33ffrykkrrrr00<><>33vcnnnnvvgggggg00rt<<,<ffggrr<<,,++##",
"<<<<*%**==rrkk00rr<<,,,<ggxznnggggggnvjghgry<<nnadhg13<<**++**#*",
"<<3<****==rrkk000r<<:,<<ggxxnnggggggnngjgkrr<<nnffgj33<<*#++**=*",
"rr<,<<****qq33<<**<<nnggnnggqtggjjnxturrtu,,rr3333>><<****##**##",
"rr<<<<****rr33<<**<<nnghnnggttggjjnnttrruu,:0r3333>><>****##**$#",
"rr3<<>##*=:><<<1****ffyyttrtrrgjggrryyrr<<+++@++**********##**+.",
"rr<3<<##**>><3<<*=**ffyyttrrrrggggrtyyrr<3++@.+@*******#****#*o+",
"<<>1<<**rr<<<<,3***#rr<<rtrrrrhgrrrr<<<<<<--.+--*****=++++++%-..",
"<,>><<**r0<<<,<<*-*=rr<<rrrrrrggrrrr<<<<<<*-++--*****#++++++-;..",
"<<<<<<*-rr<<<<<<**yy<<,,<,,,rr00gg<<**++****++@O++.X++oo++++++++",
"<<<<<<**ry<<<<3<**yy<<,,<<,,yr00gg<<**O+**=*++@@++..++oo++++++++",
"<<>><<<<+o<<<<<<**rr<<<<<<<<<<<<**++****#*+Oo+++##*********###@.",
"<<>><<,< o<<<3<<**r0<<<<<,,<<<<<**++*-****++++++##******-***##++",
"mmmm<<&%+o<<::33<<++rr<<<<<<,,++<<##**++***=********==.+**@@mmmm",
"mmmm<<##++<<::33<<..t0<<<3<<,,++<<##**++**=*********==++*#@@mmmm",
"mmmmmmmm**<<<<<<13++rr33<<<<<<****#*@.##***-**##--***-++mmmmmmmm",
"mmmmmmmm**<<<,<<33++rr23<<<<<,******@@##*#****##-;**#*.+mmmmmmmm",
"mmmmmmmmmmmm><<<****00,<333<<,$#****++=*****==+++@O@mmmmmmmmmmmm",
"mmmmmmmmmmmm><<<**#*00<<33<<<<##****++*-***#==++++O mmmmmmmmmmmm",
"mmmmmmmmmmmmmmmm****<<><<<<<*->>******##*****#++mmmmmmmmmmmmmmmm",
"mmmmmmmmmmmmmmmm****<<<<<<<<**>>*%***-##*=**--+@mmmmmmmmmmmmmmmm",
"mmmmmmmmmmmmmmmmmmmm**<<<3<<-*<>;=**++*-***=mmmmmmmmmmmmmmmmmmmm",
"mmmmmmmmmmmmmmmmmmmm**<<><<<=*,<=***++-*****mmmmmmmmmmmmmmmmmmmm",
"mmmmmmmmmmmmmmmmmmmmmmmm>><<**<<--++***#mmmmmmmmmmmmmmmmmmmmmmmm",
"mmmmmmmmmmmmmmmmmmmmmmmm>><<**><**++***-mmmmmmmmmmmmmmmmmmmmmmmm",
"mmmmmmmmmmmmmmmmmmmmmmmmmmmm***=1>o+mmmmmmmmmmmmmmmmmmmmmmmmmmmm",
"mmmmmmmmmmmmmmmmmmmmmmmmmmmm**-*1>++mmmmmmmmmmmmmmmmmmmmmmmmmmmm"
};
