/* XPM */
static char *result[] = {
/* columns rows colors chars-per-pixel */
"64 64 51 1 ",
"  c #241526",
". c #251526",
"X c #241427",
"o c #251427",
"O c #241527",
"+ c #251527",
"@ c #341C26",
"# c #351C26",
"$ c #341D26",
"% c #351D26",
"& c #341C27",
"* c #351C27",
"= c #341D27",
"- c #351D27",
"; c #162038",
": c #172038",
"> c #172039",
", c #602C2C",
"< c #612C2C",
"1 c #602D2C",
"2 c #612D2C",
"3 c #602C2D",
"4 c #602D2D",
"5 c #24562E",
"6 c #25562E",
"7 c #24572E",
"8 c #25572E",
"9 c #24562F",
"0 c #25562F",
"q c #468232",
"w c #478232",
"e c #468332",
"r c #478332",
"t c #468233",
"y c #468333",
"u c #74A642",
"i c #75A642",
"p c #74A742",
"a c #75A742",
"s c #74A643",
"d c #75A643",
"f c #74A743",
"g c #75A743",
"h c #A8CA58",
"j c #A9CA58",
"k c #A8CB58",
"l c #A9CB58",
"z c #A8CA59",
"x c #A9CA59",
"c c #A8CB59",
"v c #172139",
/* pixels */
"vvvvvvvvvvvvvvvvvvvvvvvvvvvvvvvvvvvvvvvvvvvvvvvvvvvvvvvvvvvvvvvv",
"vvvvvvvvvvvvvvvvvvvvvvvvvvvvvvvvvvvvvvvvvvvvvvvvvvvvvvvvvvvvvvvv",
"vvvvvvvvvvvvvvvvvvvvvvvvvvvvvvvvvvvvvvvvvvvvvvvvvvvvvvvvvvvvvvvv",
"vvvvvvvvvvvvvvvvvvvvvvvvvvvvvvvvvvvvvvvvvvvvvvvvvvvvvvvvvvvvvvvv",
"vvvvvvvvvvvvvvvvvvvvvvvvvvvvvvvvvvvvvvvvvvvvvvvvvvvvvvvvvvvvvvvv",
"vvvvvvvvvvvvvvvvvvvvvvvvvvvvvvvvvvvvvvvvvvvvvvvvvvvvvvvvvvvvvvvv",
"vvvvvvvvvvvvvvvvvvvvvvvvvvvvvvvvvvvvvvvvvvvvvvvvvvvvvvvvvvvvvvvv",
"vvvvvvvvvvvvvvvvvvvvvvvvvvvvvvvvvvvvvvvvvvvvvvvvvvvvvvvvvvvvvvvv",
"vvvvvvvvvvvvvvvvvvvvvvvvvvvvvvvvvvvvvvvvvvvvvvvvvvvvvvvvvvvvvvvv",
"vvvvvvvvvvvvvvvvvvvvvvvvvvvvvvvvvvvvvvvvvvvvvvvvvvvvvvvvvvvvvvvv",
"vvvvvvvvvvvvvvvvvvvvvvvvvvvvvvvvvvvvvvvvvvvvvvvvvvvvvvvvvvvvvvvv",
"vvvvvvvvvvvvvvvvvvvvvvvvvvvvvvvvvvvvvvvvvvvvvvvvvvvvvvvvvvvvvvvv",
"vvvvvvvvvvvvvvvvvvvvvvvvvvhhvvvvhhhhvvvvvvvvvvvvvvvvvvvvvvvvvvvv",
"vvvvvvvvvvvvvvvvvvvvvvvvvvhhvvvvjhhhvvvvvvvvvvvvvvvvvvvvvvvvvvvv",
"vvvvvvvvvvvvvvvvvvvvvvvvgghhgghhhhhjddvvvvvvvvvvvvvvvvvvvvvvvvvv",
"vvvvvvvvvvvvvvvvvvvvvvvvgghhgghhhjhhddvvvvvvvvvvvvvvvvvvvvvvvvvv",
"vvvvvvvvvvvvvvvvvvvvvvhhjjkkhjhjzzzhhhggzzhhvvvvvvvvvvvvvvvvvvvv",
"vvvvvvvvvvvvvvvvvvvvvvhhxjkkkhhhhzhhhhggzzjhvvvvvvvvvvvvvvvvvvvv",
"vvvvvvvvvvvvvvvvvvvvdshhjjkhhhhhhhhhhhhhhkhhggvvvvvvvvvvvvvvvvvv",
"vvvvvvvvvvvvvvvvvvvvdghhjjhhhhhhhhhhhhhhhhhhggvvvvvvvvvvvvvvvvvv",
"vvvvvvvvvvvvhhhhggddjhhhhhhhhhhjzzhhhzhhhhhhhhfgkhzhvvvvvvvvvvvv",
"vvvvvvvvvvvvhjhhggdizzhhjhhhhhhhzzkhhhhhhhhhhhgghhzhvvvvvvvvvvvv",
"vvvvvvvvzhapzxjjhhhhhhhzhhhhhhhhzzzhhhhhhhhhhhhhhhhhggvvvvvvvvvv",
"vvvvvvvvhkupzzjxhhhhhhzzhhhhhhhhczhhhhhzhhhhhhhhhhhhggvvvvvvvvvv",
"vvvvvvaahhhkdgzzjhhjhhhhkhhhhhzzkhhzhhkhzzzhhhhhhhhhgggdzzvvvvvv",
"vvvvvvaahhhhggzzhhhhhhhhhhjhzhzzhhzhhhhjhzhhhhhhhhhhggggzzvvvvvv",
"vvvvvvhhhhhzkhhhhhhhhhhzkkhhhhhhhhhhhhhhjjhhhhkkzzjjkkhhhhjlvvvv",
"vvvvvvhhhhhhhhhhhhhhhhhhkkhhhhhhhhhhkhhhjjhhkhkkzzjjkkhhhhjjvvvv",
"vvdghhjjhhhhhhhhhhhhhhhjjjhhjhhjhhzzhhhhjzhhhhhlhhhhhhzzhhhhkhhh",
"vvgghhljhhhhhhhhhhhhhhhhjjhhhhhhhhzzhhzhzzhhhhhhhzjhhzzzjhhhhhhh",
"&=xhhhhhhkhhhhhhzzkkkkhhhkzzzzhjhhkkzxhhhhhzzzjjhhhhhhjjhhhhhhhh",
"&&hhhzhhkkhhhhhhzzkkklhhkhzzzzhhhhkkxzhhhkhhzzhjhhhhzhjjhhhhhhhh",
"hhhhzzkkhhhhhhkkzzhhzhhhhjhhhjhhhhhhllhhhhhhhxhhhhhhhhzzhhhjjhgd",
"jhhhzzkkhhhhhhkkzzhhhzhhhhhhjhhhhhhhllhhkhhhhhhhhhhhzhzxhhhhzhfg",
"hhhzgfhzhhhhhhhzhhhhhhhhxzhhzhhhhhhkhhhhkkhzzzkkhhkkhhhhjhggkkqq",
"khzxgghhhhhhhhzhhkhhhjhhxxhhhhjhhhhhhhhhkkhhzzkkhhkkhhhhhzdgkhqq",
"yyqrqqhjgghhzzhjhhhhhhhhhhhhhhzzhhhhhhhhzzhhhhhhjjzzdgjjhhqq&&88",
"yyqqqwhhgghhzzjhhhhhhhhhhhhhhhzzhhhhhzhhzzhhhhhhjjhzggjjhcqq&&88",
"OOOOOOhkeegghhhhhkhhzhhjhhjjhjhhhjhhhkjjzhzchhhhggffqqgghh66&&&&",
"OOOOOOhhqqaghhhhhkhhhhhhhhjjhhhhhhhhkhjhzzhzhhhhdgffqqgghh66&&&&",
"OO,,112<ttqqqqhhhxkkhhjlhhjhhzhhhhzzhhzhkckhsfhheqqq5068&&==##OX",
"OO,,11<<ttwqqehhhhkkhhjjhkhhhhhhhlzzjhhhhhkkffhhqqwq6666&&==%#OO",
"&&&&&&,,1,<,,,hhddhhhhhjhhzhhhhhhhhhjhjjhjkkqqggqe656666=*&&&&OO",
"&&&&=&<,,,,,3,hhddhhhhhhhhhhhhhhhhzhjhjjjhkkqqggqq666666&&&&=&XO",
"@@&&*&&&,<,,&&qqdghhhjgghhhjhhjjjjzzhhgggghhfg6600&==&&&OOOO++OO",
"@@&&&&&&,,,,&&qqgghhhhgghhhhhhjxjjzzhhgggghhgg6600&&&&&&OOOO++OO",
"&&&&&&&&&&=&&&=&$@,4hhqeggkkhjhhgdgghhqq77dd666666OO&&&&OO&&OO&&",
"&&&&&&&&&&&&&&==@@,,hhqqggkkhhhhgggghhqq77dd666666 O&&&*OO&&OO&&",
"@@&&&&&&&&+O&&@@&&,,,,3,tthhhhggfgqqqqfd8866&&&&OOOO+Ooo++&@OOOO",
"@#*&&&&@&&OO&&@@&*,,,1,<tthhhhggggqqqqgd8866&&@&OOOOOOoo++&& OO ",
"vvvv==&=OOOO&&&&&&@@,,,,,,56665956re66&*&&&&--&&&=&& OOOOX++vvvv",
"vvvv==&& O+X&&&&&&@@,,,,,,66665566ry66&&&&&&%-&&&&&&O+OOOO.+vvvv",
"vvvvvvvv#* +:>&&&&&&&&&&&&3,,,<<,,33&&OO&&&&OOX+*&++OOOOvvvvvvvv",
"vvvvvvvv**OO::&&&&@&&&&&&*,,3,<<,,33&&OO&&&&OOOO&&++OOO+vvvvvvvv",
"vvvvvvvvvvvv&&::**&&&&&&===&,,<<&&&&OOOOOO    OOOOOOvvvvvvvvvvvv",
"vvvvvvvvvvvv&&::**&&&&&&==&&,,<<*&&&OO OOO    OOOXOOvvvvvvvvvvvv",
"vvvvvvvvvvvvvvvv::OOXXOO&&&&&&&&&&&&&&&&@&  OO+Ovvvvvvvvvvvvvvvv",
"vvvvvvvvvvvvvvvv;>OOXXOO&&@&&&#@&&&&&&&&&&  OOOOvvvvvvvvvvvvvvvv",
"vvvvvvvvvvvvvvvvvvvv&&.oOO&&&&&&OOOXOOOOOOOOvvvvvvvvvvvvvvvvvvvv",
"vvvvvvvvvvvvvvvvvvvv&&+.OO&&&&&&OOOOOOO+OOOXvvvvvvvvvvvvvvvvvvvv",
"vvvvvvvvvvvvvvvvvvvvvvvvOO::&&&& OOOXXOOvvvvvvvvvvvvvvvvvvvvvvvv",
"vvvvvvvvvvvvvvvvvvvvvvvvOO::&&&@XOOOXXOOvvvvvvvvvvvvvvvvvvvvvvvv",
"vvvvvvvvvvvvvvvvvvvvvvvvvvvv::&*OO++vvvvvvvvvvvvvvvvvvvvvvvvvvvv",
"vvvvvvvvvvvvvvvvvvvvvvvvvvvv::**OO++vvvvvvvvvvvvvvvvvvvvvvvvvvvv"
};
