/* XPM */
static char *result[] = {
/* columns rows colors chars-per-pixel */
"64 64 116 2 ",
"   c #10141F",
".  c #151C28",
"X  c #151D28",
"o  c #241526",
"O  c #251526",
"+  c #241427",
"@  c #251427",
"#  c #241527",
"$  c #251527",
"%  c #341C26",
"&  c #351C26",
"*  c #341D26",
"=  c #351D26",
"-  c #341C27",
";  c #351C27",
":  c #341D27",
">  c #351D27",
",  c #162038",
"<  c #172038",
"1  c #172039",
"2  c #4D2B32",
"3  c #602C2C",
"4  c #612C2C",
"5  c #602D2C",
"6  c #612D2C",
"7  c #602C2D",
"8  c #602D2D",
"9  c #742438",
"0  c #752438",
"q  c #752439",
"w  c #24562E",
"e  c #25562E",
"r  c #24572E",
"t  c #25572E",
"y  c #24562F",
"u  c #25562F",
"i  c #3E4D36",
"p  c #3E4E36",
"a  c #445438",
"s  c #455438",
"d  c #4A5B39",
"f  c #4A5B3A",
"g  c #53663D",
"h  c #55683E",
"j  c #56683E",
"k  c #586C3E",
"l  c #677E44",
"z  c #A53030",
"x  c #A53130",
"c  c #A53031",
"v  c #884B2A",
"b  c #884B2B",
"n  c #894B2B",
"m  c #CF563C",
"M  c #CE573C",
"N  c #CF573C",
"B  c #CE573D",
"V  c #CF573D",
"C  c #468232",
"Z  c #478232",
"A  c #468332",
"S  c #478332",
"D  c #468233",
"F  c #468333",
"G  c #698043",
"H  c #698044",
"J  c #6D8445",
"K  c #6D8545",
"L  c #6D8645",
"P  c #74A642",
"I  c #75A642",
"U  c #74A742",
"Y  c #75A742",
"T  c #74A643",
"R  c #75A643",
"E  c #74A743",
"W  c #75A743",
"Q  c #DA863E",
"!  c #DB863E",
"~  c #DA873E",
"^  c #DA863F",
"/  c #809B4B",
"(  c #809B4C",
")  c #839E4C",
"_  c #839E4D",
"`  c #849E4C",
"'  c #86A24D",
"]  c #87A34D",
"[  c #89A64E",
"{  c #89A64F",
"}  c #8CAA50",
"|  c #95B452",
" . c #95B453",
".. c #9BBA54",
"X. c #9BBA55",
"o. c #A0C156",
"O. c #A1C156",
"+. c #A0C157",
"@. c #A3C457",
"#. c #A4C456",
"$. c #A4C556",
"%. c #A6C758",
"&. c #A7C758",
"*. c #A6C759",
"=. c #A6C858",
"-. c #A7C858",
";. c #A8CA58",
":. c #A9CA58",
">. c #A8CB58",
",. c #A9CB58",
"<. c #A8CA59",
"1. c #A9CA59",
"2. c #A8CB59",
"3. c #E8C070",
"4. c #E8C170",
"5. c #172139",
/* pixels */
"5.5.5.5.5.5.5.5.5.5.5.5.5.5.5.5.5.5.5.5.5.5.5.5.5.5.5.5.5.5.5.5.5.5.5.5.5.5.5.5.5.5.5.5.5.5.5.5.5.5.5.5.5.5.5.5.5.5.5.5.5.5.5.5.",
"5.5.5.5.5.5.5.5.5.5.5.5.5.5.5.5.5.5.5.5.5.5.5.5.5.5.5.5.5.5.5.5.5.5.5.5.5.5.5.5.5.5.5.5.5.5.5.5.5.5.5.5.5.5.5.5.5.5.5.5.5.5.5.5.",
"5.5.5.5.5.5.5.5.5.5.5.5.5.5.5.5.5.5.5.5.5.5.5.5.5.5.5.5.5.5.5.5.5.5.5.5.5.5.5.5.5.5.5.5.5.5.5.5.5.5.5.5.5.5.5.5.5.5.5.5.5.5.5.5.",
"5.5.5.5.5.5.5.5.5.5.5.5.5.5.5.5.5.5.5.5.5.5.5.5.5.5.5.5.5.5.5.5.5.5.5.5.5.5.5.5.5.5.5.5.5.5.5.5.5.5.5.5.5.5.5.5.5.5.5.5.5.5.5.5.",
"5.5.5.5.5.5.5.5.5.5.5.5.5.5.5.5.5.5.5.5.5.5.5.5.5.5.5.5.5.5.5.5.5.5.5.5.5.5.5.5.5.5.5.5.5.5.5.5.5.5.5.5.5.5.5.5.5.5.5.5.5.5.5.5.",
"5.5.5.5.5.5.5.5.5.5.5.5.5.5.5.5.5.5.5.5.5.5.5.5.5.5.5.5.5.5.5.5.5.5.5.5.5.5.5.5.5.5.5.5.5.5.5.5.5.5.5.5.5.5.5.5.5.5.5.5.5.5.5.5.",
"5.5.5.5.5.5.5.5.5.5.5.5.5.5.5.5.5.5.5.5.5.5.5.5.5.5.5.5.5.5.5.5.5.5.5.5.5.5.5.5.5.5.5.5.5.5.5.5.5.5.5.5.5.5.5.5.5.5.5.5.5.5.5.5.",
"5.5.5.5.5.5.5.5.5.5.5.5.5.5.5.5.5.5.5.5.5.5.5.5.5.5.5.5.5.5.5.5.5.5.5.5.5.5.5.5.5.5.5.5.5.5.5.5.5.5.5.5.5.5.5.5.5.5.5.5.5.5.5.5.",
"5.5.5.5.5.5.5.5.5.5.5.5.5.5.5.5.5.5.5.5.5.5.5.5.5.5.5.5.5.5.5.5.5.5.5.5.5.5.5.5.5.5.5.5.5.5.5.5.5.5.5.5.5.5.5.5.5.5.5.5.5.5.5.5.",
"5.5.5.5.5.5.5.5.5.5.5.5.5.5.5.5.5.5.5.5.5.5.5.5.5.5.5.5.5.5.5.5.5.5.5.5.5.5.5.5.5.5.5.5.5.5.5.5.5.5.5.5.5.5.5.5.5.5.5.5.5.5.5.5.",
"5.5.5.5.5.5.5.5.5.5.5.5.5.5.5.5.5.5.5.5.5.5.5.5.5.5.5.5.5.5.5.5.5.5.5.5.5.5.5.5.5.5.5.5.5.5.5.5.5.5.5.5.5.5.5.5.5.5.5.5.5.5.5.5.",
"5.5.5.5.5.5.5.5.5.5.5.5.5.5.5.5.5.5.5.5.5.5.5.5.5.5.5.5.5.5.5.5.5.5.5.5.5.5.5.5.5.5.5.5.5.5.5.5.5.5.5.5.5.5.5.5.5.5.5.5.5.5.5.5.",
"5.5.5.5.5.5.5.5.5.5.5.5.5.5.5.5.5.5.5.5.5.5.5.5.5.5.;.;.5.5.5.5.;.;.;.;.5.5.5.5.5.5.5.5.5.5.5.5.5.5.5.5.5.5.5.5.5.5.5.5.5.5.5.5.",
"5.5.5.5.5.5.5.5.5.5.5.5.5.5.5.5.5.5.5.5.5.5.5.5.5.5.;.;.5.5.5.5.:.;.;.;.5.5.5.5.5.5.5.5.5.5.5.5.5.5.5.5.5.5.5.5.5.5.5.5.5.5.5.5.",
"5.5.5.5.5.5.5.5.5.5.5.5.5.5.5.5.5.5.5.5.5.Q 5.5.W W ;.;.W W ;.;.;.;.;.:.R R 5.5.5.5.5.5.5.5.5.5.5.5.5.5.5.5.5.5.5.5.5.5.5.5.5.5.",
"5.5.5.5.5.5.5.5.5.5.5.5.5.5.5.5.5.5.5.5.5.^ Q 5.W W ;.;.W W ;.;.;.:.;.;.R R 5.5.5.5.5.5.5.5.5.5.5.5.5.5.5.5.5.5.5.5.5.5.5.5.5.5.",
"5.5.5.5.5.5.5.5.5.5.5.5.5.5.5.5.5.5.5.5.5.m Q N :.:.>.>.;.:.;.:.<.<.<.;.;.;.W W <.<.;.;.5.5.5.5.5.5.5.5.5.5.5.5.5.5.5.5.5.5.5.5.",
"5.5.5.5.5.5.5.5.5.5.5.5.5.5.5.5.5.5.5.5.5.N N Q N :.>.>.>.;.;.;.;.<.;.;.;.;.W W <.<.:.;.5.5.5.5.5.5.5.5.5.5.5.5.5.5.5.5.5.5.5.5.",
"5.5.5.5.5.5.5.5.5.5.5.5.5.5.5.5.5.5.5.5.R T z M N N N Q N ;.;.;.;.;.;.;.;.;.;.;.;.>.;.;.W W 5.5.5.5.5.5.5.5.5.5.5.5.5.5.5.5.5.5.",
"5.5.5.5.5.5.5.5.5.5.5.5.5.5.5.5.5.5.5.5.R W ;.V N V N m Q Q Q Q N ;.;.;.;.;.;.;.;.;.;.;.W W 5.5.5.5.5.5.5.5.5.5.5.5.5.5.5.5.5.5.",
"5.5.5.5.5.5.5.5.5.5.5.5.;.;.;.;.W W R R :.;.;.z m N N N N N N Q Q Q N ;.;.<.;.;.;.;.;.;.;.;.E W >.;.<.;.5.5.5.5.5.5.5.5.5.5.5.5.",
"5.5.5.5.5.5.5.5.5.5.5.5.;.:.;.;.W W R I <.<.;.z V N N M N M N N M V Q m ;.;.;.;.;.;.;.;.;.;.W W ;.;.<.;.5.5.5.5.5.5.5.5.5.5.5.5.",
"5.5.5.5.5.5.5.5.<.;.Y U <.1.:.:.;.;.;.;.;.;.;.z N V N N N N V N N N ! Q Q ;.;.;.;.;.;.;.;.;.;.;.;.;.;.;.W W 5.5.5.5.5.5.5.5.5.5.",
"5.5.5.5.5.5.5.5.;.>.P U <.<.:.1.;.;.;.;.;.;.<.c N N N N N N N V N N m ^ Q Q ;.<.;.;.;.;.;.;.;.b b ;.;.;.W W 5.5.5.5.5.5.5.5.5.5.",
"5.5.5.5.5.5.Y Y ;.;.;.>.R W <.<.:.;.;.:.;.;.;.z N N N N V N N N N M N N Q Q N ;.<.<.<.;.b ;.3 b ;.;.;.;.W W W R <.<.5.5.5.5.5.5.",
"5.5.5.5.5.5.Y Y ;.;.;.;.W W <.<.;.;.;.;.;.;.;.z N N N B N N N N M N N N v b Q N ;.<.;.;.3 n 3 ;.;.;.;.;.W W W W <.<.5.5.5.5.5.5.",
"5.5.5.5.5.5.;.;.;.;.;.<.>.;.;.;.;.;.;.;.;.;.;.z z V m z x N N N N 3 N b b N N N :.:.b ;.4 3 >.>.<.<.:.:.>.>.;.;.;.;.:.,.5.5.5.5.",
"5.5.5.5.5.5.;.;.;.;.;.;.;.;.;.;.;.;.;.;.;.;.;.;.z z x z q x N N N N 3 3 N N b N z n - n - 3 >.>.<.<.:.:.>.>.;.;.;.;.:.:.5.5.5.5.",
"5.5.R W ;.;.:.:.;.;.;.;.;.;.;.;.;.;.;.;.;.;.;.:.z z ;.;.0 ;.;.N N N 3 3 b - 3 * 3 - - - - - ;.,.;.;.;.;.;.;.<.<.;.;.;.;.>.;.;.;.",
"5.5.W W ;.;.,.:.;.;.;.;.;.;.;.;.;.;.;.;.;.;.;.;.:.z @.O.- %.;.x N N N - ; % - - 3 - ;.- - ;.;.;.;.<.:.;.;.<.<.<.:.;.;.;.;.;.;.;.",
"- : 1.;.;.;.;.;.;.>.;.;.;.;.;.;.<.<.>.>.>.>.;.;.%.2 { (    .o.&.N N N z % - x N Q ! z <.<.<.:.:.;.;.;.;.;.;.:.:.;.;.;.;.;.;.;.;.",
"- - ;.;.;.<.;.;.>.>.;.;.;.;.;.;.<.<.>.>.>.,.;.;.$.X H g   J ) | N N z 0 z N N Q Q Q   ;.<.<.;.:.;.;.;.;.<.;.:.:.;.;.;.;.;.;.;.;.",
";.;.;.;.<.<.>.>.;.;.;.;.;.;.>.>.<.<.;.;.<.;.;.;.#.. l d p s h J c N o.0 0 N N   Q ^ Q ;.;.1.;.;.;.;.;.;.;.;.<.<.;.;.;.:.:.;.W R ",
":.;.;.;.<.<.>.>.;.;.;.;.;.;.>.>.<.<.;.;.;.<.;.;.%...' K j a i a z z ) | 9 -.N N Q ~ Q N ;.;.;.;.;.;.;.;.<.;.<.1.;.;.;.;.<.;.E W ",
";.;.;.<.W E ;.<.;.;.;.;.;.;.;.<.;.;.;.;.;.;.;.;.1.*.o.| _ J h a i z h L ; ..%.;.V Q Q 4.<.<.>.>.;.;.>.>.;.;.;.;.:.;.W W >.>.C C ",
">.;.<.1.W W ;.;.;.;.;.;.;.;.<.;.;.>.;.;.;.:.;.;.1.1.;.%.o.| ` J h 2 p f   } #.;.>.3.4.  <.<.>.>.;.;.>.>.;.;.;.;.;.<.R W >.;.C C ",
"F F C S C C ;.:.W W ;.;.<.<.;.:.;.;.;.;.;.;.;.;.;.;.;.;.;.%.+.| ) . k g G } #.;.<.<.;.;.;.;.;.;.:.:.<.<.R W :.:.;.;.C C - - t t ",
"F F C C C Z ;.;.W W ;.;.<.<.:.;.;.;.;.;.;.;.;.;.;.;.;.;.;.;.<.*.o.| ] / [ X.%.;.<.<.;.;.;.;.;.;.:.:.;.<.W W :.:.;.2.C C - - t t ",
"# # # # # # ;.>.A A W W ;.;.;.;.;.>.;.;.<.;.;.:.;.;.:.:.;.:.;.;.;.&.@.O.@.=.:.:.<.;.<.2.;.;.;.;.W W E E C C W W ;.;.e e - - - - ",
"# # # # # # ;.;.C C Y W ;.;.;.;.;.>.;.;.;.;.;.;.;.;.:.:.;.;.;.;.;.;.;.;.>.;.:.;.<.<.;.<.;.;.;.;.R W E E C C W W ;.;.e e - - - - ",
"# # 3 3 5 5 6 4 D D C C C C ;.;.;.1.>.>.;.;.:.,.;.;.:.;.;.<.;.;.;.;.<.<.;.;.<.;.>.2.>.;.T E ;.;.A C C C w u e t - - : : & & # + ",
"# # 3 3 5 5 4 4 D D Z C C A ;.;.;.;.>.>.;.;.:.:.;.>.;.;.;.;.;.;.;.,.<.<.:.;.;.;.;.;.>.>.E E ;.;.C C Z C e e e e - - : : = & # # ",
"- - - - - - 3 3 5 3 4 3 3 3 ;.;.R R ;.;.;.;.;.:.;.;.<.;.;.;.;.;.;.;.;.;.:.;.:.:.;.:.>.>.C C W W C A e w e e e e : ; - - - - # # ",
"- - - - : - 4 3 3 3 3 3 7 3 ;.;.R R ;.;.;.;.;.;.;.;.;.;.;.;.;.;.;.;.<.;.:.;.:.:.:.;.>.>.C C W W C C e e e e e e - - - - : - + # ",
"% % - - ; - - - 3 4 3 3 - - C C R W ;.;.;.:.W W ;.;.;.:.;.;.:.:.:.:.<.<.;.;.W W W W ;.;.E W e e u u - : : - - - # # # # $ $ # # ",
"% % - - - - - - 3 3 3 3 - - C C W W ;.;.;.;.W W ;.;.;.;.;.;.:.1.:.:.<.<.;.;.W W W W ;.;.W W e e u u - - - - - - # # # # $ $ # # ",
"- - - - - - - - - - : - - - : - * % 3 8 ;.;.C A W W >.>.;.:.;.;.W R W W ;.;.C C r r R R e e e e e e # # - - - - # # - - # # - - ",
"- - - - - - - - - - - - - - : : % % 3 3 ;.;.C C W W >.>.;.;.;.;.W W W W ;.;.C C r r R R e e e e e e o # - - - ; # # - - # # - - ",
"% % - - - - - - - - $ # - - % % - - 3 3 3 3 7 3 D D ;.;.;.;.W W E W C C C C E R t t e e - - - - # # # # $ # @ @ $ $ - % # # # # ",
"% & ; - - - - % - - # # - - % % - ; 3 3 3 5 3 4 D D ;.;.;.;.W W W W C C C C W R t t e e - - % - # # # # # # @ @ $ $ - - o # # o ",
"5.5.5.5.: : - : # # # # - - - - - - % % 3 3 3 3 3 3 w e e e w y w e S A e e - ; - - - - > > - - - : - - o # # # # + $ $ 5.5.5.5.",
"5.5.5.5.: : - - o # $ + - - - - - - % % 3 3 3 3 3 3 e e e e w w e e S F e e - - - - - - = > - - - - - - # $ # # # # O $ 5.5.5.5.",
"5.5.5.5.5.5.5.5.& ; o $ < 1 - - - - - - - - - - - - 7 3 3 3 4 4 3 3 7 7 - - # # - - - - # # + $ ; - $ $ # # # # 5.5.5.5.5.5.5.5.",
"5.5.5.5.5.5.5.5.; ; # # < < - - - - % - - - - - - ; 3 3 7 3 4 4 3 3 7 7 - - # # - - - - # # # # - - $ $ # # # $ 5.5.5.5.5.5.5.5.",
"5.5.5.5.5.5.5.5.5.5.5.5.- - < < ; ; - - - - - - : : : - 3 3 4 4 - - - - # # # # # # o o o o # # # # # # 5.5.5.5.5.5.5.5.5.5.5.5.",
"5.5.5.5.5.5.5.5.5.5.5.5.- - < < ; ; - - - - - - : : - - 3 3 4 4 ; - - - # # o # # # o o o o # # # + # # 5.5.5.5.5.5.5.5.5.5.5.5.",
"5.5.5.5.5.5.5.5.5.5.5.5.5.5.5.5.< < # # + + # # - - - - - - - - - - - - - - - - % - o o # # $ # 5.5.5.5.5.5.5.5.5.5.5.5.5.5.5.5.",
"5.5.5.5.5.5.5.5.5.5.5.5.5.5.5.5., 1 # # + + # # - - % - - - & % - - - - - - - - - - o o # # # # 5.5.5.5.5.5.5.5.5.5.5.5.5.5.5.5.",
"5.5.5.5.5.5.5.5.5.5.5.5.5.5.5.5.5.5.5.5.- - O @ # # - - - - - - # # # + # # # # # # # # 5.5.5.5.5.5.5.5.5.5.5.5.5.5.5.5.5.5.5.5.",
"5.5.5.5.5.5.5.5.5.5.5.5.5.5.5.5.5.5.5.5.- - $ O # # - - - - - - # # # # # # # $ # # # + 5.5.5.5.5.5.5.5.5.5.5.5.5.5.5.5.5.5.5.5.",
"5.5.5.5.5.5.5.5.5.5.5.5.5.5.5.5.5.5.5.5.5.5.5.5.# # < < - - - - o # # # + + # # 5.5.5.5.5.5.5.5.5.5.5.5.5.5.5.5.5.5.5.5.5.5.5.5.",
"5.5.5.5.5.5.5.5.5.5.5.5.5.5.5.5.5.5.5.5.5.5.5.5.# # < < - - - % + # # # + + # # 5.5.5.5.5.5.5.5.5.5.5.5.5.5.5.5.5.5.5.5.5.5.5.5.",
"5.5.5.5.5.5.5.5.5.5.5.5.5.5.5.5.5.5.5.5.5.5.5.5.5.5.5.5.< < - ; # # $ $ 5.5.5.5.5.5.5.5.5.5.5.5.5.5.5.5.5.5.5.5.5.5.5.5.5.5.5.5.",
"5.5.5.5.5.5.5.5.5.5.5.5.5.5.5.5.5.5.5.5.5.5.5.5.5.5.5.5.< < ; ; # # $ $ 5.5.5.5.5.5.5.5.5.5.5.5.5.5.5.5.5.5.5.5.5.5.5.5.5.5.5.5."
};
