/* XPM */
static char *result[] = {
/* columns rows colors chars-per-pixel */
"64 64 164 2 ",
"   c #10141F",
".  c #151D28",
"X  c #241526",
"o  c #251526",
"O  c #241427",
"+  c #251427",
"@  c #241527",
"#  c #251527",
"$  c #341C26",
"%  c #351C26",
"&  c #341D26",
"*  c #351D26",
"=  c #341C27",
"-  c #351C27",
";  c #341D27",
":  c #351D27",
">  c #1E272B",
",  c #1F292C",
"<  c #162038",
"1  c #172038",
"2  c #172039",
"3  c #20232A",
"4  c #202A2C",
"5  c #2E2B2B",
"6  c #312C2C",
"7  c #39282C",
"8  c #26302E",
"9  c #27322E",
"0  c #2A352F",
"q  c #202E37",
"w  c #2B3730",
"e  c #313D32",
"r  c #313E32",
"t  c #4C2F2E",
"y  c #4D2B32",
"u  c #5B3330",
"i  c #602C2C",
"p  c #612C2C",
"a  c #602D2C",
"s  c #612D2C",
"d  c #602C2D",
"f  c #602D2D",
"g  c #6D2437",
"h  c #742438",
"j  c #752438",
"k  c #683731",
"l  c #7E3E34",
"z  c #24542E",
"x  c #25542E",
"c  c #24542F",
"v  c #24562E",
"b  c #25562E",
"n  c #24572E",
"m  c #25572E",
"M  c #25562F",
"N  c #334132",
"B  c #344132",
"V  c #364433",
"C  c #3C4A35",
"Z  c #5C4330",
"A  c #544E3E",
"S  c #554F3E",
"D  c #425237",
"F  c #445438",
"G  c #485939",
"H  c #4C5D3A",
"J  c #704E33",
"K  c #53673D",
"L  c #54673D",
"P  c #586C3E",
"I  c #394A50",
"U  c #617641",
"Y  c #647A42",
"T  c #667C43",
"R  c #687F43",
"E  c #687E44",
"W  c #577277",
"Q  c #A33030",
"!  c #A53030",
"~  c #884B2B",
"^  c #844034",
"/  c #894135",
"(  c #9F4837",
")  c #A54A38",
"_  c #B54F3A",
"`  c #B6503A",
"'  c #BF523B",
"]  c #9A6437",
"[  c #BE773B",
"{  c #C2533B",
"}  c #C7553C",
"|  c #CB563C",
" . c #CD573C",
".. c #CE573C",
"X. c #CF573C",
"o. c #897750",
"O. c #927F53",
"+. c #468232",
"@. c #478232",
"#. c #468332",
"$. c #478332",
"%. c #468233",
"&. c #468333",
"*. c #6B8345",
"=. c #728A47",
"-. c #758D48",
";. c #768F48",
":. c #769048",
">. c #779148",
",. c #789249",
"<. c #72A243",
"1. c #74A443",
"2. c #74A543",
"3. c #74A642",
"4. c #75A642",
"5. c #74A742",
"6. c #75A742",
"7. c #74A643",
"8. c #75A643",
"9. c #74A743",
"0. c #75A743",
"q. c #DA863E",
"w. c #819C4C",
"e. c #85A04D",
"r. c #87A24D",
"t. c #87A34E",
"y. c #88A54E",
"u. c #88A54F",
"i. c #8CA94F",
"p. c #8CA950",
"a. c #91AF51",
"s. c #93B152",
"d. c #95B452",
"f. c #99B854",
"g. c #9BBB54",
"h. c #9BBC54",
"j. c #9DBD55",
"k. c #9FC055",
"l. c #9FC056",
"z. c #A1C256",
"x. c #A2C256",
"c. c #A2C356",
"v. c #A3C457",
"b. c #A5C657",
"n. c #A3C458",
"m. c #A6C858",
"M. c #A7C858",
"N. c #A6C958",
"B. c #A7C958",
"V. c #A6C859",
"C. c #A7C959",
"Z. c #A7CA58",
"A. c #A8C958",
"S. c #A8CA58",
"D. c #A9CA58",
"F. c #A8CB58",
"G. c #A9CB58",
"H. c #A8CA59",
"J. c #A9CA59",
"K. c #A8CB59",
"L. c #E8C170",
"P. c #819796",
"I. c #A8B5B2",
"U. c #172139",
/* pixels */
"U.U.U.U.U.U.U.U.U.U.U.U.U.U.U.U.U.U.U.U.U.U.U.U.U.U.U.U.U.U.U.U.U.U.U.U.U.U.U.U.U.U.U.U.U.U.U.U.U.U.U.U.U.U.U.U.U.U.U.U.U.U.U.U.",
"U.U.U.U.U.U.U.U.U.U.U.U.U.U.U.U.U.U.U.U.U.U.U.U.U.U.U.U.U.U.U.U.U.U.U.U.U.U.U.U.U.U.U.U.U.U.U.U.U.U.U.U.U.U.U.U.U.U.U.U.U.U.U.U.",
"U.U.U.U.U.U.U.U.U.U.U.U.U.U.U.U.U.U.U.U.U.U.U.U.U.U.U.U.U.U.U.U.U.U.U.U.U.U.U.U.U.U.U.U.U.U.U.U.U.U.U.U.U.U.U.U.U.U.U.U.U.U.U.U.",
"U.U.U.U.U.U.U.U.U.U.U.U.U.U.U.U.U.U.U.U.U.U.U.U.U.U.U.U.U.U.U.U.U.U.U.U.U.U.U.U.U.U.U.U.U.U.U.U.U.U.U.U.U.U.U.U.U.U.U.U.U.U.U.U.",
"U.U.U.U.U.U.U.U.U.U.U.U.U.U.U.U.U.U.U.U.U.U.U.U.U.U.U.U.U.U.U.U.U.U.U.U.U.U.U.U.U.U.U.U.U.U.U.U.U.U.U.U.U.U.U.U.U.U.U.U.U.U.U.U.",
"U.U.U.U.U.U.U.U.U.U.U.U.U.U.U.U.U.U.U.U.U.U.U.U.U.U.U.U.U.U.U.U.U.U.U.U.U.U.U.U.U.U.U.U.U.U.U.U.U.U.U.U.U.U.U.U.U.U.U.U.U.U.U.U.",
"U.U.U.U.U.U.U.U.U.U.U.U.U.U.U.U.U.U.U.U.U.U.U.U.U.U.U.U.U.U.U.U.U.U.U.U.U.U.U.U.U.U.U.U.U.U.U.U.U.U.U.U.U.U.U.U.U.U.U.U.U.U.U.U.",
"U.U.U.U.U.U.U.U.U.U.U.U.U.U.U.U.U.U.U.U.U.U.U.U.U.U.U.U.U.U.U.U.U.U.U.U.U.U.U.U.U.U.U.U.U.U.U.U.U.U.U.U.U.U.U.U.U.U.U.U.U.U.U.U.",
"U.U.U.U.U.U.U.U.U.U.U.U.U.U.U.U.U.U.U.U.U.U.U.U.U.U.U.U.U.U.U.U.U.U.U.U.U.U.U.U.U.U.U.U.U.U.U.U.U.U.U.U.U.U.U.U.U.U.U.U.U.U.U.U.",
"U.U.U.U.U.U.U.U.U.U.U.U.U.U.U.U.U.U.U.U.U.U.U.U.U.U.U.U.U.U.U.U.U.U.U.U.U.U.U.U.U.U.U.U.U.U.U.U.U.U.U.U.U.U.U.U.U.U.U.U.U.U.U.U.",
"U.U.U.U.U.U.U.U.U.U.U.U.U.U.U.U.U.U.U.U.U.U.U.U.U.U.U.U.U.U.U.U.U.U.U.U.U.U.U.U.U.U.U.U.U.U.U.U.U.U.U.U.U.U.U.U.U.U.U.U.U.U.U.U.",
"U.U.U.U.U.U.U.U.U.U.U.U.U.U.U.U.U.U.U.U.U.U.U.U.U.U.U.U.U.U.U.U.U.U.U.U.U.U.U.U.U.U.U.U.U.U.U.U.U.U.U.U.U.U.U.U.U.U.U.U.U.U.U.U.",
"U.U.U.U.U.U.U.U.U.U.U.U.U.U.U.U.U.U.U.U.U.U.U.U.U.U.S.S.U.U.U.U.S.S.S.S.U.U.U.U.U.U.U.U.U.U.U.U.U.U.U.U.U.U.U.U.U.U.U.U.U.U.U.U.",
"U.U.U.U.U.U.U.U.U.U.U.U.U.U.U.U.U.U.U.U.U.U.U.U.U.U.S.S.U.U.U.U.D.S.S.S.U.U.U.U.U.U.U.U.U.U.U.U.U.U.U.U.U.U.U.U.U.U.U.U.U.U.U.U.",
"U.U.U.U.U.U.U.U.U.U.U.U.U.U.U.U.U.U.U.U.U.U.U.U.0.0.S.S.0.0.S.S.S.S.S.D.8.8.U.U.U.U.U.U.U.U.U.U.U.U.U.U.U.U.U.U.U.U.U.U.U.U.U.U.",
"U.U.U.U.U.U.U.U.U.U.U.U.U.U.U.U.U.U.U.U.U.U.U.U.0.0.S.S.0.0.S.S.S.D.S.S.8.8.U.U.U.U.U.U.U.U.U.U.U.U.U.U.U.U.U.U.U.U.U.U.U.U.U.U.",
"U.U.U.U.U.U.U.U.U.U.U.U.U.U.U.U.U.U.U.U.U.U.S.S.D.D.F.F.S.D.S.D.H.H.H.S.S.S.0.0.H.H.S.S.U.U.U.U.U.U.U.U.U.U.U.U.U.U.U.U.U.U.U.U.",
"U.U.U.U.U.U.U.U.U.U.U.U.U.U.~ U.U.U.U.U.U.U.S.S.J.D.F.F.F.S.S.S.S.H.S.S.S.S.0.0.H.H.D.S.U.U.U.U.U.U.U.U.U.U.U.U.U.U.U.U.U.U.U.U.",
"U.U.U.U.U.U.U.U.U.U.U.U.U.U.~ i U.U.U.U.8.7.S.S.D.D.~ S.S.S.S.S.S.S.S.S.S.S.I S.S.F.I S.0.0.U.U.U.U.U.U.U.U.U.U.U.U.U.U.U.U.U.U.",
"U.U.U.U.U.U.U.U.U.U.U.U.U.U.U.~ i U.U.U.8.0.S.S.D.D.~ = S.S.S.S.S.S.q S.q I I q I I I S.0.0.I I I I I U.U.I I I U.U.U.U.U.U.U.U.",
"U.U.U.U.U.U.U.U.U.U.U.U.S.S.S.~ = 0.i 8.D.S.S.S.S.S.S.~ S.= S.D.H.H.q I I I q I I I q I I I I I I I I I I I I I W U.U.U.U.U.U.U.",
"U.U.U.U.U.U.U.U.U.U.U.U.S.D.S.S.~ i 8.4.H.H.S.S.D.S.S.~ i = S.S.H.I q I I q q I I I I I I I I I I I I I I I I I W U.U.U.U.U.U.U.",
"U.U.U.U.U.U.U.U.H.S.6.5.H.J.D.D.i = S.~ S.S.S.~ S.S.S.= = S.S.S.q I I I I I q I I I I I I I I I I I I q I q q I W U.U.U.U.U.U.U.",
"U.U.U.U.U.U.U.U.S.F.3.5.H.H.D.~ i S.S.i ~ S.H.= ~ S.= = S.S.S.I . I I I I I I I I I I I I I I I I I I W q 0.U.W W U.U.U.U.U.U.U.",
"U.U.U.U.U.U.6.6.S.S.S.F.8.0.H.i i = i = ~ S.S.S.i i = = S.S.H.W I I I W I I I I I I I I I I q I I I W W 0.0.0.8.H.W U.U.U.U.U.U.",
"U.U.U.U.U.U.6.6.S.S.S.S.0.0.H.H.i i = = = S.S.= = = D.S.H.S.H.I I I I W q I I I I I q I I I q q W W W W 0.0.0.0.H.H.U.U.U.U.U.U.",
"U.U.U.U.U.U.S.S.S.S.S.H.F.S.S.S.S.S.X.! i ~ i ! X.F.S.S.S.S.q I I I I I I q q q I I q I I q . . q W W I F.F.S.S.S.S.D.G.U.U.U.U.",
"U.U.U.U.U.U.S.S.S.S.S.S.S.S.S.S.  L.X.X.! = = ! X.F.S.S.S.S.  I I I I I I I q I I I I I q I . . f.I W I q F.S.S.S.S.D.D.U.U.U.U.",
"U.U.8.0.S.S.D.D.S.S.S.S.S.S.S.S.q.X.X.X.X.! ! X.X.D.S.S.    I I q   q W W I . I I I I W q . . w.w.i.I I I S.H.H.S.S.S.S.F.S.S.S.",
"U.U.0.0.S.S.G.D.S.S.S.S.S.S.S.S.S.X.X.X.X.X.X.X.X.X.S.S.  . I I q q W P.W . . I I W W W . . . Y Y -.r.I I V.H.H.D.S.S.S.S.S.S.S.",
"= ; J.S.S.S.S.S.S.F.S.S.S.S.S.S.H.H.X.X.X.X.X.q.q.q.X.H.I.j I.W q P.P.W q W W W I W W W 0 e C H H U ,.W q W D.D.S.S.S.S.S.S.S.S.",
"= = S.S.S.H.S.S.F.F.S.S.S.S.S.S.H.H.F.! X.X.X.X.q.q.q.q.q.q I P.P.I I q E L W B q W W I , 8 r D D P =.I I I A.D.S.S.S.S.S.S.S.S.",
"S.S.S.S.H.H.F.F.S.S.S.S.S.S.F.F.H.H.S.S.! X.X.X.X.X.X.X.X.X.X.[ _ l u u V 9 4 3 > q W I F L T >.>.y.d.k.b.S.H.H.S.S.S.D.D.S.0.8.",
"D.S.S.S.H.H.F.F.S.S.S.S.S.S.F.F.H.H.S.S.X.X.X.X.X.X.X.X.X.X.X.X._ / k k t 7 6 5 w N I I R ;.e.a.a.g.x.m.C.S.H.J.S.S.S.S.H.S.9.0.",
"S.S.S.H.0.9.S.H.S.S.S.S.S.S.S.H.S.S.S.S.X.X.X.X.X.X.X.X.X.X.X.X._ ( ^ ^ J Z S A G K I I u.s.h.c.x.m.Z.F.S.S.S.S.D.S.0.0.F.F.+.+.",
"F.S.H.J.0.0.S.S.S.S.S.S.S.S.H.S.S.F.S.X.X.X.X.X.X.X.X.X.X.X...| { ` ) ) ] O.o.T *.:.q W I W N.Z.B.S.F.F.S.S.S.S.S.H.8.0.F.S.+.+.",
"&.&.+.$.+.+.S.D.0.0.S.S.H.H.S.D.S.S.S.X.X.X.X.X.X.X.X.X.! X.X... .} ' g s.i.t.t.p.s.. q q q S.S.D.D.H.H.8.0.D.D.S.S.+.+.= = m m ",
"&.&.+.+.+.@.S.S.0.0.S.S.H.H.D.S.S.S.! X.X.X.! ! ! ! ! ! ! X.X.X.X...Q h v.l.j.j.l.n.B.S.S.S.S.S.D.D.S.H.0.0.D.D.S.K.+.+.= = m m ",
"@ @ @ @ @ @ S.F.#.#.0.0.S.S.S.S.S.F.! ! ! S.S.j j j D.D.! X.X.X.X.X.! j S.Z.M.M.C.S.H.K.S.S.S.S.0.0.9.9.+.+.0.0.S.S.b b = = = = ",
"@ @ @ @ @ @ S.S.+.+.6.0.S.S.S.S.S.F.! ! z.v.m.j j S.D.D.! ! X.X.X.! ! S.F.S.D.S.H.H.S.H.S.S.S.S.8.0.9.9.+.+.0.0.S.S.b b = = = = ",
"@ @ i i a a s p %.%.+.+.+.+.S.S.S.y F.F.S.S.D.= m.S.D.S.S.! ! ! ! ! j H.S.S.H.S.F.K.F.S.7.9.S.S.#.+.+.+.v M b m = = ; ; % % @ O ",
"@ @ i i a a p p %.%.@.+.+.#.S.S.S.  F.F.S.S.D.  S.F.S.S.S.y ! ! ! j H.H.D.S.S.S.S.S.F.F.9.9.S.S.+.+.@.+.b b b b = = ; ; * % @ @ ",
"= = = = = = i i a i p i i i S.S.8.<.S.S.S.S.S.D.S.S.H.S.m.y S.= S.S.S.S.D.S.D.D.S.D.F.F.+.+.0.0.+.#.b v b b b b ; - = = = = @ @ ",
"= = = = ; = p i i i i i d i S.S.8.1.S.S.S.S.S.S.S.S.S.S.  S.  S.S.S.H.S.D.S.D.D.D.S.F.F.+.+.0.0.+.+.b b b b b b = = = = ; = O @ ",
"$ $ = = - = = = i p i i = = +.+.8.0.m.S.S.D.0.0.S.S.S.D.S.S.D.D.D.D.H.H.S.S.0.0.0.0.S.S.9.0.b b M M = ; ; = = = @ @ @ @ # # @ @ ",
"$ $ = = = = = = i i i i = = +.+.0.0.S.S.m.S.0.0.S.S.S.S.S.S.D.J.D.D.V.H.S.S.0.0.0.0.S.S.0.0.b b M M = = = = = = @ @ @ @ # # @ @ ",
"= = = = = = = = = = ; = = = ; = & $ i f S.S.+.#.0.0.F.F.S.D.S.S.0.8.0.2.S.S.+.+.n n 8.8.b b b b b b @ @ = = = = @ @ = = @ @ = = ",
"= = = = = = = = = = = = = = ; ; $ $ i i S.S.+.+.0.0.F.F.S.S.S.S.0.0.0.0.S.S.+.+.n n 8.8.b b b b b b X @ = = = - @ @ = = @ @ = = ",
"$ $ = = = = = = = = # @ = = $ $ = = i i i i d i %.%.m.S.S.S.0.0.9.0.+.+.+.+.9.8.m m b b = = = = @ @ @ @ # @ + + # # = $ @ @ @ @ ",
"$ % - = = = = $ = = @ @ = = $ $ = - i i i a i p %.%.S.S.S.S.0.0.0.0.+.+.+.+.0.8.m m b b = = $ = @ @ @ @ @ @ + + # # = = X @ @ X ",
"U.U.U.U.; ; = ; @ @ @ @ = = = = = = $ $ i i i i i i v b b b v c z x @.#.b b = - = = = = : : = = = ; = = X @ @ @ @ O # # U.U.U.U.",
"U.U.U.U.; ; = = X @ # O = = = = = = $ $ i i i i i i b b b b v v b b $.&.b b = = = = = = * : = = = = = = @ # @ @ @ @ o # U.U.U.U.",
"U.U.U.U.U.U.U.U.% - X # 1 2 = = = = = = = = = = = = d i i i p p i i d d = = @ @ = = = = @ @ O # - = # # @ @ @ @ U.U.U.U.U.U.U.U.",
"U.U.U.U.U.U.U.U.- - @ @ 1 1 = = = = $ = = = = = = - i i d i p p i i d d = = @ @ = = = = @ @ @ @ = = # # @ @ @ # U.U.U.U.U.U.U.U.",
"U.U.U.U.U.U.U.U.U.U.U.U.= = 1 1 - - = = = = = = ; ; ; = i i p p = = = = @ @ @ @ @ @ X X X X @ @ @ @ @ @ U.U.U.U.U.U.U.U.U.U.U.U.",
"U.U.U.U.U.U.U.U.U.U.U.U.= = 1 1 - - = = = = = = ; ; = = i i p p - = = = @ @ X @ @ @ X X X X @ @ @ O @ @ U.U.U.U.U.U.U.U.U.U.U.U.",
"U.U.U.U.U.U.U.U.U.U.U.U.U.U.U.U.1 1 @ @ O O @ @ = = = = = = = = = = = = = = = = $ = X X @ @ # @ U.U.U.U.U.U.U.U.U.U.U.U.U.U.U.U.",
"U.U.U.U.U.U.U.U.U.U.U.U.U.U.U.U.< 2 @ @ O O @ @ = = $ = = = % $ = = = = = = = = = = X X @ @ @ @ U.U.U.U.U.U.U.U.U.U.U.U.U.U.U.U.",
"U.U.U.U.U.U.U.U.U.U.U.U.U.U.U.U.U.U.U.U.= = o + @ @ = = = = = = @ @ @ O @ @ @ @ @ @ @ @ U.U.U.U.U.U.U.U.U.U.U.U.U.U.U.U.U.U.U.U.",
"U.U.U.U.U.U.U.U.U.U.U.U.U.U.U.U.U.U.U.U.= = # o @ @ = = = = = = @ @ @ @ @ @ @ # @ @ @ O U.U.U.U.U.U.U.U.U.U.U.U.U.U.U.U.U.U.U.U.",
"U.U.U.U.U.U.U.U.U.U.U.U.U.U.U.U.U.U.U.U.U.U.U.U.@ @ 1 1 = = = = X @ @ @ O O @ @ U.U.U.U.U.U.U.U.U.U.U.U.U.U.U.U.U.U.U.U.U.U.U.U.",
"U.U.U.U.U.U.U.U.U.U.U.U.U.U.U.U.U.U.U.U.U.U.U.U.@ @ 1 1 = = = $ O @ @ @ O O @ @ U.U.U.U.U.U.U.U.U.U.U.U.U.U.U.U.U.U.U.U.U.U.U.U.",
"U.U.U.U.U.U.U.U.U.U.U.U.U.U.U.U.U.U.U.U.U.U.U.U.U.U.U.U.1 1 = - @ @ # # U.U.U.U.U.U.U.U.U.U.U.U.U.U.U.U.U.U.U.U.U.U.U.U.U.U.U.U.",
"U.U.U.U.U.U.U.U.U.U.U.U.U.U.U.U.U.U.U.U.U.U.U.U.U.U.U.U.1 1 - - @ @ # # U.U.U.U.U.U.U.U.U.U.U.U.U.U.U.U.U.U.U.U.U.U.U.U.U.U.U.U."
};
