/* XPM */
static char *result[] = {
/* columns rows colors chars-per-pixel */
"64 64 122 2 ",
"   c #10141E",
".  c #10141F",
"X  c #11141F",
"o  c #151D28",
"O  c #141C29",
"+  c #241526",
"@  c #251526",
"#  c #241427",
"$  c #251427",
"%  c #241527",
"&  c #251527",
"*  c #341C26",
"=  c #351C26",
"-  c #341D26",
";  c #351D26",
":  c #341C27",
">  c #351C27",
",  c #341D27",
"<  c #351D27",
"1  c #162038",
"2  c #172038",
"3  c #172039",
"4  c #4D2B32",
"5  c #602C2C",
"6  c #612C2C",
"7  c #602D2C",
"8  c #612D2C",
"9  c #602C2D",
"0  c #602D2D",
"q  c #752438",
"w  c #752538",
"e  c #752439",
"r  c #24562E",
"t  c #25562E",
"y  c #24572E",
"u  c #25572E",
"i  c #24562F",
"p  c #25562F",
"a  c #3E4D36",
"s  c #3E4E36",
"d  c #445438",
"f  c #4A5B39",
"g  c #53663D",
"h  c #55683E",
"j  c #56683E",
"k  c #596C3E",
"l  c #677E44",
"z  c #A43030",
"x  c #A53030",
"c  c #A43130",
"v  c #A53130",
"b  c #A53031",
"n  c #884A2A",
"m  c #894B2A",
"M  c #884A2B",
"N  c #884B2B",
"B  c #894B2B",
"V  c #CF563C",
"C  c #CE573C",
"Z  c #CF573C",
"A  c #CE563D",
"S  c #CF563D",
"D  c #CE573D",
"F  c #CF573D",
"G  c #468232",
"H  c #478232",
"J  c #468332",
"K  c #478332",
"L  c #468233",
"P  c #468333",
"I  c #698043",
"U  c #6D8445",
"Y  c #6D8545",
"T  c #6D8645",
"R  c #74A642",
"E  c #75A642",
"W  c #74A742",
"Q  c #75A742",
"!  c #74A643",
"~  c #75A643",
"^  c #74A743",
"/  c #75A743",
"(  c #DA863E",
")  c #DB863E",
"_  c #DA873E",
"`  c #DA863F",
"'  c #809B4C",
"]  c #839E4C",
"[  c #839E4D",
"{  c #849E4C",
"}  c #86A24D",
"|  c #87A34D",
" . c #89A64E",
".. c #89A64F",
"X. c #8CA950",
"o. c #8CAA50",
"O. c #95B452",
"+. c #95B453",
"@. c #9BBA54",
"#. c #9BBB55",
"$. c #A0C156",
"%. c #A1C156",
"&. c #A0C157",
"*. c #A3C457",
"=. c #A4C456",
"-. c #A4C556",
";. c #A6C758",
":. c #A7C758",
">. c #A6C759",
",. c #A6C858",
"<. c #A7C858",
"1. c #A8CA58",
"2. c #A9CA58",
"3. c #A8CB58",
"4. c #A9CB58",
"5. c #A8CA59",
"6. c #A9CA59",
"7. c #A8CB59",
"8. c #E8C070",
"9. c #E8C170",
"0. c #E8C171",
"q. c #172139",
/* pixels */
"q.q.q.q.q.q.q.q.q.q.q.q.q.q.q.q.q.q.q.q.q.q.q.q.q.q.q.q.q.q.q.q.q.q.q.q.q.q.q.q.q.q.q.q.q.q.q.q.q.q.q.q.q.q.q.q.q.q.q.q.q.q.q.q.",
"q.q.q.q.q.q.q.q.q.q.q.q.q.q.q.q.q.q.q.q.q.q.q.q.q.q.q.q.q.q.q.q.q.q.q.q.q.q.q.q.q.q.q.q.q.q.q.q.q.q.q.q.q.q.q.q.q.q.q.q.q.q.q.q.",
"q.q.q.q.q.q.q.q.q.q.q.q.q.q.q.q.q.q.q.q.q.q.q.q.q.q.q.q.q.q.q.q.q.q.q.q.q.q.q.q.q.q.q.q.q.q.q.q.q.q.q.q.q.q.q.q.q.q.q.q.q.q.q.q.",
"q.q.q.q.q.q.q.q.q.q.q.q.q.q.q.q.q.q.q.q.q.q.q.q.q.q.q.q.q.q.q.q.q.q.q.q.q.q.q.q.q.q.q.q.q.q.q.q.q.q.q.q.q.q.q.q.q.q.q.q.q.q.q.q.",
"q.q.q.q.q.q.q.q.q.q.q.q.q.q.q.q.q.q.q.q.q.q.q.q.q.q.q.q.q.q.q.q.q.q.q.q.q.q.q.q.q.q.q.q.q.5 q.q.q.q.q.q.q.q.q.q.q.q.q.q.q.q.q.q.",
"q.q.q.q.q.q.q.q.q.q.q.q.q.q.q.q.q.q.q.q.q.q.q.q.q.q.q.q.q.q.q.q.q.q.q.q.q.q.q.q.q.q.q.q.N N q.q.q.q.q.q.q.q.q.q.q.q.q.q.q.q.q.q.",
"q.q.q.q.q.q.q.q.q.q.q.q.q.q.q.q.q.q.q.q.q.q.q.q.q.q.q.q.q.q.q.q.q.q.q.q.q.q.q.q.q.q.q.N n q.q.q.q.q.q.q.q.q.q.q.q.q.q.q.q.q.q.q.",
"q.q.q.q.q.q.q.q.q.q.q.q.q.q.q.q.q.q.q.q.q.q.q.q.q.q.q.q.q.q.q.q.q.q.q.q.q.q.q.q.q.N q.5 5 q.q.q.q.q.q.q.q.q.q.q.q.q.q.q.q.q.q.q.",
"q.q.q.q.q.q.q.q.q.q.q.q.q.q.q.q.q.q.q.q.q.q.q.q.q.q.q.q.q.q.M q.q.q.q.q.q.q.q.q.q.5 N 5 q.q.q.q.q.q.q.q.q.q.q.q.q.q.q.q.q.q.q.q.",
"q.q.q.q.q.q.q.q.q.q.q.q.q.q.q.q.q.q.q.q.q.q.q.q.q.q.q.q.q.9 m q.q.q.q.q.q.q.q.7 q.q.5 7 q.q.q.q.q.q.q.q.q.q.q.q.q.q.q.q.q.q.q.q.",
"q.q.q.q.q.q.q.q.q.q.q.q.q.q.q.q.q.q.q.q.q.q.q.q.q.q.q.q.q.q.M N q.q.N q.q.q.q.q.5 q.q.5 5 q.q.q.q.q.q.q.q.q.q.q.q.q.q.q.q.q.q.q.",
"q.q.q.q.q.q.q.q.q.q.q.q.q.q.q.q.q.q.q.q.q.q.q.q.q.q.q.q.q.q.q.5 q.N 5 q.7 q.q.B 5 N N 5 : q.q.q.q.q.q.q.q.q.q.q.q.q.q.q.q.q.q.q.",
"q.q.q.q.q.q.q.q.q.q.q.q.q.q.q.q.q.q.q.q.q.q.q.q.q.q.1.1.q.q.q.5 5 5 1.5 q.q.q.9 5 : : : q.q.q.q.q.q.q.q.q.q.q.q.q.q.q.q.q.q.q.q.",
"q.q.q.q.q.q.q.q.q.q.q.q.q.q.q.q.q.q.q.q.q.q.q.q.q.q.1.1.q.q.q.q.5 5 1.5 q.q.5 5 Z q.q.q.q.q.q.q.q.q.q.q.q.q.q.q.q.q.q.q.q.q.q.q.",
"q.q.q.q.q.q.q.q.q.q.q.q.q.q.q.q.q.q.q.q.q.q.q.q./ / 1.1./ / 1.1.: 9 5 N 5 5 : 9 x q.q.q.q.q.q.q.q.q.q.q.q.q.q.q.q.q.q.q.q.q.q.q.",
"q.q.q.q.q.q.q.q.q.q.q.q.q.q.q.q.q.q.q.q.q.q.q.q./ / 1.1./ / 1.1.1.* : : Z : ( ( Z D q.q.q.q.q.q.q.q.q.q.q.q.q.q.q.q.q.q.q.q.q.q.",
"q.q.q.q.q.q.q.q.q.q.q.q.q.q.q.q.q.q.q.q.q.( 1.1.2.2.3.3.1.2.1.2.5.5.5.C b C ) ( ( ( ( 1.q.q.q.q.q.q.q.q.q.q.q.q.q.q.q.q.q.q.q.q.",
"q.q.q.q.q.q.q.q.q.q.q.q.q.q.q.q.q.q.q.q.q.Z ( Z 6.2.3.3.3.1.1.1.1.5.1.Z V Z ( _ ( (   1.q.q.q.q.q.q.q.q.q.q.q.q.q.q.q.q.q.q.q.q.",
"q.q.q.q.q.q.q.q.q.q.q.q.q.q.q.q.q.q.q.q.~ x Z Z Z Z ( ( ( 1.1.1.1.1.1.1.Z Z Z o ` ( ( 0./ / q.q.q.q.q.q.q.q.q.q.q.q.q.q.q.q.q.q.",
"q.q.q.q.q.q.q.q.q.q.q.q.q.q.q.q.q.q.q.q.~ / x Z Z Z V ) ( ( _ ) ( 1.1.1.F Z Z F Z ( ( ( 9./ q.q.q.q.q.q.q.q.q.q.q.q.q.q.q.q.q.q.",
"q.q.q.q.q.q.q.q.q.q.q.q.1.1.1.1./ / ~ ~ 2.1.1.x Z Z Z Z Z Z ( _ ( ) ( A Z C F Z Z Z 9.9.. 1.^ / 3.1.5.1.q.q.q.q.q.q.q.q.q.q.q.q.",
"q.q.q.q.q.q.q.q.q.q.q.q.1.2.1.1./ / ~ E 5.5.1.x Z Z D Z Z V Z Z Z Z F V S V Z ` ( 1.1.1.1.1./ / 1.1.5.1.q.q.q.q.q.q.q.q.q.q.q.q.",
"q.q.q.q.q.q.q.q.5.1.Q W 5.6.2.2.1.1.1.1.1.1.1.x Z Z F F Z Z Z Z Z F A Z Z V ( 9.8.1.1.1.1.1.1.1.1.1.1.1./ / q.q.q.q.q.q.q.q.q.q.",
"q.q.q.q.q.q.q.q.1.3.R W 5.5.2.6.1.1.1.1.1.1.5.x Z V Z Z Z Z Z Z F Z Z V C ( ( 9.9.1.1.1.1.1.1.1.1.1.1.1./ / q.q.q.q.q.q.q.q.q.q.",
"q.q.q.q.q.q.Q Q 1.1.1.3.~ / 5.5.2.1.1.2.1.1.1.x F Z Z Z Z Z Z Z Z V Z Z ( ( 9.9.9.5.5.1.1.1.1.1.1.1.1.1./ / / ~ 5.5.q.q.q.q.q.q.",
"q.q.q.q.q.q.Q Q 1.1.1.1./ / 5.5.1.1.1.1.1.1.1.b F Z Z Z Z Z Z Z C S F Z ( 9.9.9.1.5.1.1.1.1.1.1.1.1.1.1./ / / / 5.5.q.q.q.q.q.q.",
"q.q.q.q.q.q.1.1.1.1.1.5.3.1.1.1.1.1.1.1.1.1.1.x x Z Z x x Z Z Z V Z Z Z ( 9.9.1.2.2.1.1.1.1.3.3.5.5.2.2.3.3.1.1.1.1.2.4.q.q.q.q.",
"q.q.q.q.q.q.1.1.1.1.1.1.1.1.1.1.1.1.1.1.1.1.1.1.x v b x q x C Z Z Z F V _ x 1.1.2.2.1.1.3.1.3.3.5.5.2.2.3.3.1.1.1.1.2.2.q.q.q.q.",
"q.q.~ / 1.1.2.2.1.1.1.1.1.1.1.1.1.1.1.1.1.1.1.2.c x 1.1.w 1.1.Z Z Z Z Z x q 1.1.2.5.1.1.1.1.1.4.1.1.1.1.1.1.5.5.1.1.1.1.3.1.1.1.",
"q.q./ / 1.1.4.2.1.1.1.1.1.1.1.1.1.1.1.1.1.1.1.1.2.x *.%.: ;.1.Z Z Z Z x q 1.5.1.5.5.1.1.1.1.1.1.1.5.2.1.1.5.5.5.2.1.1.1.1.1.1.1.",
": , 6.1.1.1.1.1.1.3.1.1.1.1.1.1.5.5.3.3.3.3.1.1.;.4 ..' X +.$.:.Z Z x q q 6.1.1.1.1.1.5.5.5.2.2.1.1.1.1.1.1.2.2.1.1.1.1.1.1.1.1.",
": : 1.1.1.5.1.1.3.3.1.1.1.1.1.1.5.5.3.3.3.4.1.1.-.o I g . U ] O.x x 3.q q 5.1.1.1.3.1.1.5.5.1.2.1.1.1.1.5.1.2.2.1.1.1.1.1.1.1.1.",
"1.1.1.1.5.5.3.3.1.1.1.1.1.1.3.3.5.5.1.1.5.1.1.1.=.o l f s d h U x z $.;.e 4.1.1.1.1.1.1.1.6.1.1.1.1.1.1.1.1.5.5.1.1.1.2.2.1./ ~ ",
"2.1.1.1.5.5.3.3.1.1.1.1.1.1.3.3.5.5.1.1.1.5.1.1.;.@.} Y j d a d h z ] O.: <.1.1.3.1.1.1.1.1.1.1.1.1.1.1.5.1.5.6.1.1.1.1.5.1.^ / ",
"1.1.1.5./ ^ 1.5.1.1.1.1.1.1.1.5.1.1.1.1.1.1.1.1.6.>.$.O.[ U h d a 4 h T . @.;.1.3.3.1.5.5.5.3.3.1.1.3.3.1.1.1.1.2.1./ / 3.3.G G ",
"3.1.5.6./ / 1.1.1.1.1.1.1.1.5.1.1.3.1.1.1.2.1.1.6.6.1.;.$.O.{ U h O s f . o.=.1.3.3.1.1.5.5.3.3.1.1.3.3.1.1.1.1.1.5.~ / 3.1.G G ",
"P P G K G G 1.2./ / 1.1.5.5.1.2.1.1.1.1.1.1.1.1.1.1.1.1.1.;.&.+.] o k g I X.=.1.5.5.1.1.1.1.1.1.2.2.5.5.~ / 2.2.1.1.G G : : u u ",
"P P G G G H 1.1./ / 1.1.5.5.2.1.1.1.1.1.1.1.1.1.1.1.1.1.1.1.5.>.$.O.| '  .#.;.1.5.5.1.1.1.1.1.1.2.2.1.5./ / 2.2.1.7.G G : : u u ",
"% % % % % % 1.3.J J / / 1.1.1.1.1.3.1.1.5.1.1.2.1.1.2.2.1.2.1.1.1.:.*.%.*.,.2.2.5.1.5.7.1.1.1.1./ / ^ ^ G G / / 1.1.t t : : : : ",
"% % % % % % 1.1.G G Q / 1.1.1.1.1.3.1.1.1.1.1.1.1.1.2.2.1.1.1.1.1.1.1.1.3.1.2.1.5.5.1.5.1.1.1.1.~ / ^ ^ G G / / 1.1.t t : : : : ",
"% % 5 5 7 7 8 6 L L G G G G 1.1.1.6.3.3.1.1.2.4.1.1.2.1.1.5.1.1.1.1.5.5.1.1.5.1.3.7.3.1.! ^ 1.1.J G G G r p t u : : , , = = % # ",
"% % 5 5 7 7 6 6 L L H G G J 1.1.1.1.3.3.1.1.2.2.1.3.1.1.1.1.1.1.1.4.5.5.2.1.1.1.1.1.3.3.^ ^ 1.1.G G H G t t t t : : , , ; = % % ",
": : : : : : 5 5 7 5 6 5 5 5 1.1.~ ~ 1.1.1.1.1.2.1.1.5.1.1.1.1.1.1.1.1.1.2.1.2.2.1.2.3.3.G G / / G J t r t t t t , > : : : : % % ",
": : : : , : 6 5 5 5 5 5 9 5 1.1.~ ~ 1.1.1.1.1.1.1.1.1.1.1.1.1.1.1.1.5.1.2.1.2.2.2.1.3.3.G G / / G G t t t t t t : : : : , : # % ",
"* * : : > : : : 5 6 5 5 : : G G ~ / 1.1.1.2./ / 1.1.1.2.1.1.2.2.2.2.5.5.1.1./ / / / 1.1.^ / t t p p : , , : : : % % % % & & % % ",
"* * : : : : : : 5 5 5 5 : : G G / / 1.1.1.1./ / 1.1.1.1.1.1.2.6.2.2.5.5.1.1./ / / / 1.1./ / t t p p : : : : : : % % % % & & % % ",
": : : : : : : : : : , : : : , : - * 5 0 1.1.G J / / 3.3.1.2.1.1./ ~ / / 1.1.G G y y ~ ~ t t t t t t % % : : : : % % : : % % : : ",
": : : : : : : : : : : : : : , , * * 5 5 1.1.G G / / 3.3.1.1.1.1./ / / / 1.1.G G y y ~ ~ t t t t t t + % : : : > % % : : % % : : ",
"* * : : : : : : : : & % : : * * : : 5 5 5 5 9 5 L L 1.1.1.1./ / ^ / G G G G ^ ~ u u t t : : : : % % % % & % $ $ & & : * % % % % ",
"* = > : : : : * : : % % : : * * : > 5 5 5 7 5 6 L L 1.1.1.1./ / / / G G G G / ~ u u t t : : * : % % % % % % $ $ & & : : + % % + ",
"q.q.q.q., , : , % % % % : : : : : : * * 5 5 5 5 5 5 r t t t r i r t K J t t : > : : : : < < : : : , : : + % % % % # & & q.q.q.q.",
"q.q.q.q., , : : + % & # : : : : : : * * 5 5 5 5 5 5 t t t t r r t t K P t t : : : : : : ; < : : : : : : % & % % % % @ & q.q.q.q.",
"q.q.q.q.q.q.q.q.= > + & 2 3 : : : : : : : : : : : : 9 5 5 5 6 6 5 5 9 9 : : % % : : : : % % # & > : & & % % % % q.q.q.q.q.q.q.q.",
"q.q.q.q.q.q.q.q.> > % % 2 2 : : : : * : : : : : : > 5 5 9 5 6 6 5 5 9 9 : : % % : : : : % % % % : : & & % % % & q.q.q.q.q.q.q.q.",
"q.q.q.q.q.q.q.q.q.q.q.q.: : 2 2 > > : : : : : : , , , : 5 5 6 6 : : : : % % % % % % + + + + % % % % % % q.q.q.q.q.q.q.q.q.q.q.q.",
"q.q.q.q.q.q.q.q.q.q.q.q.: : 2 2 > > : : : : : : , , : : 5 5 6 6 > : : : % % + % % % + + + + % % % # % % q.q.q.q.q.q.q.q.q.q.q.q.",
"q.q.q.q.q.q.q.q.q.q.q.q.q.q.q.q.2 2 % % # # % % : : : : : : : : : : : : : : : : * : + + % % & % q.q.q.q.q.q.q.q.q.q.q.q.q.q.q.q.",
"q.q.q.q.q.q.q.q.q.q.q.q.q.q.q.q.1 3 % % # # % % : : * : : : = * : : : : : : : : : : + + % % % % q.q.q.q.q.q.q.q.q.q.q.q.q.q.q.q.",
"q.q.q.q.q.q.q.q.q.q.q.q.q.q.q.q.q.q.q.q.: : @ $ % % : : : : : : % % % # % % % % % % % % q.q.q.q.q.q.q.q.q.q.q.q.q.q.q.q.q.q.q.q.",
"q.q.q.q.q.q.q.q.q.q.q.q.q.q.q.q.q.q.q.q.: : & @ % % : : : : : : % % % % % % % & % % % # q.q.q.q.q.q.q.q.q.q.q.q.q.q.q.q.q.q.q.q.",
"q.q.q.q.q.q.q.q.q.q.q.q.q.q.q.q.q.q.q.q.q.q.q.q.% % 2 2 : : : : + % % % # # % % q.q.q.q.q.q.q.q.q.q.q.q.q.q.q.q.q.q.q.q.q.q.q.q.",
"q.q.q.q.q.q.q.q.q.q.q.q.q.q.q.q.q.q.q.q.q.q.q.q.% % 2 2 : : : * # % % % # # % % q.q.q.q.q.q.q.q.q.q.q.q.q.q.q.q.q.q.q.q.q.q.q.q.",
"q.q.q.q.q.q.q.q.q.q.q.q.q.q.q.q.q.q.q.q.q.q.q.q.q.q.q.q.2 2 : > % % & & q.q.q.q.q.q.q.q.q.q.q.q.q.q.q.q.q.q.q.q.q.q.q.q.q.q.q.q.",
"q.q.q.q.q.q.q.q.q.q.q.q.q.q.q.q.q.q.q.q.q.q.q.q.q.q.q.q.2 2 > > % % & & q.q.q.q.q.q.q.q.q.q.q.q.q.q.q.q.q.q.q.q.q.q.q.q.q.q.q.q."
};
