/* XPM */
static char *result[] = {
/* columns rows colors chars-per-pixel */
"64 64 125 2 ",
"   c #10141E",
".  c #10141F",
"X  c #11141F",
"o  c #151D28",
"O  c #141C29",
"+  c #161E2D",
"@  c #161E30",
"#  c #241426",
"$  c #241526",
"%  c #251526",
"&  c #241427",
"*  c #251427",
"=  c #241527",
"-  c #251527",
";  c #341C26",
":  c #351C26",
">  c #341D26",
",  c #351D26",
"<  c #341C27",
"1  c #351C27",
"2  c #341D27",
"3  c #351D27",
"4  c #17272B",
"5  c #18252A",
"6  c #172B2B",
"7  c #172A2C",
"8  c #182A2A",
"9  c #182A2B",
"0  c #1A2D2A",
"q  c #182D2C",
"w  c #192D2C",
"e  c #182F2C",
"r  c #192F2C",
"t  c #192F2D",
"y  c #1C322B",
"u  c #1C352B",
"i  c #1E372B",
"p  c #19312C",
"a  c #19322D",
"s  c #19332D",
"d  c #1C362C",
"f  c #172036",
"g  c #172037",
"h  c #172038",
"j  c #253E2C",
"k  c #4C2A32",
"l  c #4D2A32",
"z  c #4C2B32",
"x  c #4D2B32",
"c  c #4D2A33",
"v  c #4C2B33",
"b  c #4D2B33",
"n  c #602C2C",
"m  c #602D2C",
"M  c #602C2D",
"N  c #752438",
"B  c #752538",
"V  c #752439",
"C  c #663632",
"Z  c #1F402C",
"A  c #21472D",
"S  c #224A2D",
"D  c #2B492D",
"F  c #25532E",
"G  c #25542E",
"H  c #25552E",
"J  c #25562E",
"K  c #33592E",
"L  c #304330",
"P  c #304430",
"I  c #334931",
"U  c #344931",
"Y  c #344932",
"T  c #3F5935",
"R  c #3A6830",
"E  c #4F6F38",
"W  c #457F32",
"Q  c #7A4840",
"!  c #7B4840",
"~  c #7A4841",
"^  c #7B4841",
"/  c #7A4941",
"(  c #7B4941",
")  c #A43030",
"_  c #A53030",
"`  c #A43130",
"'  c #A53130",
"]  c #A53031",
"[  c #884A2A",
"{  c #894B2A",
"}  c #884A2B",
"|  c #884B2B",
" . c #894B2B",
".. c #A04837",
"X. c #B75039",
"o. c #BE772B",
"O. c #C5553B",
"+. c #CC563C",
"@. c #CF563C",
"#. c #CE573C",
"$. c #CF573C",
"%. c #CE563D",
"&. c #CF563D",
"*. c #CE573D",
"=. c #CF573D",
"-. c #AD7757",
";. c #458032",
":. c #468232",
">. c #478232",
",. c #468332",
"<. c #468233",
"1. c #5D843C",
"2. c #69953F",
"3. c #70A042",
"4. c #75A742",
"5. c #75A743",
"6. c #DA863E",
"7. c #DB863E",
"8. c #DA873E",
"9. c #DA863F",
"0. c #DE9E41",
"q. c #E8C070",
"w. c #E8C170",
"e. c #E8C171",
"r. c #172139",
/* pixels */
"r.r.r.r.r.r.r.r.r.r.r.r.r.r.r.r.r.r.r.r.r.r.r.r.r.r.r.r.r.r.r.r.r.r.r.r.r.r.r.r.r.r.r.r.r.r.r.r.r.r.r.r.r.r.r.r.r.r.r.r.r.r.r.r.",
"r.r.r.r.r.r.r.r.r.r.r.r.r.r.r.r.r.r.r.r.r.r.r.r.r.r.r.r.r.r.r.r.r.r.r.r.r.r.r.r.r.r.r.r.r.r.r.r.r.r.r.r.r.r.r.r.r.r.r.r.r.r.r.r.",
"r.r.r.r.r.r.r.r.r.r.r.r.r.r.r.r.r.r.r.r.r.r.r.r.r.r.r.r.r.r.r.r.r.r.r.r.r.r.r.r.r.r.r.r.r.r.r.r.r.r.r.r.r.r.r.r.r.r.r.r.r.r.r.r.",
"r.r.r.r.r.r.r.r.r.r.r.r.r.r.r.r.r.r.r.r.r.r.r.r.r.r.r.r.r.r.r.r.r.r.r.r.r.r.r.r.r.r.r.r.r.r.r.r.r.r.r.r.r.r.r.r.r.r.r.r.r.r.r.r.",
"r.r.r.r.r.r.r.r.r.r.r.r.r.r.r.r.r.r.r.r.r.r.r.r.r.r.r.r.r.r.r.r.r.r.r.r.r.r.r.r.r.r.r.r.r.n r.r.r.r.r.r.r.r.r.r.r.r.r.r.r.r.r.r.",
"r.r.r.r.r.r.r.r.r.r.r.r.r.r.r.r.r.r.r.r.r.r.r.r.r.r.r.r.r.r.r.r.r.r.o.o.r.r.r.r.r.r.r.r.| | r.r.r.r.r.r.r.r.r.r.r.r.r.r.r.r.r.r.",
"r.r.r.r.r.r.r.r.r.r.r.r.r.r.r.r.r.r.r.r.r.r.r.r.r.r.r.r.r.r.r.r.r.r.o.o.r.r.r.r.r.r.r.| [ r.r.r.r.r.r.r.r.r.r.r.r.r.r.r.r.r.r.r.",
"r.r.r.r.r.r.r.r.r.r.r.r.r.r.r.r.r.r.r.r.r.r.r.r.r.r.r.r.r.r.r.r.0.0.N N o.o.r.r.r.| r.n n r.r.r.r.r.r.r.r.r.r.r.r.r.r.r.r.r.r.r.",
"r.r.r.r.r.r.r.r.r.r.r.r.r.r.r.r.r.r.r.r.r.r.r.r.r.r.r.r.r.r.} r.0.0.N N o.o.r.r.r.n | n r.r.r.r.r.r.r.r.r.r.r.r.r.r.r.r.r.r.r.r.",
"r.r.r.r.r.r.r.r.r.r.r.r.r.r.r.r.r.r.r.r.r.r.r.r.r.r.r.r.r.M { 0.0.0._ _ $.$.o.m r.r.n m r.r.r.r.r.r.r.r.r.r.r.r.r.r.r.r.r.r.r.r.",
"r.r.r.r.r.r.r.r.r.r.r.r.r.r.r.r.r.r.r.r.r.r.r.r.r.r.r.r.r.r.} | 0.0.| _ $.$.o.o.n r.r.n n r.r.r.r.r.r.r.r.r.r.r.r.r.r.r.r.r.r.r.",
"r.r.r.r.r.r.r.r.r.r.r.r.r.r.r.r.r.r.r.r.r.r.r.r.r.r.r.r.0.0.0.n 0.| n 0.m _ 0. .n | | n < r.r.r.r.r.r.r.r.r.r.r.r.r.r.r.r.r.r.r.",
"r.r.r.r.r.r.r.r.r.r.r.r.r.r.r.r.r.r.r.r.r.r.r.r.r.r.r.r.0.0.0.n n n 0.n _ _ 0.M n < < < r.r.r.r.r.r.r.r.r.r.r.r.r.r.r.r.r.r.r.r.",
"r.r.r.r.r.r.r.r.r.r.r.r.r.r.r.r.r.r.r.r.r.r.r.r.r.r.r.r.0.0.0.0.n n 0.n 0.0.n n $.r.r.r.r.r.r.r.r.r.r.r.r.r.r.r.r.r.r.r.r.r.r.r.",
"r.r.r.r.r.r.r.r.r.r.r.r.r.r.r.r.r.r.r.r.r.r.r.r.r.r.r.r.0.0.0.0.< M n | n n < M _ r.r.r.r.r.r.r.r.r.r.r.r.r.r.r.r.r.r.r.r.r.r.r.",
"r.r.r.r.r.r.r.r.r.r.r.r.r.r.r.r.r.r.:.:.r.r.r.r.r.r.r.r.o.o.0.0.o.; < < $.< 6.6.$.*.r.r.:.:.r.r.r.r.r.r.r.r.r.r.r.r.r.r.r.r.r.r.",
"r.r.r.r.r.r.r.r.r.r.r.r.r.r.r.r.r.r.r.r.:.6.h h r.r.r.r.J J o.o.o.o.J #.] #.7.6.6.6.6.:.h h r.r.r.r.0.0.0.0.0.0.0.0.r.r.r.r.r.r.",
"r.r.r.r.r.r.r.r.r.r.r.r.r.r.r.r.r.r.r.r.:.$.6.$.r.r.r.r.J J o.o.o.o.J $.@.$.6.8.6.6.  :.h h r.r.r.r.0.0.0.0.0.0.0.0.r.r.r.r.r.r.",
"r.r.r.r.r.r.r.r.r.r.r.r.r.r.r.r.J J :.:.h _ $.$.$.$.6.6.6.J | | J J h h $.$.$.o 9.6.6.e.r.r.r.r.0.0.0.0.0.0.N N 0.0.0.0.r.r.r.r.",
"r.r.r.r.r.r.r.r.r.r.r.r.r.r.r.r.J J :.:.h h _ $.$.$.@.7.6.6.8.7.6.J h h =.$.$.=.$.6.6.6.w.r.r.r.0.0.0.0.0.0.N N 0.0.0.0.r.r.r.r.",
"r.r.r.r.r.r.r.r._ _ _ _ $.$._ _ J J :.:.h h J _ $.$.$.$.$.$.6.8.6.7.6.%.$.#.=.$.$.$.w.w.. s r.r.0.0.0.0._ _ $.$._ _ 0.0.r.r.r.r.",
"r.r.r.r.r.r.r.r._ _ _ _ $.$._ _ J J :.:.h h J _ $.$.*.$.$.@.$.$.$.$.=.@.&.@.$.9.6.s s s s s r.r.0.0.0.0._ _ $.$._ _ 0.0.r.r.r.r.",
"r.r.r.r.$.$._ _ _ _ _ _ _ _ _ _ _ _ $.$.s s s _ $.$.=.=.$.$.$.$.$.=.%.$.$.@.6.w.q.:.:.:.s s J J o.o.0.0.N N N N N N 0.0.r.r.r.r.",
"r.r.r.r.$.$._ _ _ _ _ _ _ _ _ _ _ _ $.$.s s s _ $.@.$.$.$.$.$.$.=.$.$.@.#.6.6.w.w.:.:.:.s s J J o.o.0.0.N N N N N N 0.0.r.r.r.r.",
"r.r.r.r._ _ $.$._ _ N N N N _ _ $.$._ _ s s s _ =.$.$.$.$.$.$.$.$.@.$.$.6.6.w.w.w.s s s 5.5.5.5.o.o.| | 0.0.0.0.o.o.| | r.r.r.r.",
"r.r.r.r._ _ $.$._ _ N N N N _ _ $.$._ _ s s s ] =.$.$.$.$.$.$.$.#.&.=.$.6.w.w.w.s s s s 5.5.5.5.o.o.| | 0.0.0.0.o.o.| | r.r.r.r.",
"r.r.5.5.s s $.$.N N 0.0.0.0.N N $.$.s s 5.5.J _ _ $.$._ _ $.$.$.@.$.$.$.6.w.w.6.J J s s 5.5.5.5.| | h h h h h h h h h h r.r.r.r.",
"r.r.5.5.s s $.$.N N 0.0.0.0.N N $.$.s s 5.5.J J _ ' ] _ N _ #.$.$.$.=.@.8._ 6.6.J J s s 5.5.5.5.| | h h h h h h h h h h r.r.r.r.",
"s s 5.5.s s _ _ $.$.$.$.$.$.$.$._ _ s s 5.5.J J ` _ J J B s 6.$.$.$.$.$._ N $.$.s s s s s s :.:.h h J J :.:.5.5.5.5.5.5.5.5.r.r.",
"s s 5.5.s s _ _ $.$.$.$.$.$.$.$._ _ s s 5.5.J J :._ G F < s 6.$.$.$.$._ N _ $.$.s s s s s s :.:.h h J J :.:.5.5.5.5.5.5.5.5.r.r.",
"5.5.h h h h s s _ _ _ _ _ _ _ _ s s h h 5.5.s s H x e w X 2.O.+.$.$._ N N _ _ _ 5.5.s s s s s s s s s s J J J J 5.5.5.5.:.:.< < ",
"5.5.h h h h s s _ _ _ _ _ _ _ _ s s h h 5.5.s s G o 8 4 . E ..X._ _ $.N N _ _ _ 5.5.s s s s s s s s s s J J J J 5.5.5.5.:.:.< < ",
"h h s s s s h h h h J J 5.5.s s h h s s s s s s s o 7 5 P I T E _ ) s s V $.5.5.5.5.5.5.s s s s s s :.:.J J h h h h h h h h < < ",
"h h s s s s h h h h J J 5.5.s s h h s s s s s s s a r 6 T Y L U C ) q p < +.5.5.5.5.5.5.s s s s s s :.:.J J h h h h h h h h 2 < ",
":.:.^ ^ s s s s s s h h h h h h s s s s :.:.s s s s s p 1.E D j + x d Z . g ;.:.5.5.5.5.s s s s :.:.h h h h -.-.^ ^ x x b b = = ",
":.:.~ ~ s s s s s s h h h h h h s s s s :.:.s s s s s s 3.2.R K @ O 0 y . f W :.5.5.5.5.s s s s :.:.h h h h -.-.^ ^ x b b b = = ",
"~ ~ x x : ; < < s s -.-.~ Q s s s s s s h h :.:.s s s s h h g f q o i u 9 t h h h h h h s s x x :.:.-.-.:.:.~ ~ b x z z = = ; ; ",
"~ ~ x x ; ; < < s s -.-.~ / s s s s s s h h :.:.s s s s h h h h s p S A e a h h h h h h s s x x :.:.-.-.:.:.~ ~ x x z z = = ; ; ",
"x x x x < > < < 1 1 ~ ~ <.<.Q Q s s s s :.:.:.:.s s s s s s s s s s h h s s s s s s ~ / x x 5.5.J J >.:.c b x x < < = = < < ; < ",
"x x b x < < < < 1 1 ~ ~ <.<.Q Q s s s s :.:.:.:.s s s s s s s s s s h h s s s s s s ~ ~ x x 5.5.J J :.,.b b x x < ; = = < < 1 < ",
"~ ~ x z x x < < < < ! ! b b x x < < s s :.:.J J J J s s ! ^ :.:.,.,.5.4.s s ~ ~ ^ ( z z ~ ~ b b b b l l x x < < < < ; ; < < ; ; ",
"~ ~ x x x x < < < < ~ ~ b b x x < < s s :.:.J J J J s s ^ ^ :.:.,.,.5.5.s s ~ ~ ( ( z k Q ~ b b b b l l x l < < < < ; ; < < : ; ",
"~ ~ b x x l ; ; < 1 k l x x x c < < < < h h h h h h ~ ^ ~ ~ :.,.:.:.~ ~ / / ~ ~ x x = = = - = = < < < < < < < < < < ; ; < < = $ ",
"~ ~ x b x x ; ; < < l l x b x x < 1 < < h h h h h h ~ ~ ~ ~ :.:.:.:.~ ^ / / ~ ~ x b = = - $ = - < < < < < < < ; < < < < ; < & = ",
"x x l c x x < < ~ ~ x x x x z b < < < ; ~ ~ x x ~ ^ ~ ~ ~ ~ >.:.~ ~ ~ ~ x x x x x x 2 2 $ = 2 2 < < < < < 1 = = = = = = > 2 $ $ ",
"x z l l x x < < ~ Q x x x z x x < 2 < 1 ~ ~ x x ~ ~ ~ ~ ~ ~ :.:.~ ~ ~ ~ x x x x x x < 2 = = 2 2 < < < < < ; = = = = = = 2 3 $ $ ",
"x x x x x x < 2 ~ ~ x x x x x x < < / / x x z z x z z z ~ ~ Q Q :.:.x x < < = = < < < < = = - * = = $ % = = & & = = = = = = = = ",
"x x x x x x < < ~ / x x x x b x < < / / x x z z x x z z / ~ Q Q :.:.x x < < * = < < 1 < = = - - = = $ $ = = & & = = = = = = = = ",
"x x l l x x x x = & x x x x x x < < ~ ~ x x x x x x x x x x x x < < = = < < < < ; < = * & = = = ; ; < < < < < < < < < ; ; ; - $ ",
"x x l l x x z x # & x x x b x x < < ~ Q x x x x x z z x x x x x < < = = < 2 < < < < = = = = = = ; ; < < < < < < 2 < < < ; ; = = ",
"r.r.r.r.x x , > = & x x k k b b x x = = ~ ~ x x x x x x z z = = x x ; ; < < = = < < < 1 < < < < < < < < 1 1 $ = < < - - r.r.r.r.",
"r.r.r.r.x x ; ; = = x x k k b b x x $ $ ^ Q x x x b x x z z = = x x ; ; < < = = < < 1 < < < < < < < < < 1 1 = = < ; - - r.r.r.r.",
"r.r.r.r.r.r.r.r.< < x x x x x x c b = = ~ ~ b b x x x x x x < < < < ; < - $ ; ; < < < 2 < < ; ; 2 2 < < < 2 = = r.r.r.r.r.r.r.r.",
"r.r.r.r.r.r.r.r.< < x x x z x x b b = = ~ ~ v b x x x x x z < < < < < < - - ; ; < ; < < < < ; ; 2 3 < < ; < $ = r.r.r.r.r.r.r.r.",
"r.r.r.r.r.r.r.r.r.r.r.r.l x x x < < < < Q Q z x b b b x x z : ; < < < < = = 1 < < < < < 1 1 = = = - * - r.r.r.r.r.r.r.r.r.r.r.r.",
"r.r.r.r.r.r.r.r.r.r.r.r.l x x x < < ; < Q Q x x b b x x x x ; ; < < < < = = < 2 < < < ; 1 1 = = = = * # r.r.r.r.r.r.r.r.r.r.r.r.",
"r.r.r.r.r.r.r.r.r.r.r.r.r.r.r.r.< < < < x x l x x x x x < 2 l l < < < < < < ; ; < < < < < ; = = r.r.r.r.r.r.r.r.r.r.r.r.r.r.r.r.",
"r.r.r.r.r.r.r.r.r.r.r.r.r.r.r.r.< < < < x x x x x x x x < < l l < > < < < 2 ; ; < 1 < < 2 2 = - r.r.r.r.r.r.r.r.r.r.r.r.r.r.r.r.",
"r.r.r.r.r.r.r.r.r.r.r.r.r.r.r.r.r.r.r.r.< < x x x b x x 2 < x l 3 1 < < = = < 2 < < < 1 r.r.r.r.r.r.r.r.r.r.r.r.r.r.r.r.r.r.r.r.",
"r.r.r.r.r.r.r.r.r.r.r.r.r.r.r.r.r.r.r.r.< < x x l x x x 1 < z x 1 < < < = = 2 < < < < < r.r.r.r.r.r.r.r.r.r.r.r.r.r.r.r.r.r.r.r.",
"r.r.r.r.r.r.r.r.r.r.r.r.r.r.r.r.r.r.r.r.r.r.r.r.l l x x < < x x 2 2 = = < < < ; r.r.r.r.r.r.r.r.r.r.r.r.r.r.r.r.r.r.r.r.r.r.r.r.",
"r.r.r.r.r.r.r.r.r.r.r.r.r.r.r.r.r.r.r.r.r.r.r.r.l l x x < < l x < < = = < < < 2 r.r.r.r.r.r.r.r.r.r.r.r.r.r.r.r.r.r.r.r.r.r.r.r.",
"r.r.r.r.r.r.r.r.r.r.r.r.r.r.r.r.r.r.r.r.r.r.r.r.r.r.r.r.< < < 1 c l & = r.r.r.r.r.r.r.r.r.r.r.r.r.r.r.r.r.r.r.r.r.r.r.r.r.r.r.r.",
"r.r.r.r.r.r.r.r.r.r.r.r.r.r.r.r.r.r.r.r.r.r.r.r.r.r.r.r.< < 2 < c l = = r.r.r.r.r.r.r.r.r.r.r.r.r.r.r.r.r.r.r.r.r.r.r.r.r.r.r.r."
};
