/* XPM */
static char *result[] = {
/* columns rows colors chars-per-pixel */
"64 64 122 2 ",
"   c #10141F",
".  c #151D28",
"X  c #241526",
"o  c #251526",
"O  c #241427",
"+  c #251427",
"@  c #241527",
"#  c #251527",
"$  c #341C26",
"%  c #351C26",
"&  c #341D26",
"*  c #351D26",
"=  c #341C27",
"-  c #351C27",
";  c #341D27",
":  c #351D27",
">  c #162038",
",  c #172038",
"<  c #172039",
"1  c #4D2B32",
"2  c #602C2C",
"3  c #612C2C",
"4  c #602D2C",
"5  c #612D2C",
"6  c #602C2D",
"7  c #602D2D",
"8  c #742438",
"9  c #752438",
"0  c #752538",
"q  c #24562E",
"w  c #25562E",
"e  c #24572E",
"r  c #25572E",
"t  c #24562F",
"y  c #25562F",
"u  c #3D4D36",
"i  c #3E4D36",
"p  c #3E4E36",
"a  c #3E4E37",
"s  c #445438",
"d  c #455438",
"f  c #4A5B39",
"g  c #53663D",
"h  c #55683E",
"j  c #55693E",
"k  c #56683E",
"l  c #586C3E",
"z  c #677E44",
"x  c #A43030",
"c  c #A53030",
"v  c #A53130",
"b  c #A53031",
"n  c #884B2A",
"m  c #884B2B",
"M  c #894B2B",
"N  c #CE563C",
"B  c #CF563C",
"V  c #CE573C",
"C  c #CF573C",
"Z  c #CF563D",
"A  c #CE573D",
"S  c #CF573D",
"D  c #468232",
"F  c #478232",
"G  c #468332",
"H  c #478332",
"J  c #468233",
"K  c #468333",
"L  c #698043",
"P  c #698044",
"I  c #6D8444",
"U  c #6D8445",
"Y  c #6D8545",
"T  c #6D8645",
"R  c #74A642",
"E  c #75A642",
"W  c #74A742",
"Q  c #75A742",
"!  c #74A643",
"~  c #75A643",
"^  c #74A743",
"/  c #75A743",
"(  c #DA863E",
")  c #DB863E",
"_  c #DA873E",
"`  c #DA863F",
"'  c #819B4B",
"]  c #809B4C",
"[  c #839E4C",
"{  c #839E4D",
"}  c #849E4C",
"|  c #86A24D",
" . c #87A34D",
".. c #89A64E",
"X. c #89A64F",
"o. c #8CAA50",
"O. c #95B452",
"+. c #95B453",
"@. c #9BBA54",
"#. c #9BBB54",
"$. c #9BBA55",
"%. c #A0C156",
"&. c #A1C156",
"*. c #A0C157",
"=. c #A3C457",
"-. c #A4C456",
";. c #A4C556",
":. c #A6C758",
">. c #A7C758",
",. c #A6C759",
"<. c #A6C858",
"1. c #A7C858",
"2. c #A8CA58",
"3. c #A9CA58",
"4. c #A8CB58",
"5. c #A9CB58",
"6. c #A8CA59",
"7. c #A9CA59",
"8. c #A8CB59",
"9. c #E8C170",
"0. c #E9C171",
"q. c #172139",
/* pixels */
"q.q.q.q.q.q.q.q.q.q.q.q.q.q.q.q.q.q.q.q.q.q.q.q.q.q.q.q.q.q.q.q.q.q.q.q.q.q.q.q.q.q.q.q.q.q.q.q.q.q.q.q.q.q.q.q.q.q.q.q.q.q.q.q.",
"q.q.q.q.q.q.q.q.q.q.q.q.q.q.q.q.q.q.q.q.q.q.q.q.q.q.q.q.q.q.q.q.q.q.q.q.q.q.q.q.q.q.q.q.q.q.q.q.q.q.q.q.q.q.q.q.q.q.q.q.q.q.q.q.",
"q.q.q.q.q.q.q.q.q.q.q.q.q.q.q.q.q.q.q.q.q.q.q.q.q.q.q.q.q.q.q.q.q.q.q.q.q.q.q.q.q.q.q.q.q.q.q.q.q.q.q.q.q.q.q.q.q.q.q.q.q.q.q.q.",
"q.q.q.q.q.q.q.q.q.q.q.q.q.q.q.q.q.q.q.q.q.q.q.q.q.q.q.q.q.q.q.q.q.q.q.q.q.q.q.q.q.q.q.q.q.q.q.q.q.q.q.q.q.q.q.q.q.q.q.q.q.q.q.q.",
"q.q.q.q.q.q.q.q.q.q.q.q.q.q.q.q.q.q.q.q.q.q.q.q.q.q.q.q.q.q.q.q.q.q.q.q.q.q.q.q.q.q.q.q.q.q.q.q.q.q.q.q.q.q.q.q.q.q.q.q.q.q.q.q.",
"q.q.q.q.q.q.q.q.q.q.q.q.q.q.q.q.q.q.q.q.q.q.q.q.q.q.q.q.q.q.q.q.q.q.q.q.q.q.q.q.q.q.q.q.q.q.q.q.q.q.q.q.q.q.q.q.q.q.q.q.q.q.q.q.",
"q.q.q.q.q.q.q.q.q.q.q.q.q.q.q.q.q.q.q.q.q.q.q.q.q.q.q.q.q.q.q.q.q.q.q.q.q.q.q.q.q.q.q.q.q.q.q.q.q.q.q.q.q.q.q.q.q.q.q.q.q.q.q.q.",
"q.q.q.q.q.q.q.q.q.q.q.q.q.q.q.q.q.q.q.q.q.q.q.q.q.q.q.q.q.q.q.q.q.q.q.q.q.q.q.q.q.q.q.q.q.q.q.q.q.q.q.q.q.q.q.q.q.q.q.q.q.q.q.q.",
"q.q.q.q.q.q.q.q.q.q.q.q.q.q.q.q.q.q.q.q.q.q.q.q.q.q.q.q.q.q.q.q.q.q.q.q.q.q.q.q.q.q.q.q.q.q.q.q.q.q.q.q.q.q.q.q.q.q.q.q.q.q.q.q.",
"q.q.q.q.q.q.q.q.q.q.q.q.q.q.q.q.q.q.q.q.q.q.q.q.q.q.q.q.q.q.q.q.q.q.q.q.q.q.q.q.q.q.q.q.q.q.q.q.q.q.q.q.q.q.q.q.q.q.q.q.q.q.q.q.",
"q.q.q.q.q.q.q.q.q.q.q.q.q.q.q.q.q.q.q.q.q.q.q.q.q.q.q.q.q.q.q.q.q.q.q.q.q.q.q.q.q.q.q.q.q.q.q.q.q.q.q.q.q.q.q.q.q.q.q.q.q.q.q.q.",
"q.q.q.q.q.q.q.q.q.q.q.q.q.q.q.q.q.q.q.q.q.q.q.q.q.q.q.q.q.q.q.q.q.q.q.q.q.q.q.q.q.q.q.q.q.q.q.q.q.q.q.q.q.q.q.q.q.q.q.q.q.q.q.q.",
"q.q.q.q.q.q.q.q.q.q.q.q.q.q.q.q.q.q.q.q.q.q.q.q.q.q.2.2.q.q.q.q.2.2.2.2.q.q.q.q.q.q.q.q.q.q.q.q.q.q.q.q.q.q.q.q.q.q.q.q.q.q.q.q.",
"q.q.q.q.q.q.q.q.q.q.q.q.q.q.q.q.q.q.q.q.q.q.q.q.q.q.2.2.q.q.q.q.3.2.2.2.q.q.q.q.q.q.q.q.q.q.q.q.q.q.q.q.q.q.q.q.q.q.q.q.q.q.q.q.",
"q.q.q.q.q.q.q.q.q.q.q.q.q.q.q.q.q.q.q.q.q.( q.q./ / 2.2./ / 2.2.2.2.2.3.~ ~ q.q.q.q.q.q.q.q.q.m = q.q.q.q.q.q.q.q.q.q.q.q.q.q.q.",
"q.q.q.q.q.q.q.q.q.q.q.q.q.q.q.q.q.q.q.q.q.( ( q./ / 2.2./ / 2.2.2.3.2.2.~ = q.q.q.q.q.q.q.q.m m q.q.q.q.q.q.q.q.q.q.q.q.q.q.q.q.",
"q.q.q.q.q.q.q.q.q.q.q.q.q.q.q.q.q.q.q.q.q.C _ C 3.3.4.4.2.3.2.3.6.6.6.2.M 2./ / 6.6.2.2.m q.2 2 q.q.q.q.q.q.q.q.q.q.q.q.q.q.q.q.",
"q.q.q.q.q.q.q.q.q.q.q.q.q.q.q.q.q.q.q.q.q.C C ` C 3.4.4.4.2.2.2.2.6.2.2.m 2./ / 6.6.3.2.2 m 6 q.q.q.q.q.q.q.q.q.q.q.q.q.q.q.q.q.",
"q.q.q.q.q.q.q.q.q.q.q.q.q.q.q.q.q.q.q.q.~ ! c C C C ( ( ( 2.2.2.2.2.2 2.2 M 2.2.2.4.m 2./ 2 2 q.q.q.q.q.q.q.q.q.q.q.q.q.q.q.q.q.",
"q.q.q.q.q.q.q.q.q.q.q.q.q.q.q.q.q.q.q.q.~ / 2.C C C C _ ( ( ( ( ) 2.2.2 2 m 2.n 2.m 2 = m = 2 q.q.q.q.q.q.q.q.q.q.q.q.q.q.q.q.q.",
"q.q.q.q.q.q.q.q.q.q.q.q.2.2.2.2./ / ~ ~ 3.2.2.c C C V C C B C ( ( ( ` 2 4 M = 2 3 = = = = = = / 4.2.6.2.q.q.q.q.q.q.q.q.q.q.q.q.",
"q.q.q.q.q.q.q.q.q.q.q.q.2.3.2.2./ / ~ E 6.6.2.c C C C C C C C C C C ( ( = = = = 2 = 2.2.= = / / 2.2.6.2.q.q.q.q.q.q.q.q.q.q.q.q.",
"q.q.q.q.q.q.q.q.6.2.Q W 6.7.3.3.2.2.2.2.2.2.2.c C C C C C C C B C C C ( c = $ c ( c 2.2.2.2.2.2.2.2.2.2./ / q.q.q.q.q.q.q.q.q.q.",
"q.q.q.q.q.q.q.q.2.4.R W 6.6.3.7.2.2.2.2.2.2.6.c C C C C C C C C C Z C C c C C ( ( ( c 2.2.2.2.2.2.2.2.2./ / q.q.q.q.q.q.q.q.q.q.",
"q.q.q.q.q.q.Q Q 2.2.2.4.~ / 6.6.3.2.2.3.2.2.2.c C C C C C C C C C C C C C c C ( ( (   2.2.2.2.2.2.2.2.2./ / / ~ 6.6.q.q.q.q.q.q.",
"q.q.q.q.q.q.Q Q 2.2.2.2./ / 6.6.2.2.2.2.2.2.2.c C C C C C V C C C V C C C C C   ( ( ( c 2.2.2.2.2.2.2.2./ / / / 6.6.q.q.q.q.q.q.",
"q.q.q.q.q.q.2.2.2.2.2.6.4.2.2.2.2.2.2.2.2.2.2.x c C V c c C C C C S N C C C C C V ( ( ( 2.2.4.4.6.6.3.3.4.4.2.2.2.2.3.5.q.q.q.q.",
"q.q.q.q.q.q.2.2.2.2.2.2.2.2.2.2.2.2.2.2.2.2.2.2.c c c b 9 c C C C S C C C C C c C C ( ( 0.2.4.4.6.6.3.3.4.4.2.2.2.2.3.3.q.q.q.q.",
"q.q.~ / 2.2.3.3.2.2.2.2.2.2.2.2.2.2.2.2.2.2.2.3.c v 2.2.0 2.2.C C C C V C ( ( 2.3.C 9.  9.2.2.5.2.2.2.2.2.2.6.6.2.2.2.2.4.2.2.2.",
"q.q./ / 2.2.5.3.2.2.2.2.2.2.2.2.2.2.2.2.2.2.2.2.3.c =.&.= :.2.c C C C C ( ( 6.2.6.6.2.2.2.2.2.2.2.6.3.2.2.6.6.6.3.2.2.2.2.2.2.2.",
"= ; 7.2.2.2.2.2.2.4.2.2.2.2.2.2.6.6.4.4.4.4.2.2.:.1 X.]   +.%.>.C A C c 8 7.2.2.2.2.2.6.6.6.3.3.2.2.2.2.2.2.3.3.2.2.2.2.2.2.2.2.",
"= = 2.2.2.6.2.2.4.4.2.2.2.2.2.2.6.6.4.4.4.5.2.2.;.. P g   U [ O.C C c 9 9 6.2.2.2.4.2.2.6.6.2.3.2.2.2.2.6.2.3.3.2.2.2.2.2.2.2.2.",
"2.2.2.2.6.6.4.4.2.2.2.2.2.2.4.4.6.6.2.2.6.2.2.2.-.. z f a d h U v c %.9 9 5.2.2.2.2.2.2.2.7.2.2.2.2.2.2.2.2.6.6.2.2.2.3.3.2./ ~ ",
"3.2.2.2.6.6.4.4.2.2.2.2.2.2.4.4.6.6.2.2.2.6.2.2.:.@.| Y k s u s j c [ O.= 1.2.2.4.2.2.2.2.2.2.2.2.2.2.2.6.2.6.7.2.2.2.2.6.2.^ / ",
"2.2.2.6./ ^ 2.6.2.2.2.2.2.2.2.6.2.2.2.2.2.2.2.2.7.,.%.O.{ I h s i 1 h T   #.:.2.4.4.2.6.6.6.4.4.2.2.4.4.2.2.2.2.3.2./ / 4.4.D D ",
"4.2.6.7./ / 2.2.2.2.2.2.2.2.6.2.2.4.2.2.2.3.2.2.7.7.2.:.%.O.} U h . p f   o.-.2.4.4.2.2.6.6.4.4.2.2.4.4.2.2.2.2.2.6.~ / 4.2.D D ",
"K K D H D D 2.3./ / 2.2.6.6.2.3.2.2.2.2.2.2.2.2.2.2.2.2.2.:.*.+.[ . l g L o.-.2.6.6.2.2.2.2.2.2.3.3.6.6.~ / 3.3.2.2.D D = = r r ",
"K K D D D F 2.2./ / 2.2.6.6.3.2.2.2.2.2.2.2.2.2.2.2.2.2.2.2.6.,.%.O. .' ..$.:.2.6.6.2.2.2.2.2.2.3.3.2.6./ / 3.3.2.8.D D = = r r ",
"@ @ @ @ @ @ 2.4.G G / / 2.2.2.2.2.4.2.2.6.2.2.3.2.2.3.3.2.3.2.2.2.>.=.&.=.<.3.3.6.2.6.8.2.2.2.2./ / ^ ^ D D / / 2.2.w w = = = = ",
"@ @ @ @ @ @ 2.2.D D Q / 2.2.2.2.2.4.2.2.2.2.2.2.2.2.3.3.2.2.2.2.2.2.2.2.4.2.3.2.6.6.2.6.2.2.2.2.~ / ^ ^ D D / / 2.2.w w = = = = ",
"@ @ 2 2 4 4 5 3 J J D D D D 2.2.2.7.4.4.2.2.3.5.2.2.3.2.2.6.2.2.2.2.6.6.2.2.6.2.4.8.4.2.! ^ 2.2.G D D D q y w r = = ; ; % % @ O ",
"@ @ 2 2 4 4 3 3 J J F D D G 2.2.2.2.4.4.2.2.3.3.2.4.2.2.2.2.2.2.2.5.6.6.3.2.2.2.2.2.4.4.^ ^ 2.2.D D F D w w w w = = ; ; * % @ @ ",
"= = = = = = 2 2 4 2 3 2 2 2 2.2.~ ~ 2.2.2.2.2.3.2.2.6.2.2.2.2.2.2.2.2.2.3.2.3.3.2.3.4.4.D D / / D G w q w w w w ; - = = = = @ @ ",
"= = = = ; = 3 2 2 2 2 2 6 2 2.2.~ ~ 2.2.2.2.2.2.2.2.2.2.2.2.2.2.2.2.6.2.3.2.3.3.3.2.4.4.D D / / D D w w w w w w = = = = ; = O @ ",
"$ $ = = - = = = 2 3 2 2 = = D D ~ / 2.2.2.3./ / 2.2.2.3.2.2.3.3.3.3.6.6.2.2./ / / / 2.2.^ / w w y y = ; ; = = = @ @ @ @ # # @ @ ",
"$ $ = = = = = = 2 2 2 2 = = D D / / 2.2.2.2./ / 2.2.2.2.2.2.3.7.3.3.6.6.2.2./ / / / 2.2./ / w w y y = = = = = = @ @ @ @ # # @ @ ",
"= = = = = = = = = = ; = = = ; = & $ 2 7 2.2.D G / / 4.4.2.3.2.2./ ~ / / 2.2.D D e e ~ ~ w w w w w w @ @ = = = = @ @ = = @ @ = = ",
"= = = = = = = = = = = = = = ; ; $ $ 2 2 2.2.D D / / 4.4.2.2.2.2./ / / / 2.2.D D e e ~ ~ w w w w w w X @ = = = - @ @ = = @ @ = = ",
"$ $ = = = = = = = = # @ = = $ $ = = 2 2 2 2 6 2 J J 2.2.2.2./ / ^ / D D D D ^ ~ r r w w = = = = @ @ @ @ # @ + + # # = $ @ @ @ @ ",
"$ % - = = = = $ = = @ @ = = $ $ = - 2 2 2 4 2 3 J J 2.2.2.2./ / / / D D D D / ~ r r w w = = $ = @ @ @ @ @ @ + + # # = = X @ @ X ",
"q.q.q.q.; ; = ; @ @ @ @ = = = = = = $ $ 2 2 2 2 2 2 q w w w q t q w H G w w = - = = = = : : = = = ; = = X @ @ @ @ O # # q.q.q.q.",
"q.q.q.q.; ; = = X @ # O = = = = = = $ $ 2 2 2 2 2 2 w w w w q q w w H K w w = = = = = = * : = = = = = = @ # @ @ @ @ o # q.q.q.q.",
"q.q.q.q.q.q.q.q.% - X # , < = = = = = = = = = = = = 6 2 2 2 3 3 2 2 6 6 = = @ @ = = = = @ @ O # - = # # @ @ @ @ q.q.q.q.q.q.q.q.",
"q.q.q.q.q.q.q.q.- - @ @ , , = = = = $ = = = = = = - 2 2 6 2 3 3 2 2 6 6 = = @ @ = = = = @ @ @ @ = = # # @ @ @ # q.q.q.q.q.q.q.q.",
"q.q.q.q.q.q.q.q.q.q.q.q.= = , , - - = = = = = = ; ; ; = 2 2 3 3 = = = = @ @ @ @ @ @ X X X X @ @ @ @ @ @ q.q.q.q.q.q.q.q.q.q.q.q.",
"q.q.q.q.q.q.q.q.q.q.q.q.= = , , - - = = = = = = ; ; = = 2 2 3 3 - = = = @ @ X @ @ @ X X X X @ @ @ O @ @ q.q.q.q.q.q.q.q.q.q.q.q.",
"q.q.q.q.q.q.q.q.q.q.q.q.q.q.q.q., , @ @ O O @ @ = = = = = = = = = = = = = = = = $ = X X @ @ # @ q.q.q.q.q.q.q.q.q.q.q.q.q.q.q.q.",
"q.q.q.q.q.q.q.q.q.q.q.q.q.q.q.q.> < @ @ O O @ @ = = $ = = = % $ = = = = = = = = = = X X @ @ @ @ q.q.q.q.q.q.q.q.q.q.q.q.q.q.q.q.",
"q.q.q.q.q.q.q.q.q.q.q.q.q.q.q.q.q.q.q.q.= = o + @ @ = = = = = = @ @ @ O @ @ @ @ @ @ @ @ q.q.q.q.q.q.q.q.q.q.q.q.q.q.q.q.q.q.q.q.",
"q.q.q.q.q.q.q.q.q.q.q.q.q.q.q.q.q.q.q.q.= = # o @ @ = = = = = = @ @ @ @ @ @ @ # @ @ @ O q.q.q.q.q.q.q.q.q.q.q.q.q.q.q.q.q.q.q.q.",
"q.q.q.q.q.q.q.q.q.q.q.q.q.q.q.q.q.q.q.q.q.q.q.q.@ @ , , = = = = X @ @ @ O O @ @ q.q.q.q.q.q.q.q.q.q.q.q.q.q.q.q.q.q.q.q.q.q.q.q.",
"q.q.q.q.q.q.q.q.q.q.q.q.q.q.q.q.q.q.q.q.q.q.q.q.@ @ , , = = = $ O @ @ @ O O @ @ q.q.q.q.q.q.q.q.q.q.q.q.q.q.q.q.q.q.q.q.q.q.q.q.",
"q.q.q.q.q.q.q.q.q.q.q.q.q.q.q.q.q.q.q.q.q.q.q.q.q.q.q.q., , = - @ @ # # q.q.q.q.q.q.q.q.q.q.q.q.q.q.q.q.q.q.q.q.q.q.q.q.q.q.q.q.",
"q.q.q.q.q.q.q.q.q.q.q.q.q.q.q.q.q.q.q.q.q.q.q.q.q.q.q.q., , - - @ @ # # q.q.q.q.q.q.q.q.q.q.q.q.q.q.q.q.q.q.q.q.q.q.q.q.q.q.q.q."
};
