/* XPM */
static char *result[] = {
/* columns rows colors chars-per-pixel */
"64 64 75 1 ",
"  c #141C28",
". c #151C28",
"X c #141D28",
"o c #151D28",
"O c #162038",
"+ c #172038",
"@ c #162138",
"# c #172138",
"$ c #162039",
"% c #172039",
"& c #172139",
"* c #202E36",
"= c #202F36",
"- c #202E37",
"; c #212E37",
": c #202F37",
"> c #243A5E",
", c #253A5E",
"< c #243B5E",
"1 c #253B5E",
"2 c #243A5F",
"3 c #253A5F",
"4 c #253B5F",
"5 c #384A50",
"6 c #394A50",
"7 c #394B50",
"8 c #384A51",
"9 c #394A51",
"0 c #394B51",
"q c #567276",
"w c #577276",
"e c #577376",
"r c #567277",
"t c #577277",
"y c #567377",
"u c #577377",
"i c #3C5E8A",
"p c #3C5F8A",
"a c #3D5F8A",
"s c #3C5E8B",
"d c #3D5E8B",
"f c #3C5F8B",
"g c #4F8EBA",
"h c #4E8FBA",
"j c #4F8FBA",
"k c #4F8EBB",
"l c #4E8FBB",
"z c #4F8FBB",
"x c #72BED2",
"c c #73BED2",
"v c #72BED3",
"b c #73BED3",
"n c #73BFD3",
"m c #809696",
"M c #819696",
"N c #809796",
"B c #819796",
"V c #819697",
"C c #809797",
"Z c #819797",
"A c #A8B4B2",
"S c #A9B4B2",
"D c #A8B5B2",
"F c #A9B5B2",
"G c #A8B4B3",
"H c #A9B4B3",
"J c #A8B5B3",
"K c #A9B5B3",
"L c #A4DCDA",
"P c #A4DDDA",
"I c #A4DCDB",
"U c #A5DCDB",
"Y c #A4DDDB",
"T c #A5DDDB",
"R c #172139",
/* pixels */
"RRRRRRRRRRRRRRRRRRRRRRRRRRRRRRRRDDDDMMNBttttRRRRRRRRRRRRRRRRRRRR",
"RRRRRRRRRRRRRRRRRRRRRRRRRRRRRRRRDDFDMMBZtttuRRRRRRRRRRRRRRRRRRRR",
"RRRRRRRRRRRRRRRRRRRRRRRRRRRRRRDDDJJJBBBMBBttRRRRRRRRRRRRRRRRRRRR",
"RRRRRRRRRRRRRRRRRRRRRRRRRRRRRRFDDDJGBBBBBBttRRRRRRRRRRRRRRRRRRRR",
"RRRRRRRRRRRRRRRRRRRRRRRRRR-:DDADDDBBZZBBBBttRRRRRRRRRRRRRRRRRRRR",
"RRRRRRRRRRRRRRRRRRRRRRRRRR--DDDDDDBBBBBBBBrtRRRRRRRRRRRRRRRRRRRR",
"RRRRRRRRRRRRRRRRRRRRDDtrRR;;DDDDBBMMMMNNBBwwtwRRRRRRRRRRRRRRRRRR",
"RRRRRRRRRRRRRRRRRRRRJDttRR;;DDDDBBVMMMNNBBwwtwRRRRRRRRRRRRRRRRRR",
"RRRRRRRRRRRRRRRRRRDDBBtttt--DDMMNBBBBBBBBZCCewwwRRRRRRRRRRRRRRRR",
"RRRRRRRRRRRRRRRRRRDDBZtttt--DDMMBBBBZBBBBBCCwwwtRRRRRRRRRRRRRRRR",
"RRRRRRRRRRRRRRRRBBJJBNtttt66JDDABBBZBBBBBBVVttttRRRRRRRRRRRRRRRR",
"RRRRRRRRRRRRRRRRBBJJBNtttw66DDDDBBBBBBBBZBVVttttRRRRRRRRRRRRRRRR",
"RRRRRRRRRRRRRRRRAAFDZVttttttDDDDDDBmBMNNBBBBBBttRRRRRRRRRRRRRRRR",
"RRRRRRRRRRRRRRRRAADDZZtttttwDDDDDDBBMMmNZBBBZBttRRRRRRRRRRRRRRRR",
"RRRRRRRRRRRRRRRRDDDDBBttutDDADAADDBBBBBBBZBBBBttRRRRRRRRRRRRRRRR",
"RRRRRRRRRRRRRRRRDDDDBBttwtDDDDAADDBBBBBBBBNBBBttRRRRRRRRRRRRRRRR",
"RRRRRRRRRRRRRR--FFmBBBrt77DDHJDDDDBBBBBBBBBBBBBBRRRRRRRRRRRRRRRR",
"RRRRRRRRRRRRRR--FFBBBBtt07DDJJDDDDBBBZBBBNBBNNBBRRRRRRRRRRRRRRRR",
"RRRRRRRRRRRRRRDDDDBBNB5666DDDDJJKJBMNCBBMMNBBB::RRRRRRRRRRRRRRRR",
"RRRRRRRRRRRRRRDDDDBBBB5566GDDDJJFFMMNBBNMMBBBB::RRRRRRRRRRRRRRRR",
"RRRRRRRRRRRR66DFDDBCBNBB55ttAGDDAABBBBBBBBZB6666O+RRRRRRRRRRRRRR",
"RRRRRRRRRRRR66DDDDBBBBBB55ttAADDAABBBBBBBBBB6667++RRRRRRRRRRRRRR",
"RRRRRRRRRRRR66DDDDBBNNZZ66NBwwttDDBBBBBBZVtr6666++RRRRRRRRRRRRRR",
"RRRRRRRRRRRR66DDDDBBNNZZ66BBqwttDDBBBBBBVZtt7665++RRRRRRRRRRRRRR",
"RRRRRRRRRRRRDDDANNmMNNBB66BBtwttyurrwqtttttw66++;---RRRRRRRRRRRR",
"RRRRRRRRRRRRDDDDNNMMNNBB66BBttttuurrwwtttttr66++----RRRRRRRRRRRR",
"RRRRRRRRRR66DDAABBBBBBNCBB88uuttttttwwttttwt##--=:66+ORRRRRRRRRR",
"RRRRRRRRRR66SDAABBBBBBmNMB88uettttttwwtttttt##--::66++RRRRRRRRRR",
"RRRRRRRR99DFDDKJBBNNZZBZZB7666twttttttuutttw--;;6685++RRRRRRRRRR",
"RRRRRRRR99ADDDJJNBNmZZBBBB6666ttttttttuutttt;-;;9755+#RRRRRRRRRR",
"RRRRRRRRdsDDJDZBNNMMBBBBBBww67iiwwtttrttss66--66666655,,RRRRRRRR",
"RRRRRRRRssDDDDBBCNMMBBBBZBww66iiwwttutttss66--66666655,,RRRRRRRR",
"RRRRRRRRssttDDBBBBBBBBBBBBBMtt66ssttwtss66--67rr996666>>RRRRRRRR",
"RRRRRRRRspttDDBBBBBBBBBBBBBBtt66ssttttss65--66rr996669,,RRRRRRRR",
"RRRRRRRRsstttttttrZBBBttttBZtt--66995565--6666tt695577,,RRRRRRRR",
"RRRRRRRRssturtttttBZBBwtttBNtt--66995566--6669tt665577,,RRRRRRRR",
"RRRRRRTU66ssttrrwwtuttutttss6699tttt66666766ttuu6666993,siRRRRRR",
"RRRRRRTT66ssttrrwettwtttttss7699tttt66666666ttuu666699,1ssRRRRRR",
"RRRRRRjjcc66ttttttyyrrss6666**-*tttttt6666wwuutt9965><ss11RRRRRR",
"RRRRRRjjcc96tttutwyyrrss6666***-tttttt6666wwuutt69662>ss11RRRRRR",
"RRRRRRjjjgcxfsttsdssss66wwutRR96uttttttttttrttttrr6611ss,,44RRRR",
"RRRRRRjjjjccssttpssssi66wwttRR67utttttttttttttttrr6611ss,,44RRRR",
"RRRRRR>>jjjjbv66666666ttwwtttwbbtuttttttttuurrttttbbhhii,,>>RRRR",
"RRRRRR>>jjjjbb66666656ttwwwtwtcbttttttttttuurrtttrbbhhii,,>>RRRR",
"RRRR,,,,sihhjjYY6900ttttrtutbbbbbbrtwrttttrrttbbbcjjiiii33+#RRRR",
"RRRR,,,,ssjhjjYY9907trrtttttbbbbvbttttwtttrrttbbbbjjiiia23#+RRRR",
"++++OO>>,,ssssjzYYYYbbbbYTPPssPPYYvbYYTTPPbbggjjggssss,,OO%%oooo",
"O+++OO,<,,ssssjjYYYYbnbbYIPPssPLYYbbYYTTPPbbggjjggssss,,OO%%oooo",
"++++,,++,,,,sissiijjzjjjjjjj++%+hhhhkgYYlljjjjjjsspi,,++$$o oooo",
"%#++,,#+,,3,ssssiijjjjgjjjjj+%++jjhhggPYlzjgjjjjssii,,#+$$oooooo",
"RRRR,,OO++11%%%+,,>>,,sssi++++,,,,ddjjjjhhssiifs>,++##,,++ooRRRR",
"RRRR3,OO+#11%%+%,,>>,,ssss++++,,,,ddjjjjljssiiss,,++&#,,++XoRRRR",
"RRRRRRRR++++,,,,%%++,,+++#++++ss,,>>,,,,isssssfp+O11,,XXRRRRRRRR",
"RRRRRRRR++++,,1,%%++>,+++%++++ss,,>>,,1,sssssdff++11,,XXRRRRRRRR",
"RRRRRRRRRRRRO#++++11++,,>>33O@ss3,++++++,,>,+%++3,>>RRRRRRRRRRRR",
"RRRRRRRRRRRR#+++++11++,,>>33O+ds>,++++++,,,,++++,,>>RRRRRRRRRRRR",
"RRRRRRRRRRRRRRRR++++,,,1,,,,%$++++++O+OO##++++,,RRRRRRRRRRRRRRRR",
"RRRRRRRRRRRRRRRR++++,,,3,,,,%%+++%++O+OO##++++,,RRRRRRRRRRRRRRRR",
"RRRRRRRRRRRRRRRRRRRR+#++++OO++##++++,,2>,,,,RRRRRRRRRRRRRRRRRRRR",
"RRRRRRRRRRRRRRRRRRRR#&++O+OO++##++++,,>>,,,,RRRRRRRRRRRRRRRRRRRR",
"RRRRRRRRRRRRRRRRRRRRRRRR,,%%33,,++111111RRRRRRRRRRRRRRRRRRRRRRRR",
"RRRRRRRRRRRRRRRRRRRRRRRR,,%$33,,++1,1111RRRRRRRRRRRRRRRRRRRRRRRR",
"RRRRRRRRRRRRRRRRRRRRRRRRRRRR,,,3.oXXRRRRRRRRRRRRRRRRRRRRRRRRRRRR",
"RRRRRRRRRRRRRRRRRRRRRRRRRRRR,,,,oooXRRRRRRRRRRRRRRRRRRRRRRRRRRRR"
};
